%TF.GenerationSoftware,KiCad,Pcbnew,8.0.5*%
%TF.CreationDate,2025-03-29T03:18:47+03:00*%
%TF.ProjectId,PCB_FINAL_UPDATED,5043425f-4649-44e4-914c-5f5550444154,rev?*%
%TF.SameCoordinates,Original*%
%TF.FileFunction,Profile,NP*%
%FSLAX46Y46*%
G04 Gerber Fmt 4.6, Leading zero omitted, Abs format (unit mm)*
G04 Created by KiCad (PCBNEW 8.0.5) date 2025-03-29 03:18:47*
%MOMM*%
%LPD*%
G01*
G04 APERTURE LIST*
%TA.AperFunction,Profile*%
%ADD10C,0.200000*%
%TD*%
%ADD11C,0.350000*%
G04 APERTURE END LIST*
D10*
X104000000Y-90500000D02*
X104000000Y-71000000D01*
X94500000Y-49000000D02*
X34000000Y-49000000D01*
X94500000Y-61500000D02*
X94500000Y-49000000D01*
X104000000Y-90500000D02*
G75*
G02*
X94500000Y-100000000I-9500000J0D01*
G01*
X94500000Y-61500000D02*
G75*
G02*
X104000000Y-71000000I0J-9500000D01*
G01*
X94500000Y-119500000D02*
X94500000Y-100000000D01*
X34000000Y-119000000D02*
X94499996Y-119500519D01*
X34000000Y-49000000D02*
X34000000Y-119000000D01*
D11*
X35150000Y-116300000D03*
X35633274Y-115133274D03*
X35633274Y-117466726D03*
X36800000Y-114650000D03*
X36800000Y-116300000D03*
X36800000Y-117950000D03*
X37966726Y-115133274D03*
X37966726Y-117466726D03*
X38450000Y-116300000D03*
X96250000Y-66950000D03*
X96733274Y-65783274D03*
X96733274Y-68116726D03*
X97900000Y-65300000D03*
X97900000Y-66950000D03*
X97900000Y-68600000D03*
X99066726Y-65783274D03*
X99066726Y-68116726D03*
X99550000Y-66950000D03*
X68797800Y-53822600D03*
X71297800Y-53822600D03*
X96050000Y-94800000D03*
X96533274Y-93633274D03*
X96533274Y-95966726D03*
X97700000Y-93150000D03*
X97700000Y-94800000D03*
X97700000Y-96450000D03*
X98866726Y-93633274D03*
X98866726Y-95966726D03*
X99350000Y-94800000D03*
X71054600Y-115390000D03*
X68554600Y-115390000D03*
X54135000Y-103250000D03*
X56675000Y-103250000D03*
X86720600Y-51115200D03*
X84180600Y-51115200D03*
X91627600Y-109491000D03*
X90357600Y-109491000D03*
X89087600Y-109491000D03*
X49025000Y-53150000D03*
X51525000Y-53150000D03*
X88707600Y-115951000D03*
X86207600Y-115951000D03*
X41053500Y-84768500D03*
X48053500Y-84768500D03*
X99949000Y-74277200D03*
X99949000Y-76777200D03*
X99949000Y-79277200D03*
X99949000Y-81777200D03*
X99949000Y-84277200D03*
X99949000Y-86777200D03*
X35200000Y-52000000D03*
X35683274Y-50833274D03*
X35683274Y-53166726D03*
X36850000Y-50350000D03*
X36850000Y-52000000D03*
X36850000Y-53650000D03*
X38016726Y-50833274D03*
X38016726Y-53166726D03*
X38500000Y-52000000D03*
X67335400Y-97891600D03*
X67335400Y-100431600D03*
X67335400Y-108051600D03*
X72415400Y-108051600D03*
X72415400Y-100431600D03*
X72415400Y-97891600D03*
M02*
