M48
METRIC,TZ
T1C0.300
T2C0.400
T3C0.750
T4C0.950
T5C0.991
T6C1.000
T7C2.200
%
G90
G05
T1
X34750Y-65950
X36750Y-92050
X36750Y-92925
X36900Y-67800
X37000Y-69900
X37460Y-59070
X38200Y-96450
X38350Y-103900
X40200Y-60800
X40850Y-102750
X41050Y-110100
X41300Y-63800
X41800Y-112600
X42400Y-107500
X43300Y-111800
X43400Y-65100
X43700Y-100500
X44400Y-73750
X44900Y-91300
X45300Y-102750
X46200Y-101400
X46200Y-103850
X46600Y-60600
X46900Y-101400
X46900Y-103850
X47250Y-73750
X47300Y-114500
X47600Y-101400
X47600Y-103850
X48330Y-61760
X48550Y-112500
X48700Y-109950
X49200Y-68800
X49950Y-109700
X50000Y-107280
X50040Y-98750
X50200Y-75500
X50200Y-100210
X50500Y-70000
X51000Y-62700
X51000Y-63600
X51900Y-73100
X52300Y-98600
X52900Y-61100
X52900Y-62000
X52900Y-69200
X53100Y-111600
X54000Y-108224
X54200Y-110600
X55700Y-94800
X55700Y-98600
X56300Y-60000
X56300Y-64800
X57900Y-113400
X58450Y-110380
X64570Y-66650
X66150Y-76100
X67200Y-91750
X67350Y-89950
X68600Y-87300
X68750Y-66350
X73200Y-67150
X74800Y-62530
X80430Y-58700
X81000Y-108320
X81500Y-89050
X82200Y-91320
X82800Y-61170
X83050Y-103020
X83050Y-105070
X83080Y-93550
X83100Y-109720
X83200Y-99600
X85000Y-93750
X85700Y-60250
X86550Y-99600
X88850Y-81050
X88900Y-74300
X88900Y-76800
X88950Y-79150
X89400Y-97800
X89400Y-100400
X90500Y-105020
X90870Y-95500
X90900Y-91130
X91700Y-102200
X92600Y-98880
T2
X35150Y-116300
X35200Y-52000
X35633Y-115133
X35633Y-117467
X35683Y-50833
X35683Y-53167
X36800Y-114650
X36800Y-117950
X36850Y-50350
X36850Y-53650
X37967Y-115133
X37967Y-117467
X38017Y-50833
X38017Y-53167
X38450Y-116300
X38500Y-52000
X96050Y-94800
X96250Y-66950
X96533Y-93633
X96533Y-95967
X96733Y-65783
X96733Y-68117
X97700Y-93150
X97700Y-96450
X97900Y-65300
X97900Y-68600
X98867Y-93633
X98867Y-95967
X99067Y-65783
X99067Y-68117
X99350Y-94800
X99550Y-66950
T3
X89088Y-109491
X90358Y-109491
X91628Y-109491
T4
X49025Y-53150
X51525Y-53150
X68555Y-115390
X68798Y-53823
X71055Y-115390
X71298Y-53823
X86208Y-115951
X88708Y-115951
X99949Y-74277
X99949Y-76777
X99949Y-79277
X99949Y-81777
X99949Y-84277
X99949Y-86777
T5
X67335Y-97892
X67335Y-100432
X67335Y-108052
X72415Y-97892
X72415Y-100432
X72415Y-108052
T6
X54135Y-103250
X56675Y-103250
X84181Y-51115
X86721Y-51115
T7
X36800Y-116300
X36850Y-52000
X97700Y-94800
X97900Y-66950
M30
