%TF.GenerationSoftware,KiCad,Pcbnew,8.0.5*%
%TF.CreationDate,2025-03-29T03:18:47+03:00*%
%TF.ProjectId,PCB_FINAL_UPDATED,5043425f-4649-44e4-914c-5f5550444154,rev?*%
%TF.SameCoordinates,Original*%
%TF.FileFunction,Copper,L1,Top*%
%TF.FilePolarity,Positive*%
%FSLAX46Y46*%
G04 Gerber Fmt 4.6, Leading zero omitted, Abs format (unit mm)*
G04 Created by KiCad (PCBNEW 8.0.5) date 2025-03-29 03:18:47*
%MOMM*%
%LPD*%
G01*
G04 APERTURE LIST*
G04 Aperture macros list*
%AMRoundRect*
0 Rectangle with rounded corners*
0 $1 Rounding radius*
0 $2 $3 $4 $5 $6 $7 $8 $9 X,Y pos of 4 corners*
0 Add a 4 corners polygon primitive as box body*
4,1,4,$2,$3,$4,$5,$6,$7,$8,$9,$2,$3,0*
0 Add four circle primitives for the rounded corners*
1,1,$1+$1,$2,$3*
1,1,$1+$1,$4,$5*
1,1,$1+$1,$6,$7*
1,1,$1+$1,$8,$9*
0 Add four rect primitives between the rounded corners*
20,1,$1+$1,$2,$3,$4,$5,0*
20,1,$1+$1,$4,$5,$6,$7,0*
20,1,$1+$1,$6,$7,$8,$9,0*
20,1,$1+$1,$8,$9,$2,$3,0*%
G04 Aperture macros list end*
%TA.AperFunction,SMDPad,CuDef*%
%ADD10RoundRect,0.250000X-0.250000X-0.475000X0.250000X-0.475000X0.250000X0.475000X-0.250000X0.475000X0*%
%TD*%
%TA.AperFunction,SMDPad,CuDef*%
%ADD11C,1.000000*%
%TD*%
%TA.AperFunction,SMDPad,CuDef*%
%ADD12RoundRect,0.200000X0.275000X-0.200000X0.275000X0.200000X-0.275000X0.200000X-0.275000X-0.200000X0*%
%TD*%
%TA.AperFunction,SMDPad,CuDef*%
%ADD13RoundRect,0.218750X-0.256250X0.218750X-0.256250X-0.218750X0.256250X-0.218750X0.256250X0.218750X0*%
%TD*%
%TA.AperFunction,SMDPad,CuDef*%
%ADD14RoundRect,0.225000X0.225000X0.250000X-0.225000X0.250000X-0.225000X-0.250000X0.225000X-0.250000X0*%
%TD*%
%TA.AperFunction,SMDPad,CuDef*%
%ADD15R,7.500000X2.200000*%
%TD*%
%TA.AperFunction,SMDPad,CuDef*%
%ADD16R,3.300000X1.200000*%
%TD*%
%TA.AperFunction,SMDPad,CuDef*%
%ADD17RoundRect,0.150000X-0.725000X-0.150000X0.725000X-0.150000X0.725000X0.150000X-0.725000X0.150000X0*%
%TD*%
%TA.AperFunction,SMDPad,CuDef*%
%ADD18RoundRect,0.200000X0.200000X0.275000X-0.200000X0.275000X-0.200000X-0.275000X0.200000X-0.275000X0*%
%TD*%
%TA.AperFunction,SMDPad,CuDef*%
%ADD19RoundRect,0.200000X-0.200000X-0.275000X0.200000X-0.275000X0.200000X0.275000X-0.200000X0.275000X0*%
%TD*%
%TA.AperFunction,SMDPad,CuDef*%
%ADD20RoundRect,0.225000X0.250000X-0.225000X0.250000X0.225000X-0.250000X0.225000X-0.250000X-0.225000X0*%
%TD*%
%TA.AperFunction,ComponentPad*%
%ADD21C,0.700000*%
%TD*%
%TA.AperFunction,ComponentPad*%
%ADD22C,4.400000*%
%TD*%
%TA.AperFunction,SMDPad,CuDef*%
%ADD23RoundRect,0.250000X0.475000X-0.250000X0.475000X0.250000X-0.475000X0.250000X-0.475000X-0.250000X0*%
%TD*%
%TA.AperFunction,SMDPad,CuDef*%
%ADD24RoundRect,0.225000X-0.225000X-0.250000X0.225000X-0.250000X0.225000X0.250000X-0.225000X0.250000X0*%
%TD*%
%TA.AperFunction,SMDPad,CuDef*%
%ADD25RoundRect,0.250000X-0.475000X0.250000X-0.475000X-0.250000X0.475000X-0.250000X0.475000X0.250000X0*%
%TD*%
%TA.AperFunction,SMDPad,CuDef*%
%ADD26RoundRect,0.250000X0.250000X0.475000X-0.250000X0.475000X-0.250000X-0.475000X0.250000X-0.475000X0*%
%TD*%
%TA.AperFunction,SMDPad,CuDef*%
%ADD27RoundRect,0.250000X-1.000000X-0.900000X1.000000X-0.900000X1.000000X0.900000X-1.000000X0.900000X0*%
%TD*%
%TA.AperFunction,ComponentPad*%
%ADD28RoundRect,0.250000X-0.600000X-0.725000X0.600000X-0.725000X0.600000X0.725000X-0.600000X0.725000X0*%
%TD*%
%TA.AperFunction,ComponentPad*%
%ADD29O,1.700000X1.950000*%
%TD*%
%TA.AperFunction,SMDPad,CuDef*%
%ADD30R,0.254000X0.711200*%
%TD*%
%TA.AperFunction,SMDPad,CuDef*%
%ADD31R,1.549400X1.752600*%
%TD*%
%TA.AperFunction,SMDPad,CuDef*%
%ADD32RoundRect,0.218750X0.256250X-0.218750X0.256250X0.218750X-0.256250X0.218750X-0.256250X-0.218750X0*%
%TD*%
%TA.AperFunction,SMDPad,CuDef*%
%ADD33RoundRect,0.112500X0.187500X0.112500X-0.187500X0.112500X-0.187500X-0.112500X0.187500X-0.112500X0*%
%TD*%
%TA.AperFunction,SMDPad,CuDef*%
%ADD34RoundRect,0.200000X-0.275000X0.200000X-0.275000X-0.200000X0.275000X-0.200000X0.275000X0.200000X0*%
%TD*%
%TA.AperFunction,SMDPad,CuDef*%
%ADD35RoundRect,0.250000X0.650000X-1.000000X0.650000X1.000000X-0.650000X1.000000X-0.650000X-1.000000X0*%
%TD*%
%TA.AperFunction,SMDPad,CuDef*%
%ADD36RoundRect,0.075000X-0.225000X0.910000X-0.225000X-0.910000X0.225000X-0.910000X0.225000X0.910000X0*%
%TD*%
%TA.AperFunction,ComponentPad*%
%ADD37RoundRect,0.250000X0.600000X0.725000X-0.600000X0.725000X-0.600000X-0.725000X0.600000X-0.725000X0*%
%TD*%
%TA.AperFunction,SMDPad,CuDef*%
%ADD38RoundRect,0.150000X-0.150000X-0.200000X0.150000X-0.200000X0.150000X0.200000X-0.150000X0.200000X0*%
%TD*%
%TA.AperFunction,ComponentPad*%
%ADD39R,1.700000X1.700000*%
%TD*%
%TA.AperFunction,ComponentPad*%
%ADD40O,1.700000X1.700000*%
%TD*%
%TA.AperFunction,SMDPad,CuDef*%
%ADD41R,0.749300X0.406400*%
%TD*%
%TA.AperFunction,SMDPad,CuDef*%
%ADD42RoundRect,0.250000X-0.550000X1.412500X-0.550000X-1.412500X0.550000X-1.412500X0.550000X1.412500X0*%
%TD*%
%TA.AperFunction,SMDPad,CuDef*%
%ADD43RoundRect,0.110000X-1.590000X0.440000X-1.590000X-0.440000X1.590000X-0.440000X1.590000X0.440000X0*%
%TD*%
%TA.AperFunction,SMDPad,CuDef*%
%ADD44R,0.711200X0.431800*%
%TD*%
%TA.AperFunction,SMDPad,CuDef*%
%ADD45RoundRect,0.250000X-1.000000X-0.650000X1.000000X-0.650000X1.000000X0.650000X-1.000000X0.650000X0*%
%TD*%
%TA.AperFunction,SMDPad,CuDef*%
%ADD46RoundRect,0.150000X-0.150000X0.587500X-0.150000X-0.587500X0.150000X-0.587500X0.150000X0.587500X0*%
%TD*%
%TA.AperFunction,SMDPad,CuDef*%
%ADD47RoundRect,0.375000X0.375000X-0.625000X0.375000X0.625000X-0.375000X0.625000X-0.375000X-0.625000X0*%
%TD*%
%TA.AperFunction,SMDPad,CuDef*%
%ADD48RoundRect,0.500000X1.400000X-0.500000X1.400000X0.500000X-1.400000X0.500000X-1.400000X-0.500000X0*%
%TD*%
%TA.AperFunction,ComponentPad*%
%ADD49R,1.050000X1.500000*%
%TD*%
%TA.AperFunction,ComponentPad*%
%ADD50O,1.050000X1.500000*%
%TD*%
%TA.AperFunction,SMDPad,CuDef*%
%ADD51RoundRect,0.150000X0.150000X-0.512500X0.150000X0.512500X-0.150000X0.512500X-0.150000X-0.512500X0*%
%TD*%
%TA.AperFunction,SMDPad,CuDef*%
%ADD52R,1.460500X0.558800*%
%TD*%
%TA.AperFunction,SMDPad,CuDef*%
%ADD53RoundRect,0.218750X0.218750X0.256250X-0.218750X0.256250X-0.218750X-0.256250X0.218750X-0.256250X0*%
%TD*%
%TA.AperFunction,SMDPad,CuDef*%
%ADD54R,2.200000X2.100000*%
%TD*%
%TA.AperFunction,SMDPad,CuDef*%
%ADD55R,2.700000X2.100000*%
%TD*%
%TA.AperFunction,SMDPad,CuDef*%
%ADD56R,2.000000X2.100000*%
%TD*%
%TA.AperFunction,SMDPad,CuDef*%
%ADD57R,2.600000X2.700000*%
%TD*%
%TA.AperFunction,SMDPad,CuDef*%
%ADD58RoundRect,0.225000X-0.250000X0.225000X-0.250000X-0.225000X0.250000X-0.225000X0.250000X0.225000X0*%
%TD*%
%TA.AperFunction,SMDPad,CuDef*%
%ADD59RoundRect,0.150000X-0.825000X-0.150000X0.825000X-0.150000X0.825000X0.150000X-0.825000X0.150000X0*%
%TD*%
%TA.AperFunction,ComponentPad*%
%ADD60RoundRect,0.250000X-0.725000X0.600000X-0.725000X-0.600000X0.725000X-0.600000X0.725000X0.600000X0*%
%TD*%
%TA.AperFunction,ComponentPad*%
%ADD61O,1.950000X1.700000*%
%TD*%
%TA.AperFunction,ComponentPad*%
%ADD62C,1.498600*%
%TD*%
%TA.AperFunction,SMDPad,CuDef*%
%ADD63R,1.200000X1.200000*%
%TD*%
%TA.AperFunction,SMDPad,CuDef*%
%ADD64RoundRect,0.150000X-0.512500X-0.150000X0.512500X-0.150000X0.512500X0.150000X-0.512500X0.150000X0*%
%TD*%
%TA.AperFunction,ViaPad*%
%ADD65C,0.500000*%
%TD*%
%TA.AperFunction,Conductor*%
%ADD66C,0.152400*%
%TD*%
%TA.AperFunction,Conductor*%
%ADD67C,0.500000*%
%TD*%
%ADD68C,0.300000*%
%ADD69C,0.350000*%
G04 APERTURE END LIST*
D10*
%TO.P,C5,1*%
%TO.N,+5V*%
X54425000Y-61450000D03*
%TO.P,C5,2*%
%TO.N,GND*%
X56325000Y-61450000D03*
%TD*%
D11*
%TO.P,TP2,1,1*%
%TO.N,+5V*%
X50500000Y-61250000D03*
%TD*%
D12*
%TO.P,R28,1*%
%TO.N,Net-(D10-K)*%
X92141600Y-106677000D03*
%TO.P,R28,2*%
%TO.N,GND*%
X92141600Y-105027000D03*
%TD*%
D13*
%TO.P,F1,1*%
%TO.N,VBAT*%
X45200000Y-50162500D03*
%TO.P,F1,2*%
%TO.N,Net-(D1-A)*%
X45200000Y-51737500D03*
%TD*%
D10*
%TO.P,C1,1*%
%TO.N,3.6V*%
X46400000Y-63137500D03*
%TO.P,C1,2*%
%TO.N,GND*%
X48300000Y-63137500D03*
%TD*%
D12*
%TO.P,R20,1*%
%TO.N,/ANALOG CIRCUIT/MAO*%
X55250000Y-116425000D03*
%TO.P,R20,2*%
%TO.N,Net-(C17-Pad1)*%
X55250000Y-114775000D03*
%TD*%
D13*
%TO.P,D3,1,K*%
%TO.N,Net-(D3-K)*%
X40125000Y-57462500D03*
%TO.P,D3,2,A*%
%TO.N,3.6V*%
X40125000Y-59037500D03*
%TD*%
D14*
%TO.P,C19,1*%
%TO.N,GND*%
X47900000Y-115500000D03*
%TO.P,C19,2*%
%TO.N,Net-(C19-Pad2)*%
X46350000Y-115500000D03*
%TD*%
D15*
%TO.P,L3,1,1*%
%TO.N,Net-(D16-A)*%
X89441424Y-63769799D03*
%TO.P,L3,2,2*%
%TO.N,Net-(J8-Pin_1)*%
X89441424Y-57769799D03*
%TD*%
D16*
%TO.P,L1,1,1*%
%TO.N,Net-(U7-SW)*%
X84977000Y-101139200D03*
%TO.P,L1,2,2*%
%TO.N,+5VA*%
X84977000Y-98039200D03*
%TD*%
D17*
%TO.P,U2,1,VOS*%
%TO.N,unconnected-(U2-VOS-Pad1)*%
X48665000Y-96090000D03*
%TO.P,U2,2,-*%
%TO.N,/ANALOG CIRCUIT/RLI*%
X48665000Y-97360000D03*
%TO.P,U2,3,+*%
%TO.N,GND*%
X48665000Y-98630000D03*
%TO.P,U2,4,V-*%
%TO.N,-5V*%
X48665000Y-99900000D03*
%TO.P,U2,5,NC*%
%TO.N,unconnected-(U2-NC-Pad5)*%
X53815000Y-99900000D03*
%TO.P,U2,6*%
%TO.N,/ANALOG CIRCUIT/RLD*%
X53815000Y-98630000D03*
%TO.P,U2,7,V+*%
%TO.N,+5V*%
X53815000Y-97360000D03*
%TO.P,U2,8,VOS*%
%TO.N,unconnected-(U2-VOS-Pad8)*%
X53815000Y-96090000D03*
%TD*%
D18*
%TO.P,R32,1*%
%TO.N,Net-(Q2-B)*%
X70243200Y-89916000D03*
%TO.P,R32,2*%
%TO.N,GND*%
X68593200Y-89916000D03*
%TD*%
D12*
%TO.P,R22,1*%
%TO.N,Net-(C17-Pad1)*%
X55325000Y-110400000D03*
%TO.P,R22,2*%
%TO.N,Net-(U5D-+)*%
X55325000Y-108750000D03*
%TD*%
D19*
%TO.P,R11,1*%
%TO.N,Net-(J3-Pad1)*%
X41875000Y-88800000D03*
%TO.P,R11,2*%
%TO.N,/ANALOG CIRCUIT/RA*%
X43525000Y-88800000D03*
%TD*%
D12*
%TO.P,R25,1*%
%TO.N,Net-(C19-Pad2)*%
X44925000Y-112625000D03*
%TO.P,R25,2*%
%TO.N,Net-(U5B-+)*%
X44925000Y-110975000D03*
%TD*%
D20*
%TO.P,C26,1*%
%TO.N,Net-(U7-SW)*%
X81956200Y-101140600D03*
%TO.P,C26,2*%
%TO.N,Net-(U7-VBST)*%
X81956200Y-99590600D03*
%TD*%
D21*
%TO.P,H2,1,1*%
%TO.N,GND*%
X35150000Y-116300000D03*
X35633274Y-115133274D03*
X35633274Y-117466726D03*
X36800000Y-114650000D03*
D22*
X36800000Y-116300000D03*
D21*
X36800000Y-117950000D03*
X37966726Y-115133274D03*
X37966726Y-117466726D03*
X38450000Y-116300000D03*
%TD*%
D23*
%TO.P,C3,1*%
%TO.N,VBAT*%
X40200000Y-63950000D03*
%TO.P,C3,2*%
%TO.N,GND*%
X40200000Y-62050000D03*
%TD*%
D21*
%TO.P,H3,1,1*%
%TO.N,GND*%
X96250000Y-66950000D03*
X96733274Y-65783274D03*
X96733274Y-68116726D03*
X97900000Y-65300000D03*
D22*
X97900000Y-66950000D03*
D21*
X97900000Y-68600000D03*
X99066726Y-65783274D03*
X99066726Y-68116726D03*
X99550000Y-66950000D03*
%TD*%
D24*
%TO.P,C9,1*%
%TO.N,-5V*%
X48665000Y-101470000D03*
%TO.P,C9,2*%
%TO.N,GND*%
X50215000Y-101470000D03*
%TD*%
D25*
%TO.P,C34,1*%
%TO.N,GND*%
X80449824Y-60223399D03*
%TO.P,C34,2*%
%TO.N,+12V*%
X80449824Y-62123399D03*
%TD*%
D26*
%TO.P,C25,1*%
%TO.N,+12V*%
X86477000Y-103039200D03*
%TO.P,C25,2*%
%TO.N,GND*%
X84577000Y-103039200D03*
%TD*%
D27*
%TO.P,D16,1,K*%
%TO.N,+12V*%
X80114424Y-67430399D03*
%TO.P,D16,2,A*%
%TO.N,Net-(D16-A)*%
X84414424Y-67430399D03*
%TD*%
D28*
%TO.P,J5,1,Pin_1*%
%TO.N,OUT1*%
X68797800Y-53822600D03*
D29*
%TO.P,J5,2,Pin_2*%
%TO.N,OUT2*%
X71297800Y-53822600D03*
%TD*%
D10*
%TO.P,C28,1*%
%TO.N,+5VA*%
X88981800Y-93863200D03*
%TO.P,C28,2*%
%TO.N,GND*%
X90881800Y-93863200D03*
%TD*%
D12*
%TO.P,R7,1*%
%TO.N,/ANALOG CIRCUIT/RLD*%
X58665000Y-97160000D03*
%TO.P,R7,2*%
%TO.N,/ANALOG CIRCUIT/RLI*%
X58665000Y-95510000D03*
%TD*%
D30*
%TO.P,E1,1*%
%TO.N,Net-(E1-Pad1)*%
X41150002Y-65950000D03*
%TO.P,E1,2*%
%TO.N,GND*%
X40650001Y-65950000D03*
%TO.P,E1,3*%
%TO.N,VBAT*%
X40150001Y-65950000D03*
%TO.P,E1,4*%
%TO.N,+5VA*%
X39650000Y-65950000D03*
%TO.P,E1,5*%
%TO.N,PROG*%
X39650000Y-68642400D03*
%TO.P,E1,6*%
%TO.N,unconnected-(E1-Pad6)*%
X40150001Y-68642400D03*
%TO.P,E1,7*%
%TO.N,unconnected-(E1-Pad7)*%
X40650001Y-68642400D03*
%TO.P,E1,8*%
%TO.N,unconnected-(E1-Pad8)*%
X41150002Y-68642400D03*
D31*
%TO.P,E1,9*%
%TO.N,unconnected-(E1-Pad9)*%
X40400001Y-67296200D03*
%TD*%
D32*
%TO.P,F3,1*%
%TO.N,Net-(J4-Pin_1)*%
X92482600Y-115937500D03*
%TO.P,F3,2*%
%TO.N,Net-(Q1-D)*%
X92482600Y-114362500D03*
%TD*%
D33*
%TO.P,D15,1,K*%
%TO.N,+12V*%
X71433400Y-95554800D03*
%TO.P,D15,2,A*%
%TO.N,Net-(D15-A)*%
X69333400Y-95554800D03*
%TD*%
D34*
%TO.P,R3,1*%
%TO.N,Net-(D3-K)*%
X38525000Y-57425000D03*
%TO.P,R3,2*%
%TO.N,GND*%
X38525000Y-59075000D03*
%TD*%
D20*
%TO.P,C7,1*%
%TO.N,+5V*%
X55690000Y-97370000D03*
%TO.P,C7,2*%
%TO.N,GND*%
X55690000Y-95820000D03*
%TD*%
%TO.P,C20,1*%
%TO.N,Net-(C18-Pad2)*%
X40300000Y-116900000D03*
%TO.P,C20,2*%
%TO.N,Net-(U5B-+)*%
X40300000Y-115350000D03*
%TD*%
D11*
%TO.P,TP4,1,1*%
%TO.N,+12V*%
X92827400Y-100645000D03*
%TD*%
D34*
%TO.P,R4,1*%
%TO.N,Net-(D4-K)*%
X42300001Y-64296200D03*
%TO.P,R4,2*%
%TO.N,Net-(E1-Pad1)*%
X42300001Y-65946200D03*
%TD*%
D19*
%TO.P,R29,1*%
%TO.N,Net-(U7-VFB)*%
X89386200Y-98892400D03*
%TO.P,R29,2*%
%TO.N,GND*%
X91036200Y-98892400D03*
%TD*%
D12*
%TO.P,R30,1*%
%TO.N,Net-(U7-VFB)*%
X87976000Y-98879200D03*
%TO.P,R30,2*%
%TO.N,+5VA*%
X87976000Y-97229200D03*
%TD*%
D35*
%TO.P,D1,1,K*%
%TO.N,3.6V*%
X42625000Y-55750000D03*
%TO.P,D1,2,A*%
%TO.N,Net-(D1-A)*%
X42625000Y-51750000D03*
%TD*%
D19*
%TO.P,R31,1*%
%TO.N,FAN_C*%
X68567800Y-88442800D03*
%TO.P,R31,2*%
%TO.N,Net-(Q2-B)*%
X70217800Y-88442800D03*
%TD*%
D36*
%TO.P,U6,1,RG*%
%TO.N,/ANALOG CIRCUIT/RG1*%
X42105000Y-94765000D03*
%TO.P,U6,2,IN-*%
%TO.N,/ANALOG CIRCUIT/RA*%
X40835000Y-94765000D03*
%TO.P,U6,3,IN+*%
%TO.N,/ANALOG CIRCUIT/LA*%
X39565000Y-94765000D03*
%TO.P,U6,4,V-*%
%TO.N,-5V*%
X38295000Y-94765000D03*
%TO.P,U6,5,REF*%
%TO.N,Net-(U6-REF)*%
X38295000Y-99705000D03*
%TO.P,U6,6,OUT*%
%TO.N,/ANALOG CIRCUIT/IAF_O*%
X39565000Y-99705000D03*
%TO.P,U6,7,V+*%
%TO.N,+5V*%
X40835000Y-99705000D03*
%TO.P,U6,8,RG*%
%TO.N,/ANALOG CIRCUIT/RG2*%
X42105000Y-99705000D03*
%TD*%
D21*
%TO.P,H4,1,1*%
%TO.N,GND*%
X96050000Y-94800000D03*
X96533274Y-93633274D03*
X96533274Y-95966726D03*
X97700000Y-93150000D03*
D22*
X97700000Y-94800000D03*
D21*
X97700000Y-96450000D03*
X98866726Y-93633274D03*
X98866726Y-95966726D03*
X99350000Y-94800000D03*
%TD*%
D37*
%TO.P,J6,1,Pin_1*%
%TO.N,GND*%
X71054600Y-115390000D03*
D29*
%TO.P,J6,2,Pin_2*%
%TO.N,Net-(J6-Pin_2)*%
X68554600Y-115390000D03*
%TD*%
D26*
%TO.P,C30,1*%
%TO.N,+3.3V*%
X85461400Y-91374000D03*
%TO.P,C30,2*%
%TO.N,GND*%
X83561400Y-91374000D03*
%TD*%
D38*
%TO.P,D9,1,K*%
%TO.N,+12V*%
X83907600Y-108301000D03*
%TO.P,D9,2,A*%
%TO.N,GND*%
X82507600Y-108301000D03*
%TD*%
D39*
%TO.P,J7,1,Pin_1*%
%TO.N,ECG_I*%
X54135000Y-103250000D03*
D40*
%TO.P,J7,2,Pin_2*%
%TO.N,GND*%
X56675000Y-103250000D03*
%TD*%
D24*
%TO.P,C15,1*%
%TO.N,Net-(C13-Pad2)*%
X38025000Y-108425000D03*
%TO.P,C15,2*%
%TO.N,Net-(U5A-+)*%
X39575000Y-108425000D03*
%TD*%
D41*
%TO.P,U10,1,SW*%
%TO.N,Net-(D16-A)*%
X84428374Y-62100000D03*
%TO.P,U10,2,GND*%
%TO.N,GND*%
X84428374Y-61149999D03*
%TO.P,U10,3,CTRL*%
%TO.N,LED_PWM*%
X84428374Y-60199998D03*
%TO.P,U10,4,SET*%
%TO.N,Net-(J8-Pin_2)*%
X82078874Y-60199998D03*
%TO.P,U10,5,VIN*%
%TO.N,+12V*%
X82078874Y-62100000D03*
%TD*%
D12*
%TO.P,R1,1*%
%TO.N,Net-(U1-V_{FB})*%
X52875000Y-65062500D03*
%TO.P,R1,2*%
%TO.N,+5V*%
X52875000Y-63412500D03*
%TD*%
D42*
%TO.P,C32,1*%
%TO.N,+12V*%
X66141600Y-68605400D03*
%TO.P,C32,2*%
%TO.N,GND*%
X66141600Y-73680400D03*
%TD*%
D34*
%TO.P,R18,1*%
%TO.N,GND*%
X53900000Y-111725000D03*
%TO.P,R18,2*%
%TO.N,Net-(U5C--)*%
X53900000Y-113375000D03*
%TD*%
D24*
%TO.P,C29,1*%
%TO.N,+5VA*%
X87759800Y-91170800D03*
%TO.P,C29,2*%
%TO.N,GND*%
X89309800Y-91170800D03*
%TD*%
D39*
%TO.P,J8,1,Pin_1*%
%TO.N,Net-(J8-Pin_1)*%
X86720600Y-51115200D03*
D40*
%TO.P,J8,2,Pin_2*%
%TO.N,Net-(J8-Pin_2)*%
X84180600Y-51115200D03*
%TD*%
D26*
%TO.P,C24,1*%
%TO.N,+12V*%
X86452000Y-105039200D03*
%TO.P,C24,2*%
%TO.N,GND*%
X84552000Y-105039200D03*
%TD*%
D43*
%TO.P,L2,1,1*%
%TO.N,3.6V*%
X46375000Y-65062500D03*
%TO.P,L2,2,2*%
%TO.N,Net-(U1-SW)*%
X46375000Y-68062500D03*
%TD*%
D23*
%TO.P,C10,1*%
%TO.N,GND*%
X50600850Y-73085000D03*
%TO.P,C10,2*%
%TO.N,+5V*%
X50600850Y-71185000D03*
%TD*%
D12*
%TO.P,R15,1*%
%TO.N,Net-(U6-REF)*%
X36700000Y-99760000D03*
%TO.P,R15,2*%
%TO.N,+5V*%
X36700000Y-98110000D03*
%TD*%
D44*
%TO.P,U9,1,OUT1*%
%TO.N,OUT1*%
X67386200Y-62509400D03*
%TO.P,U9,2,VCC*%
%TO.N,+12V*%
X67386200Y-63779400D03*
%TO.P,U9,3,VCC*%
X67386200Y-65049400D03*
%TO.P,U9,4,FIN*%
%TO.N,FIN*%
X67386200Y-66319400D03*
%TO.P,U9,5,RIN*%
%TO.N,RIN*%
X73177400Y-66319400D03*
%TO.P,U9,6,VREF*%
%TO.N,+12V*%
X73177400Y-65049400D03*
%TO.P,U9,7,OUT2*%
%TO.N,OUT2*%
X73177400Y-63779400D03*
%TO.P,U9,8,GND*%
%TO.N,GND*%
X73177400Y-62509400D03*
%TD*%
D18*
%TO.P,R14,1*%
%TO.N,/ANALOG CIRCUIT/RLI*%
X46840000Y-96555000D03*
%TO.P,R14,2*%
%TO.N,/ANALOG CIRCUIT/RG1*%
X45190000Y-96555000D03*
%TD*%
%TO.P,R5,1*%
%TO.N,PROG*%
X39650000Y-69925000D03*
%TO.P,R5,2*%
%TO.N,GND*%
X38000000Y-69925000D03*
%TD*%
D14*
%TO.P,C13,1*%
%TO.N,/ANALOG CIRCUIT/IAF_O*%
X39575000Y-106925000D03*
%TO.P,C13,2*%
%TO.N,Net-(C13-Pad2)*%
X38025000Y-106925000D03*
%TD*%
D10*
%TO.P,C4,1*%
%TO.N,+5V*%
X54425000Y-63425000D03*
%TO.P,C4,2*%
%TO.N,GND*%
X56325000Y-63425000D03*
%TD*%
D18*
%TO.P,R10,1*%
%TO.N,Net-(J3-Pad3)*%
X46525000Y-88800000D03*
%TO.P,R10,2*%
%TO.N,/ANALOG CIRCUIT/RLD*%
X44875000Y-88800000D03*
%TD*%
D45*
%TO.P,D2,1,A1*%
%TO.N,3.6V*%
X42625000Y-59050000D03*
%TO.P,D2,2,A2*%
%TO.N,GND*%
X46625000Y-59050000D03*
%TD*%
D20*
%TO.P,C6,1*%
%TO.N,/ANALOG CIRCUIT/RLD*%
X57190000Y-98610000D03*
%TO.P,C6,2*%
%TO.N,Net-(C6-Pad2)*%
X57190000Y-97060000D03*
%TD*%
D12*
%TO.P,R13,1*%
%TO.N,/ANALOG CIRCUIT/RG2*%
X43765000Y-98205000D03*
%TO.P,R13,2*%
%TO.N,/ANALOG CIRCUIT/RG1*%
X43765000Y-96555000D03*
%TD*%
D14*
%TO.P,C31,1*%
%TO.N,+12V*%
X66141600Y-65125600D03*
%TO.P,C31,2*%
%TO.N,GND*%
X64591600Y-65125600D03*
%TD*%
D46*
%TO.P,Q2,1,B*%
%TO.N,Net-(Q2-B)*%
X70292000Y-91698600D03*
%TO.P,Q2,2,E*%
%TO.N,GND*%
X68392000Y-91698600D03*
%TO.P,Q2,3,C*%
%TO.N,Net-(D15-A)*%
X69342000Y-93573600D03*
%TD*%
D47*
%TO.P,U8,1,GND*%
%TO.N,GND*%
X83172800Y-89113400D03*
%TO.P,U8,2,VO*%
%TO.N,+3.3V*%
X85472800Y-89113400D03*
D48*
X85472800Y-82813400D03*
D47*
%TO.P,U8,3,VI*%
%TO.N,+5VA*%
X87772800Y-89113400D03*
%TD*%
D14*
%TO.P,C14,1*%
%TO.N,/ANALOG CIRCUIT/IAF_O*%
X39575000Y-105400000D03*
%TO.P,C14,2*%
%TO.N,Net-(C13-Pad2)*%
X38025000Y-105400000D03*
%TD*%
D49*
%TO.P,Q1,1,D*%
%TO.N,Net-(Q1-D)*%
X91627600Y-109491000D03*
D50*
%TO.P,Q1,2,G*%
%TO.N,Net-(D8-A)*%
X90357600Y-109491000D03*
%TO.P,Q1,3,S*%
%TO.N,+12V*%
X89087600Y-109491000D03*
%TD*%
D51*
%TO.P,U1,1,SW*%
%TO.N,Net-(U1-SW)*%
X49425000Y-67350000D03*
%TO.P,U1,2,GND*%
%TO.N,GND*%
X50375000Y-67350000D03*
%TO.P,U1,3,EN*%
%TO.N,3.6V*%
X51325000Y-67350000D03*
%TO.P,U1,4,V_{FB}*%
%TO.N,Net-(U1-V_{FB})*%
X51325000Y-65075000D03*
%TO.P,U1,5,V_{OUT}*%
%TO.N,+5V*%
X50375000Y-65075000D03*
%TO.P,U1,6,V_{IN}*%
%TO.N,3.6V*%
X49425000Y-65075000D03*
%TD*%
D19*
%TO.P,R24,1*%
%TO.N,/ANALOG CIRCUIT/HPF_O*%
X43275000Y-114075000D03*
%TO.P,R24,2*%
%TO.N,Net-(C19-Pad2)*%
X44925000Y-114075000D03*
%TD*%
D12*
%TO.P,R27,1*%
%TO.N,Net-(D8-A)*%
X84657600Y-111351000D03*
%TO.P,R27,2*%
%TO.N,GND*%
X84657600Y-109701000D03*
%TD*%
D28*
%TO.P,J1,1,Pin_1*%
%TO.N,VBAT*%
X49025000Y-53150000D03*
D29*
%TO.P,J1,2,Pin_2*%
%TO.N,GND*%
X51525000Y-53150000D03*
%TD*%
D52*
%TO.P,U3,1,NC*%
%TO.N,unconnected-(U3-NC-Pad1)*%
X43025850Y-71195000D03*
%TO.P,U3,2,C1+*%
%TO.N,Net-(U3-C1+)*%
X43025850Y-72465000D03*
%TO.P,U3,3,GND*%
%TO.N,GND*%
X43025850Y-73735000D03*
%TO.P,U3,4,C1-*%
%TO.N,Net-(U3-C1-)*%
X43025850Y-75005000D03*
%TO.P,U3,5,OUT*%
%TO.N,-5V*%
X48474150Y-75005000D03*
%TO.P,U3,6,LV*%
%TO.N,GND*%
X48474150Y-73735000D03*
%TO.P,U3,7,OSC*%
%TO.N,unconnected-(U3-OSC-Pad7)*%
X48474150Y-72465000D03*
%TO.P,U3,8,V+*%
%TO.N,+5V*%
X48474150Y-71195000D03*
%TD*%
D24*
%TO.P,C21,1*%
%TO.N,+5V*%
X40850000Y-101685000D03*
%TO.P,C21,2*%
%TO.N,GND*%
X42400000Y-101685000D03*
%TD*%
D53*
%TO.P,D10,1,K*%
%TO.N,Net-(D10-K)*%
X90643100Y-106664800D03*
%TO.P,D10,2,A*%
%TO.N,+12V*%
X89068100Y-106664800D03*
%TD*%
D12*
%TO.P,R2,1*%
%TO.N,GND*%
X52875000Y-68062500D03*
%TO.P,R2,2*%
%TO.N,Net-(U1-V_{FB})*%
X52875000Y-66412500D03*
%TD*%
D11*
%TO.P,TP1,1,1*%
%TO.N,3.6V*%
X43775000Y-62975000D03*
%TD*%
D37*
%TO.P,J4,1,Pin_1*%
%TO.N,Net-(J4-Pin_1)*%
X88707600Y-115951000D03*
D29*
%TO.P,J4,2,Pin_2*%
%TO.N,GND*%
X86207600Y-115951000D03*
%TD*%
D54*
%TO.P,J3,1,1*%
%TO.N,Net-(J3-Pad1)*%
X39703500Y-88818500D03*
%TO.P,J3,2,2*%
%TO.N,Net-(J3-Pad2)*%
X41603500Y-80718500D03*
D55*
%TO.P,J3,3,3*%
%TO.N,Net-(J3-Pad3)*%
X49003500Y-88818500D03*
D56*
%TO.P,J3,4,4*%
%TO.N,Net-(J3-Pad2)*%
X38903500Y-80718500D03*
D57*
%TO.P,J3,5,5*%
%TO.N,Net-(J3-Pad3)*%
X53103500Y-84018500D03*
%TD*%
D20*
%TO.P,C17,1*%
%TO.N,Net-(C17-Pad1)*%
X53975000Y-107375000D03*
%TO.P,C17,2*%
%TO.N,ECG_I*%
X53975000Y-105825000D03*
%TD*%
D58*
%TO.P,C22,1*%
%TO.N,-5V*%
X36725000Y-94760000D03*
%TO.P,C22,2*%
%TO.N,GND*%
X36725000Y-96310000D03*
%TD*%
D18*
%TO.P,R19,1*%
%TO.N,Net-(U5C--)*%
X53550000Y-115025000D03*
%TO.P,R19,2*%
%TO.N,/ANALOG CIRCUIT/MAO*%
X51900000Y-115025000D03*
%TD*%
D11*
%TO.P,TP6,1,1*%
%TO.N,-5V*%
X45325850Y-77035000D03*
%TD*%
D19*
%TO.P,R12,1*%
%TO.N,/ANALOG CIRCUIT/RG2*%
X45190000Y-98205000D03*
%TO.P,R12,2*%
%TO.N,/ANALOG CIRCUIT/RLI*%
X46840000Y-98205000D03*
%TD*%
D26*
%TO.P,C27,1*%
%TO.N,+5VA*%
X84989000Y-95107800D03*
%TO.P,C27,2*%
%TO.N,GND*%
X83089000Y-95107800D03*
%TD*%
D13*
%TO.P,D4,1,K*%
%TO.N,Net-(D4-K)*%
X38175001Y-62883700D03*
%TO.P,D4,2,A*%
%TO.N,+5VA*%
X38175001Y-64458700D03*
%TD*%
D12*
%TO.P,R8,1*%
%TO.N,Net-(C6-Pad2)*%
X57190000Y-95660000D03*
%TO.P,R8,2*%
%TO.N,/ANALOG CIRCUIT/RLI*%
X57190000Y-94010000D03*
%TD*%
D58*
%TO.P,C18,1*%
%TO.N,/ANALOG CIRCUIT/HPF_O*%
X41775000Y-113525000D03*
%TO.P,C18,2*%
%TO.N,Net-(C18-Pad2)*%
X41775000Y-115075000D03*
%TD*%
D59*
%TO.P,U5,1*%
%TO.N,/ANALOG CIRCUIT/HPF_O*%
X46950000Y-105890000D03*
%TO.P,U5,2,-*%
X46950000Y-107160000D03*
%TO.P,U5,3,+*%
%TO.N,Net-(U5A-+)*%
X46950000Y-108430000D03*
%TO.P,U5,4,V+*%
%TO.N,+5V*%
X46950000Y-109700000D03*
%TO.P,U5,5,+*%
%TO.N,Net-(U5B-+)*%
X46950000Y-110970000D03*
%TO.P,U5,6,-*%
%TO.N,/ANALOG CIRCUIT/NFO*%
X46950000Y-112240000D03*
%TO.P,U5,7*%
X46950000Y-113510000D03*
%TO.P,U5,8*%
%TO.N,/ANALOG CIRCUIT/MAO*%
X51900000Y-113510000D03*
%TO.P,U5,9,-*%
%TO.N,Net-(U5C--)*%
X51900000Y-112240000D03*
%TO.P,U5,10,+*%
%TO.N,Net-(U5C-+)*%
X51900000Y-110970000D03*
%TO.P,U5,11,V-*%
%TO.N,-5V*%
X51900000Y-109700000D03*
%TO.P,U5,12,+*%
%TO.N,Net-(U5D-+)*%
X51900000Y-108430000D03*
%TO.P,U5,13,-*%
%TO.N,ECG_I*%
X51900000Y-107160000D03*
%TO.P,U5,14*%
X51900000Y-105890000D03*
%TD*%
D20*
%TO.P,C16,1*%
%TO.N,GND*%
X57100000Y-110350000D03*
%TO.P,C16,2*%
%TO.N,Net-(U5D-+)*%
X57100000Y-108800000D03*
%TD*%
D25*
%TO.P,C2,1*%
%TO.N,+5VA*%
X38175001Y-65946200D03*
%TO.P,C2,2*%
%TO.N,GND*%
X38175001Y-67846200D03*
%TD*%
D12*
%TO.P,R23,1*%
%TO.N,Net-(C13-Pad2)*%
X43500000Y-109225000D03*
%TO.P,R23,2*%
%TO.N,/ANALOG CIRCUIT/HPF_O*%
X43500000Y-107575000D03*
%TD*%
D19*
%TO.P,R16,1*%
%TO.N,Net-(U6-REF)*%
X36715000Y-102900000D03*
%TO.P,R16,2*%
%TO.N,GND*%
X38365000Y-102900000D03*
%TD*%
D25*
%TO.P,C8,1*%
%TO.N,Net-(U3-C1+)*%
X40200000Y-72950000D03*
%TO.P,C8,2*%
%TO.N,Net-(U3-C1-)*%
X40200000Y-74850000D03*
%TD*%
D12*
%TO.P,R17,1*%
%TO.N,/ANALOG CIRCUIT/NFO*%
X56650000Y-113400000D03*
%TO.P,R17,2*%
%TO.N,Net-(U5C-+)*%
X56650000Y-111750000D03*
%TD*%
D19*
%TO.P,R26,1*%
%TO.N,Net-(C18-Pad2)*%
X41775000Y-116925000D03*
%TO.P,R26,2*%
%TO.N,/ANALOG CIRCUIT/NFO*%
X43425000Y-116925000D03*
%TD*%
%TO.P,R9,1*%
%TO.N,Net-(J3-Pad2)*%
X43775000Y-80725000D03*
%TO.P,R9,2*%
%TO.N,/ANALOG CIRCUIT/LA*%
X45425000Y-80725000D03*
%TD*%
D12*
%TO.P,R21,1*%
%TO.N,GND*%
X42025000Y-110100000D03*
%TO.P,R21,2*%
%TO.N,Net-(U5A-+)*%
X42025000Y-108450000D03*
%TD*%
D60*
%TO.P,J2,1,Pin_1*%
%TO.N,RIN*%
X99949000Y-74277200D03*
D61*
%TO.P,J2,2,Pin_2*%
%TO.N,FIN*%
X99949000Y-76777200D03*
%TO.P,J2,3,Pin_3*%
%TO.N,LED_PWM*%
X99949000Y-79277200D03*
%TO.P,J2,4,Pin_4*%
%TO.N,FAN_C*%
X99949000Y-81777200D03*
%TO.P,J2,5,Pin_5*%
%TO.N,GND*%
X99949000Y-84277200D03*
%TO.P,J2,6,Pin_6*%
%TO.N,+5VA*%
X99949000Y-86777200D03*
%TD*%
D21*
%TO.P,H1,1,1*%
%TO.N,GND*%
X35200000Y-52000000D03*
X35683274Y-50833274D03*
X35683274Y-53166726D03*
X36850000Y-50350000D03*
D22*
X36850000Y-52000000D03*
D21*
X36850000Y-53650000D03*
X38016726Y-50833274D03*
X38016726Y-53166726D03*
X38500000Y-52000000D03*
%TD*%
D11*
%TO.P,TP3,1,1*%
%TO.N,+5VA*%
X87163200Y-95057000D03*
%TD*%
D62*
%TO.P,K1,1,1*%
%TO.N,unconnected-(K1-Pad1)*%
X67335400Y-97891600D03*
%TO.P,K1,2,2*%
%TO.N,+12V*%
X67335400Y-100431600D03*
%TO.P,K1,5,5*%
%TO.N,Net-(J6-Pin_2)*%
X67335400Y-108051600D03*
%TO.P,K1,6,6*%
X72415400Y-108051600D03*
%TO.P,K1,9,9*%
%TO.N,Net-(D15-A)*%
X72415400Y-100431600D03*
%TO.P,K1,10,10*%
%TO.N,+12V*%
X72415400Y-97891600D03*
%TD*%
D11*
%TO.P,TP5,1,1*%
%TO.N,+3.3V*%
X85461400Y-79461400D03*
%TD*%
D63*
%TO.P,D8,1,K*%
%TO.N,+12V*%
X86507600Y-108551000D03*
%TO.P,D8,2,A*%
%TO.N,Net-(D8-A)*%
X86507600Y-111351000D03*
%TD*%
D34*
%TO.P,R33,1*%
%TO.N,+12V*%
X82050024Y-57122599D03*
%TO.P,R33,2*%
%TO.N,Net-(J8-Pin_2)*%
X82050024Y-58772599D03*
%TD*%
D26*
%TO.P,C35,1*%
%TO.N,GND*%
X50375850Y-76960000D03*
%TO.P,C35,2*%
%TO.N,-5V*%
X48475850Y-76960000D03*
%TD*%
D64*
%TO.P,U7,1,GND*%
%TO.N,GND*%
X88227000Y-100389200D03*
%TO.P,U7,2,SW*%
%TO.N,Net-(U7-SW)*%
X88227000Y-101339200D03*
%TO.P,U7,3,VIN*%
%TO.N,+12V*%
X88227000Y-102289200D03*
%TO.P,U7,4,VFB*%
%TO.N,Net-(U7-VFB)*%
X90502000Y-102289200D03*
%TO.P,U7,5,EN*%
%TO.N,+12V*%
X90502000Y-101339200D03*
%TO.P,U7,6,VBST*%
%TO.N,Net-(U7-VBST)*%
X90502000Y-100389200D03*
%TD*%
D65*
%TO.N,VBAT*%
X41300000Y-63800000D03*
%TO.N,+5V*%
X45300000Y-102750000D03*
X52900000Y-62000000D03*
X50500000Y-70000000D03*
X55700000Y-98600000D03*
X51000000Y-62700000D03*
X40850000Y-102750000D03*
X52900000Y-61100000D03*
X51000000Y-63600000D03*
X48700000Y-109950000D03*
%TO.N,/ANALOG CIRCUIT/RLD*%
X52300000Y-98600000D03*
X44900000Y-91300000D03*
%TO.N,-5V*%
X46900000Y-103850000D03*
X36750000Y-92050000D03*
X47600000Y-101400000D03*
X46200000Y-101400000D03*
X46200000Y-103850000D03*
X46900000Y-101400000D03*
X47600000Y-103850000D03*
X36750000Y-92925000D03*
X49950000Y-109700000D03*
%TO.N,Net-(C17-Pad1)*%
X54000000Y-108223800D03*
X54200000Y-110600000D03*
%TO.N,/ANALOG CIRCUIT/HPF_O*%
X41800000Y-112600000D03*
X42400000Y-107500000D03*
%TO.N,Net-(U7-VBST)*%
X89400000Y-100400000D03*
X83200000Y-99600000D03*
%TO.N,GND*%
X55700000Y-94800000D03*
X38350000Y-103900000D03*
X37000000Y-69900000D03*
X50040000Y-98750000D03*
X86550000Y-99600000D03*
X48330000Y-61760000D03*
X81000000Y-108320000D03*
X74800000Y-62530000D03*
X38200000Y-96450000D03*
X64570000Y-66650000D03*
X83100000Y-109720000D03*
X80430000Y-58700000D03*
X83050000Y-105070000D03*
X56300000Y-60000000D03*
X50200000Y-75500000D03*
X37460000Y-59070000D03*
X43400000Y-65100000D03*
X83050000Y-103020000D03*
X47250000Y-73750000D03*
X49200000Y-68800000D03*
X90500000Y-105020000D03*
X50000000Y-107280000D03*
X53100000Y-111600000D03*
X50200000Y-100210000D03*
X83080000Y-93550000D03*
X82200000Y-91320000D03*
X51900000Y-73100000D03*
X36900000Y-67800000D03*
X90870000Y-95500000D03*
X58450000Y-110380000D03*
X48550000Y-112500000D03*
X40200000Y-60800000D03*
X82800000Y-61170000D03*
X92600000Y-98880000D03*
X67200000Y-91750000D03*
X67350000Y-89950000D03*
X46600000Y-60600000D03*
X66150000Y-76100000D03*
X47300000Y-114500000D03*
X90900000Y-91130000D03*
X56300000Y-64800000D03*
X44400000Y-73750000D03*
X52900000Y-69200000D03*
X81500000Y-89050000D03*
X41050000Y-110100000D03*
X43700000Y-100500000D03*
%TO.N,FIN*%
X68750000Y-66350000D03*
X88900000Y-76800000D03*
%TO.N,LED_PWM*%
X88950000Y-79150000D03*
X85700000Y-60250000D03*
%TO.N,RIN*%
X73200000Y-67150000D03*
X88900000Y-74300000D03*
%TO.N,FAN_C*%
X88850000Y-81050000D03*
X68600000Y-87300000D03*
%TO.N,/ANALOG CIRCUIT/NFO*%
X57900000Y-113400000D03*
X43300000Y-111800000D03*
%TO.N,Net-(U7-VFB)*%
X89400000Y-97800000D03*
X91700000Y-102200000D03*
%TO.N,+5VA*%
X34750000Y-65950000D03*
X85000000Y-93750000D03*
%TD*%
D66*
%TO.N,Net-(U3-C1+)*%
X40685000Y-72465000D02*
X40200000Y-72950000D01*
X43025850Y-72465000D02*
X40685000Y-72465000D01*
D67*
%TO.N,3.6V*%
X42625000Y-55750000D02*
X42625000Y-59050000D01*
X50874999Y-66237500D02*
X51325000Y-66687501D01*
X40125000Y-59037500D02*
X42612500Y-59037500D01*
X49925001Y-66237500D02*
X50874999Y-66237500D01*
X51325000Y-66687501D02*
X51325000Y-67350000D01*
X46237500Y-62975000D02*
X46400000Y-63137500D01*
X43775000Y-62975000D02*
X43775000Y-60200000D01*
X49425000Y-65737499D02*
X49925001Y-66237500D01*
X49425000Y-65075000D02*
X49425000Y-65737499D01*
X42612500Y-59037500D02*
X42625000Y-59050000D01*
X43775000Y-60200000D02*
X42625000Y-59050000D01*
X43775000Y-62975000D02*
X46237500Y-62975000D01*
D66*
%TO.N,Net-(U3-C1-)*%
X43025850Y-75005000D02*
X40355000Y-75005000D01*
X40355000Y-75005000D02*
X40200000Y-74850000D01*
D67*
%TO.N,VBAT*%
X41300000Y-63800000D02*
X40350000Y-63800000D01*
X40350000Y-63800000D02*
X40200000Y-63950000D01*
D66*
X40200000Y-63950000D02*
X40200000Y-65900001D01*
X40200000Y-65900001D02*
X40150001Y-65950000D01*
%TO.N,/ANALOG CIRCUIT/RLD*%
X56800000Y-99300000D02*
X57190000Y-98910000D01*
X54485000Y-99300000D02*
X56800000Y-99300000D01*
X57190000Y-98910000D02*
X57190000Y-98610000D01*
X52300000Y-98600000D02*
X52330000Y-98630000D01*
X44875000Y-88800000D02*
X44875000Y-91275000D01*
X44875000Y-91275000D02*
X44900000Y-91300000D01*
X53815000Y-98630000D02*
X54485000Y-99300000D01*
X57215000Y-98610000D02*
X58665000Y-97160000D01*
X52330000Y-98630000D02*
X53815000Y-98630000D01*
X57170000Y-98630000D02*
X57190000Y-98610000D01*
X57190000Y-98610000D02*
X57215000Y-98610000D01*
%TO.N,Net-(C6-Pad2)*%
X57190000Y-95660000D02*
X57190000Y-97060000D01*
D67*
%TO.N,-5V*%
X48474150Y-76958300D02*
X48475850Y-76960000D01*
D66*
%TO.N,Net-(E1-Pad1)*%
X41153802Y-65946200D02*
X41150002Y-65950000D01*
X42300001Y-65946200D02*
X41153802Y-65946200D01*
D67*
%TO.N,Net-(J8-Pin_2)*%
X82050024Y-58772599D02*
X84180600Y-56642023D01*
X82078874Y-60199998D02*
X82078874Y-58801449D01*
X82078874Y-58801449D02*
X82050024Y-58772599D01*
X84180600Y-56642023D02*
X84180600Y-51115200D01*
D66*
%TO.N,Net-(C13-Pad2)*%
X38825000Y-109225000D02*
X38025000Y-108425000D01*
X38025000Y-105400000D02*
X38025000Y-108425000D01*
X43500000Y-109225000D02*
X38825000Y-109225000D01*
%TO.N,/ANALOG CIRCUIT/IAF_O*%
X39565000Y-99705000D02*
X39565000Y-105390000D01*
X39575000Y-105400000D02*
X39575000Y-106925000D01*
X39565000Y-105390000D02*
X39575000Y-105400000D01*
%TO.N,Net-(U5A-+)*%
X39575000Y-108425000D02*
X42000000Y-108425000D01*
X42000000Y-108425000D02*
X42025000Y-108450000D01*
X42025000Y-108450000D02*
X46930000Y-108450000D01*
X46930000Y-108450000D02*
X46950000Y-108430000D01*
%TO.N,Net-(U5D-+)*%
X55325000Y-108750000D02*
X57050000Y-108750000D01*
X57050000Y-108750000D02*
X57100000Y-108800000D01*
X55325000Y-108750000D02*
X52220000Y-108750000D01*
X52220000Y-108750000D02*
X51900000Y-108430000D01*
%TO.N,ECG_I*%
X51900000Y-105890000D02*
X52090000Y-105890000D01*
X51900000Y-107160000D02*
X51900000Y-105890000D01*
X52090000Y-105890000D02*
X52155000Y-105825000D01*
X52155000Y-105825000D02*
X53975000Y-105825000D01*
X53975000Y-105825000D02*
X53975000Y-103410000D01*
X53975000Y-103410000D02*
X54135000Y-103250000D01*
%TO.N,Net-(C17-Pad1)*%
X55250000Y-110475000D02*
X55325000Y-110400000D01*
X54000000Y-108223800D02*
X54000000Y-107400000D01*
X55250000Y-114775000D02*
X55250000Y-110475000D01*
X54400000Y-110400000D02*
X54200000Y-110600000D01*
X54000000Y-107400000D02*
X53975000Y-107375000D01*
X55325000Y-110400000D02*
X54400000Y-110400000D01*
%TO.N,/ANALOG CIRCUIT/HPF_O*%
X43500000Y-107575000D02*
X46535000Y-107575000D01*
X41800000Y-112600000D02*
X41800000Y-113500000D01*
X42725000Y-113525000D02*
X43275000Y-114075000D01*
X42475000Y-107575000D02*
X42400000Y-107500000D01*
X46950000Y-107160000D02*
X46950000Y-105890000D01*
X41775000Y-113525000D02*
X42725000Y-113525000D01*
X41800000Y-113500000D02*
X41775000Y-113525000D01*
X43500000Y-107575000D02*
X42475000Y-107575000D01*
X46535000Y-107575000D02*
X46950000Y-107160000D01*
%TO.N,Net-(C18-Pad2)*%
X40300000Y-116900000D02*
X41750000Y-116900000D01*
X41750000Y-116900000D02*
X41775000Y-116925000D01*
X41775000Y-115075000D02*
X41775000Y-116925000D01*
%TO.N,Net-(C19-Pad2)*%
X44925000Y-114075000D02*
X44925000Y-112625000D01*
X46350000Y-115500000D02*
X45600000Y-115500000D01*
X45600000Y-115500000D02*
X44925000Y-114825000D01*
X44925000Y-114825000D02*
X44925000Y-114075000D01*
%TO.N,Net-(U5B-+)*%
X44925000Y-110975000D02*
X46945000Y-110975000D01*
X40300000Y-112600000D02*
X40300000Y-115350000D01*
X46945000Y-110975000D02*
X46950000Y-110970000D01*
X44925000Y-110975000D02*
X41925000Y-110975000D01*
X41925000Y-110975000D02*
X40300000Y-112600000D01*
D67*
%TO.N,+12V*%
X88986816Y-102289200D02*
X89936816Y-101339200D01*
X88227000Y-102289200D02*
X88986816Y-102289200D01*
X86477000Y-103039200D02*
X87477000Y-103039200D01*
X89936816Y-101339200D02*
X90502000Y-101339200D01*
X90502000Y-101339200D02*
X92133200Y-101339200D01*
X87477000Y-103039200D02*
X88227000Y-102289200D01*
X92133200Y-101339200D02*
X92827400Y-100645000D01*
%TO.N,Net-(U7-SW)*%
X85177000Y-101339200D02*
X84977000Y-101139200D01*
X88227000Y-101339200D02*
X85177000Y-101339200D01*
X81956200Y-101140600D02*
X84975600Y-101140600D01*
X84975600Y-101140600D02*
X84977000Y-101139200D01*
%TO.N,Net-(U7-VBST)*%
X83200000Y-99600000D02*
X81965600Y-99600000D01*
X81965600Y-99600000D02*
X81956200Y-99590600D01*
X90502000Y-100389200D02*
X89410800Y-100389200D01*
X89410800Y-100389200D02*
X89400000Y-100400000D01*
%TO.N,+3.3V*%
X85461400Y-91374000D02*
X85461400Y-89124800D01*
X85472800Y-79472800D02*
X85461400Y-79461400D01*
X85461400Y-89124800D02*
X85472800Y-89113400D01*
X85472800Y-82813400D02*
X85472800Y-89113400D01*
X85472800Y-82813400D02*
X85472800Y-79472800D01*
%TO.N,Net-(D1-A)*%
X45200000Y-51737500D02*
X42637500Y-51737500D01*
X42637500Y-51737500D02*
X42625000Y-51750000D01*
%TO.N,Net-(D3-K)*%
X40125000Y-57462500D02*
X38562500Y-57462500D01*
X38562500Y-57462500D02*
X38525000Y-57425000D01*
D66*
%TO.N,Net-(D4-K)*%
X42300001Y-64055842D02*
X42300001Y-64296200D01*
X38175001Y-62883700D02*
X41127859Y-62883700D01*
X41127859Y-62883700D02*
X42300001Y-64055842D01*
D67*
%TO.N,OUT1*%
X67386200Y-62509400D02*
X68540600Y-62509400D01*
X68797800Y-62247800D02*
X68797800Y-53822600D01*
X68800000Y-62250000D02*
X68797800Y-62247800D01*
X68540600Y-62509400D02*
X68800000Y-62250000D01*
%TO.N,OUT2*%
X71297800Y-62039500D02*
X71297800Y-53822600D01*
X73037700Y-63779400D02*
X71297800Y-62039500D01*
X73177400Y-63779400D02*
X73037700Y-63779400D01*
%TO.N,Net-(D15-A)*%
X69333400Y-93582200D02*
X69342000Y-93573600D01*
X69333400Y-95554800D02*
X69333400Y-93582200D01*
X69333400Y-97349600D02*
X72415400Y-100431600D01*
X69333400Y-95554800D02*
X69333400Y-97349600D01*
%TO.N,Net-(D16-A)*%
X87969601Y-67430399D02*
X84414424Y-67430399D01*
X89441424Y-65958576D02*
X87969601Y-67430399D01*
X89441424Y-63769799D02*
X87771625Y-62100000D01*
X89441424Y-63769799D02*
X89441424Y-65958576D01*
X87771625Y-62100000D02*
X84428374Y-62100000D01*
D66*
%TO.N,PROG*%
X39650000Y-68642400D02*
X39650000Y-69925000D01*
D67*
%TO.N,GND*%
X53775000Y-111600000D02*
X53900000Y-111725000D01*
X47900000Y-115100000D02*
X47300000Y-114500000D01*
X53100000Y-111600000D02*
X53775000Y-111600000D01*
X47900000Y-115500000D02*
X47900000Y-115100000D01*
D66*
X40650001Y-65572286D02*
X40650001Y-65950000D01*
X43400000Y-65100000D02*
X41122287Y-65100000D01*
D67*
X87339200Y-100389200D02*
X88227000Y-100389200D01*
D66*
X41122287Y-65100000D02*
X40650001Y-65572286D01*
D67*
X86550000Y-99600000D02*
X87339200Y-100389200D01*
D66*
%TO.N,FIN*%
X88922800Y-76777200D02*
X99949000Y-76777200D01*
X67386200Y-66319400D02*
X68719400Y-66319400D01*
X88900000Y-76800000D02*
X88922800Y-76777200D01*
X68719400Y-66319400D02*
X68750000Y-66350000D01*
%TO.N,LED_PWM*%
X85649998Y-60199998D02*
X85700000Y-60250000D01*
X89077200Y-79277200D02*
X99949000Y-79277200D01*
X84428374Y-60199998D02*
X85649998Y-60199998D01*
X88950000Y-79150000D02*
X89077200Y-79277200D01*
%TO.N,RIN*%
X88900000Y-74300000D02*
X89200000Y-74300000D01*
X89222800Y-74277200D02*
X99949000Y-74277200D01*
X73177400Y-67127400D02*
X73200000Y-67150000D01*
X73177400Y-66319400D02*
X73177400Y-67127400D01*
X89200000Y-74300000D02*
X89222800Y-74277200D01*
%TO.N,FAN_C*%
X89577200Y-81777200D02*
X99949000Y-81777200D01*
X88850000Y-81050000D02*
X89577200Y-81777200D01*
X68567800Y-88442800D02*
X68567800Y-87332200D01*
X68567800Y-87332200D02*
X68600000Y-87300000D01*
%TO.N,Net-(J3-Pad3)*%
X48985000Y-86015000D02*
X50981500Y-84018500D01*
X48985000Y-88800000D02*
X49003500Y-88818500D01*
X48985000Y-88800000D02*
X48985000Y-86015000D01*
X50981500Y-84018500D02*
X53103500Y-84018500D01*
X46525000Y-88800000D02*
X48985000Y-88800000D01*
%TO.N,Net-(J3-Pad1)*%
X39703500Y-88818500D02*
X41856500Y-88818500D01*
X41856500Y-88818500D02*
X41875000Y-88800000D01*
D67*
%TO.N,Net-(J6-Pin_2)*%
X72415400Y-108051600D02*
X67335400Y-108051600D01*
%TO.N,Net-(J8-Pin_1)*%
X89441424Y-53836024D02*
X86720600Y-51115200D01*
X89441424Y-57769799D02*
X89441424Y-53836024D01*
%TO.N,Net-(U1-SW)*%
X47087500Y-67350000D02*
X46375000Y-68062500D01*
X49425000Y-67350000D02*
X47087500Y-67350000D01*
%TO.N,Net-(Q2-B)*%
X70292000Y-91698600D02*
X70292000Y-88517000D01*
X70292000Y-88517000D02*
X70217800Y-88442800D01*
D66*
%TO.N,Net-(U1-V_{FB})*%
X51325000Y-65075000D02*
X52862500Y-65075000D01*
X52862500Y-65075000D02*
X52875000Y-65062500D01*
X52875000Y-66412500D02*
X52875000Y-65062500D01*
%TO.N,/ANALOG CIRCUIT/RLI*%
X46840000Y-98205000D02*
X47685000Y-97360000D01*
X47685000Y-97360000D02*
X48665000Y-97360000D01*
X46840000Y-96555000D02*
X47645000Y-97360000D01*
X48876894Y-97360000D02*
X48665000Y-97360000D01*
X47645000Y-97360000D02*
X48665000Y-97360000D01*
X52226894Y-94010000D02*
X48876894Y-97360000D01*
X57190000Y-94010000D02*
X52226894Y-94010000D01*
X58665000Y-95510000D02*
X58665000Y-95485000D01*
X58665000Y-95485000D02*
X57190000Y-94010000D01*
%TO.N,/ANALOG CIRCUIT/LA*%
X45425000Y-80725000D02*
X45425000Y-80975000D01*
X42551200Y-89277790D02*
X39565000Y-92263990D01*
X45425000Y-80975000D02*
X42551200Y-83848800D01*
X42551200Y-83848800D02*
X42551200Y-89277790D01*
X39565000Y-92263990D02*
X39565000Y-94765000D01*
%TO.N,/ANALOG CIRCUIT/RA*%
X40835000Y-94401250D02*
X40835000Y-94765000D01*
X43525000Y-88800000D02*
X43525000Y-91711250D01*
X43525000Y-91711250D02*
X40835000Y-94401250D01*
%TO.N,/ANALOG CIRCUIT/RG2*%
X43765000Y-98205000D02*
X45190000Y-98205000D01*
X43605000Y-98205000D02*
X43765000Y-98205000D01*
X42105000Y-99705000D02*
X43605000Y-98205000D01*
%TO.N,/ANALOG CIRCUIT/RG1*%
X43765000Y-96425000D02*
X43765000Y-96555000D01*
X43765000Y-96555000D02*
X45190000Y-96555000D01*
X42105000Y-94765000D02*
X43765000Y-96425000D01*
%TO.N,Net-(U6-REF)*%
X36715000Y-99775000D02*
X36700000Y-99760000D01*
X38295000Y-99705000D02*
X36755000Y-99705000D01*
X36715000Y-102900000D02*
X36715000Y-99775000D01*
X36755000Y-99705000D02*
X36700000Y-99760000D01*
%TO.N,/ANALOG CIRCUIT/NFO*%
X57900000Y-113400000D02*
X56650000Y-113400000D01*
X47924999Y-113510000D02*
X48626200Y-114211201D01*
X46950000Y-113510000D02*
X47924999Y-113510000D01*
X47675000Y-116925000D02*
X43425000Y-116925000D01*
X46510000Y-111800000D02*
X43300000Y-111800000D01*
X48626200Y-114211201D02*
X48626200Y-115973800D01*
X46950000Y-112240000D02*
X46510000Y-111800000D01*
X46950000Y-112240000D02*
X46950000Y-113510000D01*
X48626200Y-115973800D02*
X47675000Y-116925000D01*
%TO.N,Net-(U5C-+)*%
X55778990Y-109700000D02*
X54144999Y-109700000D01*
X56076200Y-111176200D02*
X56076200Y-109997210D01*
X54144999Y-109700000D02*
X52874999Y-110970000D01*
X52874999Y-110970000D02*
X51900000Y-110970000D01*
X56076200Y-109997210D02*
X55778990Y-109700000D01*
X56650000Y-111750000D02*
X56076200Y-111176200D01*
%TO.N,Net-(U5C--)*%
X53900000Y-113375000D02*
X52765000Y-112240000D01*
X52765000Y-112240000D02*
X51900000Y-112240000D01*
X53550000Y-113725000D02*
X53900000Y-113375000D01*
X53550000Y-115025000D02*
X53550000Y-113725000D01*
%TO.N,/ANALOG CIRCUIT/MAO*%
X52325000Y-116425000D02*
X55250000Y-116425000D01*
X51900000Y-113510000D02*
X51900000Y-115025000D01*
X51900000Y-115025000D02*
X51900000Y-116000000D01*
X51900000Y-116000000D02*
X52325000Y-116425000D01*
%TO.N,Net-(U7-VFB)*%
X89400000Y-97800000D02*
X89400000Y-98878600D01*
X89400000Y-98878600D02*
X89386200Y-98892400D01*
X87989200Y-98892400D02*
X87976000Y-98879200D01*
X90502000Y-102289200D02*
X91610800Y-102289200D01*
X89386200Y-98892400D02*
X87989200Y-98892400D01*
X91610800Y-102289200D02*
X91700000Y-102200000D01*
D67*
%TO.N,+5VA*%
X88981800Y-93863200D02*
X88357000Y-93863200D01*
X84989000Y-93761000D02*
X85000000Y-93750000D01*
X87976000Y-95869800D02*
X87163200Y-95057000D01*
X87759800Y-91170800D02*
X87759800Y-89126400D01*
D66*
X38178801Y-65950000D02*
X38175001Y-65946200D01*
D67*
X88981800Y-93863200D02*
X88981800Y-92392800D01*
X88357000Y-93863200D02*
X87163200Y-95057000D01*
X84989000Y-95107800D02*
X84989000Y-93761000D01*
D66*
X39646200Y-65946200D02*
X39650000Y-65950000D01*
D67*
X87759800Y-89126400D02*
X87772800Y-89113400D01*
X84977000Y-95119800D02*
X84989000Y-95107800D01*
D66*
X38175001Y-65946200D02*
X38175001Y-64458700D01*
D67*
X34750000Y-65950000D02*
X38171201Y-65950000D01*
X88981800Y-92392800D02*
X87759800Y-91170800D01*
X84977000Y-98039200D02*
X84977000Y-95119800D01*
X38171201Y-65950000D02*
X38175001Y-65946200D01*
X87976000Y-97229200D02*
X87976000Y-95869800D01*
D66*
X38175001Y-65946200D02*
X39646200Y-65946200D01*
D67*
X84989000Y-95107800D02*
X87112400Y-95107800D01*
X87112400Y-95107800D02*
X87163200Y-95057000D01*
%TD*%
%TA.AperFunction,Conductor*%
%TO.N,+12V*%
G36*
X82114424Y-57300000D02*
G01*
X77314424Y-57300000D01*
X77314424Y-56900000D01*
X77724043Y-56900000D01*
X82114424Y-56900000D01*
X82114424Y-57300000D01*
G37*
%TD.AperFunction*%
%TD*%
%TA.AperFunction,Conductor*%
%TO.N,GND*%
G36*
X83343039Y-93269685D02*
G01*
X83388794Y-93322489D01*
X83400000Y-93374000D01*
X83400000Y-93770438D01*
X83380315Y-93837477D01*
X83363681Y-93858119D01*
X83339000Y-93882800D01*
X83339000Y-95050000D01*
X82839000Y-95050000D01*
X82839000Y-93882800D01*
X82836319Y-93880119D01*
X82802834Y-93818796D01*
X82800000Y-93792438D01*
X82800000Y-93374000D01*
X82819685Y-93306961D01*
X82872489Y-93261206D01*
X82924000Y-93250000D01*
X83276000Y-93250000D01*
X83343039Y-93269685D01*
G37*
%TD.AperFunction*%
%TD*%
%TA.AperFunction,Conductor*%
%TO.N,Net-(Q1-D)*%
G36*
X91800000Y-110250000D02*
G01*
X91800000Y-111350000D01*
X92626000Y-111350000D01*
X92693039Y-111369685D01*
X92738794Y-111422489D01*
X92750000Y-111474000D01*
X92750000Y-113356238D01*
X92732600Y-113415495D01*
X92732600Y-114488500D01*
X92715463Y-114546860D01*
X92235809Y-114503255D01*
X92232600Y-114488500D01*
X92232600Y-113421908D01*
X92202834Y-113367396D01*
X92200000Y-113341038D01*
X92200000Y-111700000D01*
X91624000Y-111700000D01*
X91556961Y-111680315D01*
X91511206Y-111627511D01*
X91500000Y-111576000D01*
X91500000Y-110784000D01*
X91500000Y-110150000D01*
X91800000Y-110150000D01*
X91800000Y-110250000D01*
G37*
%TD.AperFunction*%
%TD*%
%TA.AperFunction,Conductor*%
%TO.N,GND*%
G36*
X37651327Y-96079685D02*
G01*
X37659768Y-96085619D01*
X37779767Y-96177698D01*
X37919764Y-96235687D01*
X38032280Y-96250500D01*
X38032287Y-96250500D01*
X38336000Y-96250500D01*
X38403039Y-96270185D01*
X38448794Y-96322989D01*
X38460000Y-96374500D01*
X38460000Y-96446000D01*
X38440315Y-96513039D01*
X38387511Y-96558794D01*
X38336000Y-96570000D01*
X37761362Y-96570000D01*
X37727306Y-96560000D01*
X36660000Y-96560000D01*
X36660000Y-96060000D01*
X37584288Y-96060000D01*
X37651327Y-96079685D01*
G37*
%TD.AperFunction*%
%TD*%
%TA.AperFunction,Conductor*%
%TO.N,+12V*%
G36*
X80307463Y-67200084D02*
G01*
X80353218Y-67252888D01*
X80364424Y-67304399D01*
X80364424Y-67556399D01*
X80344739Y-67623438D01*
X80291935Y-67669193D01*
X80240424Y-67680399D01*
X78350526Y-67680399D01*
X78319820Y-67697166D01*
X78293462Y-67700000D01*
X76100000Y-67700000D01*
X76100000Y-67200000D01*
X77760656Y-67200000D01*
X80307177Y-67200000D01*
X80307463Y-67200084D01*
G37*
%TD.AperFunction*%
%TD*%
%TA.AperFunction,Conductor*%
%TO.N,GND*%
G36*
X83528477Y-104769685D02*
G01*
X83549119Y-104786319D01*
X83552000Y-104789200D01*
X84550000Y-104789200D01*
X84550000Y-105289200D01*
X83552001Y-105289200D01*
X83527520Y-105313681D01*
X83466197Y-105347166D01*
X83439839Y-105350000D01*
X82874000Y-105350000D01*
X82806961Y-105330315D01*
X82761206Y-105277511D01*
X82750000Y-105226000D01*
X82750000Y-104874000D01*
X82769685Y-104806961D01*
X82822489Y-104761206D01*
X82874000Y-104750000D01*
X83461438Y-104750000D01*
X83528477Y-104769685D01*
G37*
%TD.AperFunction*%
%TD*%
%TA.AperFunction,Conductor*%
%TO.N,+5V*%
G36*
X48843039Y-109519685D02*
G01*
X48888794Y-109572489D01*
X48900000Y-109624000D01*
X48900000Y-109776000D01*
X48880315Y-109843039D01*
X48827511Y-109888794D01*
X48776000Y-109900000D01*
X47050000Y-109900000D01*
X47050000Y-109500000D01*
X48468000Y-109500000D01*
X48776000Y-109500000D01*
X48843039Y-109519685D01*
G37*
%TD.AperFunction*%
%TD*%
%TA.AperFunction,Conductor*%
%TO.N,GND*%
G36*
X40413039Y-60559685D02*
G01*
X40458794Y-60612489D01*
X40470000Y-60664000D01*
X40470000Y-60978638D01*
X40450315Y-61045677D01*
X40450000Y-61046067D01*
X40450000Y-62176000D01*
X40430315Y-62243039D01*
X40377511Y-62288794D01*
X40326000Y-62300000D01*
X40074000Y-62300000D01*
X40006961Y-62280315D01*
X39961206Y-62227511D01*
X39950000Y-62176000D01*
X39950000Y-61050000D01*
X39931709Y-61031709D01*
X39926961Y-61030315D01*
X39881206Y-60977511D01*
X39870000Y-60926000D01*
X39870000Y-60664000D01*
X39889685Y-60596961D01*
X39942489Y-60551206D01*
X39994000Y-60540000D01*
X40346000Y-60540000D01*
X40413039Y-60559685D01*
G37*
%TD.AperFunction*%
%TD*%
%TA.AperFunction,Conductor*%
%TO.N,GND*%
G36*
X83520039Y-102719685D02*
G01*
X83565794Y-102772489D01*
X83567324Y-102779524D01*
X83577000Y-102789200D01*
X84550000Y-102789200D01*
X84550000Y-103289200D01*
X83555786Y-103289200D01*
X83541197Y-103297166D01*
X83514839Y-103300000D01*
X82874000Y-103300000D01*
X82806961Y-103280315D01*
X82761206Y-103227511D01*
X82750000Y-103176000D01*
X82750000Y-102824000D01*
X82769685Y-102756961D01*
X82822489Y-102711206D01*
X82874000Y-102700000D01*
X83453000Y-102700000D01*
X83520039Y-102719685D01*
G37*
%TD.AperFunction*%
%TD*%
%TA.AperFunction,Conductor*%
%TO.N,GND*%
G36*
X64841600Y-66123809D02*
G01*
X64847166Y-66134003D01*
X64850000Y-66160361D01*
X64850000Y-66826000D01*
X64830315Y-66893039D01*
X64777511Y-66938794D01*
X64726000Y-66950000D01*
X64374000Y-66950000D01*
X64306961Y-66930315D01*
X64261206Y-66877511D01*
X64250000Y-66826000D01*
X64250000Y-66224597D01*
X64269685Y-66157558D01*
X64322489Y-66111803D01*
X64332595Y-66109604D01*
X64341600Y-66100599D01*
X64341600Y-65150000D01*
X64841600Y-65150000D01*
X64841600Y-66123809D01*
G37*
%TD.AperFunction*%
%TD*%
%TA.AperFunction,Conductor*%
%TO.N,+12V*%
G36*
X76050000Y-99150000D02*
G01*
X75692000Y-99145289D01*
X75692000Y-99145288D01*
X73222535Y-99112795D01*
X73155760Y-99092230D01*
X73110704Y-99038829D01*
X73100638Y-98977999D01*
X73104467Y-98934221D01*
X72540971Y-98370725D01*
X72606579Y-98353146D01*
X72719521Y-98287939D01*
X72811739Y-98195721D01*
X72876946Y-98082779D01*
X72894525Y-98017171D01*
X73458022Y-98580668D01*
X73501456Y-98518639D01*
X73501458Y-98518635D01*
X73593840Y-98320519D01*
X73593844Y-98320510D01*
X73650418Y-98109371D01*
X73650420Y-98109361D01*
X73669472Y-97891601D01*
X73669472Y-97891596D01*
X73668878Y-97884806D01*
X73682645Y-97816306D01*
X73731261Y-97766124D01*
X73792406Y-97750000D01*
X75692000Y-97750000D01*
X76050000Y-97750000D01*
X76050000Y-99150000D01*
G37*
%TD.AperFunction*%
%TD*%
%TA.AperFunction,Conductor*%
%TO.N,GND*%
G36*
X75043039Y-62269685D02*
G01*
X75088794Y-62322489D01*
X75100000Y-62374000D01*
X75100000Y-62726000D01*
X75080315Y-62793039D01*
X75027511Y-62838794D01*
X74976000Y-62850000D01*
X74157000Y-62850000D01*
X74089961Y-62830315D01*
X74044206Y-62777511D01*
X74033000Y-62726000D01*
X74033000Y-62725300D01*
X73300000Y-62725300D01*
X73300000Y-62293500D01*
X74033000Y-62293500D01*
X74040181Y-62286319D01*
X74101504Y-62252834D01*
X74127862Y-62250000D01*
X74976000Y-62250000D01*
X75043039Y-62269685D01*
G37*
%TD.AperFunction*%
%TD*%
%TA.AperFunction,Conductor*%
%TO.N,+5V*%
G36*
X53493333Y-60419685D02*
G01*
X53539088Y-60472489D01*
X53549032Y-60541647D01*
X53531833Y-60589096D01*
X53490645Y-60655871D01*
X53490641Y-60655880D01*
X53435494Y-60822302D01*
X53435493Y-60822309D01*
X53425000Y-60925013D01*
X53425000Y-61200000D01*
X54551000Y-61200000D01*
X54618039Y-61219685D01*
X54663794Y-61272489D01*
X54675000Y-61324000D01*
X54675000Y-63551000D01*
X54655315Y-63618039D01*
X54602511Y-63663794D01*
X54551000Y-63675000D01*
X53445862Y-63675000D01*
X53403292Y-63662500D01*
X51900001Y-63662500D01*
X51900001Y-63669082D01*
X51906408Y-63739602D01*
X51906409Y-63739607D01*
X51933654Y-63827039D01*
X51934806Y-63896900D01*
X51898005Y-63956292D01*
X51834936Y-63986360D01*
X51765623Y-63977558D01*
X51752148Y-63970662D01*
X51735398Y-63960756D01*
X51735397Y-63960755D01*
X51735396Y-63960755D01*
X51735393Y-63960754D01*
X51577573Y-63914902D01*
X51577567Y-63914901D01*
X51540701Y-63912000D01*
X51540694Y-63912000D01*
X51109306Y-63912000D01*
X51109298Y-63912000D01*
X51072432Y-63914901D01*
X51072426Y-63914902D01*
X50914607Y-63960754D01*
X50914594Y-63960759D01*
X50912620Y-63961927D01*
X50910872Y-63962370D01*
X50907441Y-63963855D01*
X50907201Y-63963301D01*
X50844895Y-63979103D01*
X50792601Y-63963748D01*
X50792356Y-63964316D01*
X50787758Y-63962326D01*
X50786398Y-63961927D01*
X50785203Y-63961220D01*
X50785193Y-63961216D01*
X50627494Y-63915400D01*
X50627497Y-63915400D01*
X50625000Y-63915203D01*
X50625000Y-64180684D01*
X50607733Y-64243804D01*
X50573254Y-64302105D01*
X50573254Y-64302106D01*
X50527402Y-64459926D01*
X50527401Y-64459932D01*
X50524500Y-64496798D01*
X50524500Y-65201000D01*
X50504815Y-65268039D01*
X50452011Y-65313794D01*
X50400500Y-65325000D01*
X50349500Y-65325000D01*
X50282461Y-65305315D01*
X50236706Y-65252511D01*
X50225500Y-65201000D01*
X50225500Y-64496813D01*
X50225499Y-64496798D01*
X50222598Y-64459932D01*
X50222597Y-64459926D01*
X50176745Y-64302106D01*
X50176745Y-64302105D01*
X50176744Y-64302104D01*
X50176744Y-64302102D01*
X50142267Y-64243804D01*
X50125000Y-64180684D01*
X50125000Y-63904112D01*
X50103968Y-63868966D01*
X50100000Y-63837849D01*
X50100000Y-63155927D01*
X51900000Y-63155927D01*
X51900000Y-63162500D01*
X52625000Y-63162500D01*
X52625000Y-62512500D01*
X53125000Y-62512500D01*
X53125000Y-63162500D01*
X53829138Y-63162500D01*
X53871708Y-63175000D01*
X54175000Y-63175000D01*
X54175000Y-61700000D01*
X53425001Y-61700000D01*
X53425001Y-61974986D01*
X53435494Y-62077697D01*
X53490641Y-62244119D01*
X53490643Y-62244124D01*
X53569766Y-62372402D01*
X53588206Y-62439795D01*
X53569768Y-62502591D01*
X53564678Y-62510844D01*
X53512733Y-62557571D01*
X53443771Y-62568796D01*
X53422247Y-62564137D01*
X53277105Y-62518909D01*
X53277106Y-62518909D01*
X53206572Y-62512500D01*
X53125000Y-62512500D01*
X52625000Y-62512500D01*
X52624999Y-62512499D01*
X52543417Y-62512500D01*
X52472897Y-62518908D01*
X52472892Y-62518909D01*
X52310603Y-62569481D01*
X52165122Y-62657427D01*
X52044927Y-62777622D01*
X51956980Y-62923104D01*
X51906409Y-63085393D01*
X51900000Y-63155927D01*
X50100000Y-63155927D01*
X50100000Y-62340853D01*
X50119685Y-62273814D01*
X50172489Y-62228059D01*
X50241647Y-62218115D01*
X50259996Y-62222193D01*
X50303963Y-62235530D01*
X50303965Y-62235531D01*
X50500000Y-62254838D01*
X50696032Y-62235531D01*
X50884537Y-62178348D01*
X51008523Y-62112076D01*
X50234128Y-61337681D01*
X50200643Y-61276358D01*
X50202528Y-61249999D01*
X50853553Y-61249999D01*
X50853553Y-61250000D01*
X51362075Y-61758523D01*
X51362076Y-61758523D01*
X51428348Y-61634537D01*
X51485531Y-61446032D01*
X51504838Y-61250000D01*
X51485531Y-61053967D01*
X51428348Y-60865462D01*
X51362075Y-60741476D01*
X50853553Y-61249999D01*
X50202528Y-61249999D01*
X50205627Y-61206666D01*
X50234128Y-61162319D01*
X50500000Y-60896447D01*
X50975519Y-60420927D01*
X51013844Y-60400000D01*
X51125024Y-60400000D01*
X53426294Y-60400000D01*
X53493333Y-60419685D01*
G37*
%TD.AperFunction*%
%TD*%
%TA.AperFunction,Conductor*%
%TO.N,GND*%
G36*
X53068039Y-67832185D02*
G01*
X53113794Y-67884989D01*
X53125000Y-67936500D01*
X53125000Y-68962499D01*
X53132898Y-68970397D01*
X53173039Y-68982184D01*
X53218794Y-69034988D01*
X53230000Y-69086499D01*
X53230000Y-69336000D01*
X53210315Y-69403039D01*
X53157511Y-69448794D01*
X53106000Y-69460000D01*
X52754000Y-69460000D01*
X52686961Y-69440315D01*
X52641206Y-69387511D01*
X52630000Y-69336000D01*
X52630000Y-68979462D01*
X52630000Y-67919472D01*
X52644685Y-67869461D01*
X52697489Y-67823706D01*
X52749000Y-67812500D01*
X53001000Y-67812500D01*
X53068039Y-67832185D01*
G37*
%TD.AperFunction*%
%TD*%
%TA.AperFunction,Conductor*%
%TO.N,-5V*%
G36*
X44899933Y-75919685D02*
G01*
X44900000Y-75919762D01*
X44900000Y-76126449D01*
X44891347Y-76133359D01*
X44817326Y-76172923D01*
X44900000Y-76255597D01*
X44900000Y-76962703D01*
X44463773Y-76526476D01*
X44397499Y-76650466D01*
X44340318Y-76838967D01*
X44321011Y-77035000D01*
X44340318Y-77231032D01*
X44397501Y-77419537D01*
X44463773Y-77543522D01*
X44900000Y-77107296D01*
X44900000Y-77814401D01*
X44804206Y-77910195D01*
X44801866Y-77927008D01*
X44756347Y-77980016D01*
X44689396Y-77999999D01*
X44688843Y-78000000D01*
X37000000Y-78000000D01*
X37000000Y-93733638D01*
X36980315Y-93800677D01*
X36975000Y-93807272D01*
X36975000Y-94500000D01*
X36500000Y-94500000D01*
X36500000Y-76024000D01*
X36519685Y-75956961D01*
X36572489Y-75911206D01*
X36624000Y-75900000D01*
X44832894Y-75900000D01*
X44899933Y-75919685D01*
G37*
%TD.AperFunction*%
%TD*%
%TA.AperFunction,Conductor*%
%TO.N,+5V*%
G36*
X50643039Y-69719685D02*
G01*
X50688794Y-69772489D01*
X50700000Y-69824000D01*
X50700000Y-71400000D01*
X48500000Y-71400000D01*
X48500000Y-70945000D01*
X49354730Y-70945000D01*
X49367854Y-70937834D01*
X49394212Y-70935000D01*
X50350850Y-70935000D01*
X50350850Y-70185000D01*
X50336319Y-70170469D01*
X50302834Y-70109146D01*
X50300000Y-70082788D01*
X50300000Y-69824000D01*
X50319685Y-69756961D01*
X50372489Y-69711206D01*
X50424000Y-69700000D01*
X50576000Y-69700000D01*
X50643039Y-69719685D01*
G37*
%TD.AperFunction*%
%TD*%
%TA.AperFunction,Conductor*%
%TO.N,VBAT*%
G36*
X49143039Y-49919685D02*
G01*
X49188794Y-49972489D01*
X49200000Y-50024000D01*
X49200000Y-52705134D01*
X49087535Y-52675000D01*
X48962465Y-52675000D01*
X48841657Y-52707370D01*
X48800000Y-52731420D01*
X48800000Y-50400000D01*
X46198198Y-50400000D01*
X45600000Y-50400000D01*
X45600000Y-49912500D01*
X46194801Y-49912500D01*
X46212503Y-49902834D01*
X46238861Y-49900000D01*
X49076000Y-49900000D01*
X49143039Y-49919685D01*
G37*
%TD.AperFunction*%
%TD*%
%TA.AperFunction,Conductor*%
%TO.N,GND*%
G36*
X83647277Y-109419685D02*
G01*
X83667919Y-109436319D01*
X83682600Y-109451000D01*
X84600000Y-109451000D01*
X84600000Y-109951000D01*
X83682601Y-109951000D01*
X83669920Y-109963681D01*
X83608597Y-109997166D01*
X83582239Y-110000000D01*
X82924000Y-110000000D01*
X82856961Y-109980315D01*
X82811206Y-109927511D01*
X82800000Y-109876000D01*
X82800000Y-109524000D01*
X82819685Y-109456961D01*
X82872489Y-109411206D01*
X82924000Y-109400000D01*
X83580238Y-109400000D01*
X83647277Y-109419685D01*
G37*
%TD.AperFunction*%
%TD*%
%TA.AperFunction,Conductor*%
%TO.N,+12V*%
G36*
X77701635Y-56900000D02*
G01*
X77314424Y-56900000D01*
X77314424Y-57300000D01*
X77725465Y-57300000D01*
X77741923Y-61930398D01*
X77741924Y-61930399D01*
X77614424Y-61930399D01*
X77614424Y-62330399D01*
X77743346Y-62330399D01*
X77760655Y-67199999D01*
X77760656Y-67200000D01*
X76100000Y-67200000D01*
X76100000Y-67700000D01*
X77762433Y-67700000D01*
X77765903Y-68676000D01*
X77899999Y-106399999D01*
X77900000Y-106400000D01*
X86700000Y-106400000D01*
X87350000Y-106400000D01*
X87366497Y-106900000D01*
X87371774Y-107059911D01*
X87354311Y-107127563D01*
X87303044Y-107175034D01*
X87247841Y-107188000D01*
X75816000Y-107188000D01*
X75748961Y-107168315D01*
X75703206Y-107115511D01*
X75692000Y-107064000D01*
X75692000Y-99145289D01*
X76050000Y-99150000D01*
X76050000Y-97750000D01*
X75692000Y-97750000D01*
X75692000Y-95800000D01*
X75700000Y-95800000D01*
X75700000Y-95300000D01*
X75692000Y-95300000D01*
X75692000Y-68800000D01*
X75850000Y-68800000D01*
X75850000Y-68360000D01*
X75692000Y-68360000D01*
X75692000Y-57012000D01*
X75711685Y-56944961D01*
X75764489Y-56899206D01*
X75816000Y-56888000D01*
X77660768Y-56888000D01*
X77701635Y-56900000D01*
G37*
%TD.AperFunction*%
%TD*%
%TA.AperFunction,Conductor*%
%TO.N,Net-(J3-Pad2)*%
G36*
X43210774Y-80475000D02*
G01*
X43901000Y-80475000D01*
X43968039Y-80494685D01*
X44013794Y-80547489D01*
X44025000Y-80599000D01*
X44025000Y-80851000D01*
X44005315Y-80918039D01*
X43952511Y-80963794D01*
X43901000Y-80975000D01*
X42889862Y-80975000D01*
X42867726Y-80968500D01*
X38777500Y-80968500D01*
X38710461Y-80948815D01*
X38664706Y-80896011D01*
X38653500Y-80844500D01*
X38653500Y-80592500D01*
X38673185Y-80525461D01*
X38725989Y-80479706D01*
X38777500Y-80468500D01*
X43188638Y-80468500D01*
X43210774Y-80475000D01*
G37*
%TD.AperFunction*%
%TD*%
%TA.AperFunction,Conductor*%
%TO.N,GND*%
G36*
X44603039Y-73439685D02*
G01*
X44648794Y-73492489D01*
X44660000Y-73544000D01*
X44660000Y-73896000D01*
X44640315Y-73963039D01*
X44587511Y-74008794D01*
X44536000Y-74020000D01*
X44342462Y-74020000D01*
X44275423Y-74000315D01*
X44256418Y-73985000D01*
X42899850Y-73985000D01*
X42860000Y-73973298D01*
X42860000Y-73493669D01*
X42899850Y-73485000D01*
X44256100Y-73485000D01*
X44284781Y-73456319D01*
X44346104Y-73422834D01*
X44372462Y-73420000D01*
X44536000Y-73420000D01*
X44603039Y-73439685D01*
G37*
%TD.AperFunction*%
%TD*%
%TA.AperFunction,Conductor*%
%TO.N,GND*%
G36*
X43950000Y-101843311D02*
G01*
X43897511Y-101888794D01*
X43846000Y-101900000D01*
X42450000Y-101900000D01*
X42450000Y-101450000D01*
X43370000Y-101450000D01*
X43950000Y-101450000D01*
X43950000Y-101843311D01*
G37*
%TD.AperFunction*%
%TD*%
%TA.AperFunction,Conductor*%
%TO.N,GND*%
G36*
X50100000Y-68600000D02*
G01*
X50600000Y-68600000D01*
X50600000Y-68530000D01*
X50603681Y-68533681D01*
X50637166Y-68595004D01*
X50640000Y-68621362D01*
X50640000Y-69006000D01*
X50620315Y-69073039D01*
X50567511Y-69118794D01*
X50516000Y-69130000D01*
X49064000Y-69130000D01*
X48996961Y-69110315D01*
X48951206Y-69057511D01*
X48940000Y-69006000D01*
X48940000Y-68654000D01*
X48959685Y-68586961D01*
X49012489Y-68541206D01*
X49064000Y-68530000D01*
X50100000Y-68530000D01*
X50100000Y-68600000D01*
G37*
%TD.AperFunction*%
%TD*%
%TA.AperFunction,Conductor*%
%TO.N,GND*%
G36*
X46875000Y-60449999D02*
G01*
X46893681Y-60468680D01*
X46927166Y-60530003D01*
X46930000Y-60556361D01*
X46930000Y-60736000D01*
X46910315Y-60803039D01*
X46857511Y-60848794D01*
X46806000Y-60860000D01*
X46454000Y-60860000D01*
X46386961Y-60840315D01*
X46341206Y-60787511D01*
X46330000Y-60736000D01*
X46330000Y-60546361D01*
X46349685Y-60479322D01*
X46366319Y-60458680D01*
X46375000Y-60449999D01*
X46375000Y-59060000D01*
X46875000Y-59060000D01*
X46875000Y-60449999D01*
G37*
%TD.AperFunction*%
%TD*%
%TA.AperFunction,Conductor*%
%TO.N,GND*%
G36*
X83496763Y-60869685D02*
G01*
X83542518Y-60922489D01*
X83546161Y-60939236D01*
X83553724Y-60946799D01*
X84300000Y-60946799D01*
X84300000Y-61353199D01*
X83553724Y-61353199D01*
X83542417Y-61364505D01*
X83534039Y-61393039D01*
X83481235Y-61438794D01*
X83429724Y-61450000D01*
X82710173Y-61450000D01*
X82666840Y-61442182D01*
X82628802Y-61427995D01*
X82580666Y-61410041D01*
X82524733Y-61368169D01*
X82500316Y-61302705D01*
X82500000Y-61293859D01*
X82500000Y-61006138D01*
X82519685Y-60939099D01*
X82572489Y-60893344D01*
X82580659Y-60889959D01*
X82666834Y-60857817D01*
X82710167Y-60850000D01*
X83429724Y-60850000D01*
X83496763Y-60869685D01*
G37*
%TD.AperFunction*%
%TD*%
%TA.AperFunction,Conductor*%
%TO.N,GND*%
G36*
X81865839Y-88749685D02*
G01*
X81911594Y-88802489D01*
X81922800Y-88854000D01*
X81922800Y-88863400D01*
X83000000Y-88863400D01*
X83000000Y-89330000D01*
X81324000Y-89330000D01*
X81256961Y-89310315D01*
X81211206Y-89257511D01*
X81200000Y-89206000D01*
X81200000Y-88854000D01*
X81219685Y-88786961D01*
X81272489Y-88741206D01*
X81324000Y-88730000D01*
X81798800Y-88730000D01*
X81865839Y-88749685D01*
G37*
%TD.AperFunction*%
%TD*%
%TA.AperFunction,Conductor*%
%TO.N,-5V*%
G36*
X51550000Y-109900000D02*
G01*
X49874000Y-109900000D01*
X49806961Y-109880315D01*
X49761206Y-109827511D01*
X49750000Y-109776000D01*
X49750000Y-109624000D01*
X49769685Y-109556961D01*
X49822489Y-109511206D01*
X49874000Y-109500000D01*
X50382000Y-109500000D01*
X51550000Y-109500000D01*
X51550000Y-109900000D01*
G37*
%TD.AperFunction*%
%TD*%
%TA.AperFunction,Conductor*%
%TO.N,GND*%
G36*
X36899478Y-67549685D02*
G01*
X36920120Y-67566319D01*
X36950001Y-67596200D01*
X38301001Y-67596200D01*
X38368040Y-67615885D01*
X38413795Y-67668689D01*
X38425001Y-67720200D01*
X38425001Y-67972200D01*
X38405316Y-68039239D01*
X38352512Y-68084994D01*
X38301001Y-68096200D01*
X36947908Y-68096200D01*
X36891198Y-68127166D01*
X36864840Y-68130000D01*
X36764000Y-68130000D01*
X36696961Y-68110315D01*
X36651206Y-68057511D01*
X36640000Y-68006000D01*
X36640000Y-67654000D01*
X36659685Y-67586961D01*
X36712489Y-67541206D01*
X36764000Y-67530000D01*
X36832439Y-67530000D01*
X36899478Y-67549685D01*
G37*
%TD.AperFunction*%
%TD*%
%TA.AperFunction,Conductor*%
%TO.N,GND*%
G36*
X91143039Y-90869685D02*
G01*
X91188794Y-90922489D01*
X91200000Y-90974000D01*
X91200000Y-91326000D01*
X91180315Y-91393039D01*
X91127511Y-91438794D01*
X91076000Y-91450000D01*
X90340362Y-91450000D01*
X90273323Y-91430315D01*
X90261515Y-91420800D01*
X89400000Y-91420800D01*
X89400000Y-90920800D01*
X90259799Y-90920800D01*
X90294280Y-90886319D01*
X90355603Y-90852834D01*
X90381961Y-90850000D01*
X91076000Y-90850000D01*
X91143039Y-90869685D01*
G37*
%TD.AperFunction*%
%TD*%
%TA.AperFunction,Conductor*%
%TO.N,3.6V*%
G36*
X46650000Y-64329138D02*
G01*
X46630315Y-64396177D01*
X46625000Y-64402772D01*
X46625000Y-64812500D01*
X48561138Y-64812500D01*
X48603708Y-64825000D01*
X49450500Y-64825000D01*
X49517539Y-64844685D01*
X49563294Y-64897489D01*
X49574500Y-64949000D01*
X49574500Y-65201000D01*
X49554815Y-65268039D01*
X49502011Y-65313794D01*
X49450500Y-65325000D01*
X48638862Y-65325000D01*
X48596292Y-65312500D01*
X46249000Y-65312500D01*
X46181961Y-65292815D01*
X46136206Y-65240011D01*
X46125000Y-65188500D01*
X46125000Y-64045862D01*
X46144685Y-63978823D01*
X46150000Y-63972227D01*
X46150000Y-63400000D01*
X46650000Y-63400000D01*
X46650000Y-64329138D01*
G37*
%TD.AperFunction*%
%TD*%
%TA.AperFunction,Conductor*%
%TO.N,+12V*%
G36*
X88114841Y-106414800D02*
G01*
X89194100Y-106414800D01*
X89261139Y-106434485D01*
X89306894Y-106487289D01*
X89318100Y-106538800D01*
X89318100Y-107639799D01*
X89335600Y-107657299D01*
X89343039Y-107659484D01*
X89388794Y-107712288D01*
X89400000Y-107763799D01*
X89400000Y-108160788D01*
X89380315Y-108227827D01*
X89354664Y-108256642D01*
X89337600Y-108270645D01*
X89337600Y-109125134D01*
X89335217Y-109149326D01*
X89332100Y-109164995D01*
X89332100Y-109205170D01*
X89317855Y-109190925D01*
X89232345Y-109141556D01*
X89136970Y-109116000D01*
X89038230Y-109116000D01*
X88942855Y-109141556D01*
X88857345Y-109190925D01*
X88837600Y-109210670D01*
X88837600Y-108265637D01*
X88806000Y-108219247D01*
X88800000Y-108181140D01*
X88800000Y-107709260D01*
X88818100Y-107647618D01*
X88818100Y-106914800D01*
X88800000Y-106914800D01*
X88800000Y-106900000D01*
X88103359Y-106900000D01*
X87366498Y-106900000D01*
X87366497Y-106900000D01*
X87350000Y-106400000D01*
X88064438Y-106400000D01*
X88114841Y-106414800D01*
G37*
%TD.AperFunction*%
%TA.AperFunction,Conductor*%
G36*
X87100000Y-107327000D02*
G01*
X87080315Y-107394039D01*
X87027511Y-107439794D01*
X86976000Y-107451000D01*
X86757600Y-107451000D01*
X86757600Y-108600000D01*
X84807962Y-108600000D01*
X84740923Y-108580315D01*
X84720281Y-108563681D01*
X84707600Y-108551000D01*
X83781600Y-108551000D01*
X83714561Y-108531315D01*
X83668806Y-108478511D01*
X83657600Y-108427000D01*
X83657600Y-108175000D01*
X83677285Y-108107961D01*
X83686472Y-108100000D01*
X84750600Y-108100000D01*
X85283600Y-108100000D01*
X85350639Y-108119685D01*
X85396394Y-108172489D01*
X85407600Y-108224000D01*
X85407600Y-108301000D01*
X86257600Y-108301000D01*
X86257600Y-107451000D01*
X86236319Y-107429719D01*
X86202834Y-107368396D01*
X86200000Y-107342038D01*
X86200000Y-107188000D01*
X87100000Y-107188000D01*
X87100000Y-107327000D01*
G37*
%TD.AperFunction*%
%TA.AperFunction,Conductor*%
G36*
X86670039Y-102808885D02*
G01*
X86700000Y-102843461D01*
X86700000Y-106400000D01*
X86200000Y-106400000D01*
X86200000Y-106317561D01*
X86202000Y-106310749D01*
X86202000Y-103847562D01*
X86221685Y-103780523D01*
X86227000Y-103773927D01*
X86227000Y-102913200D01*
X86246685Y-102846161D01*
X86299489Y-102800406D01*
X86351000Y-102789200D01*
X86603000Y-102789200D01*
X86670039Y-102808885D01*
G37*
%TD.AperFunction*%
%TD*%
%TA.AperFunction,Conductor*%
%TO.N,GND*%
G36*
X43913039Y-100259685D02*
G01*
X43958794Y-100312489D01*
X43970000Y-100364000D01*
X43970000Y-101776000D01*
X43950315Y-101843039D01*
X43950000Y-101843311D01*
X43950000Y-101450000D01*
X43370000Y-101450000D01*
X43370000Y-100364000D01*
X43389685Y-100296961D01*
X43442489Y-100251206D01*
X43494000Y-100240000D01*
X43846000Y-100240000D01*
X43913039Y-100259685D01*
G37*
%TD.AperFunction*%
%TD*%
%TA.AperFunction,Conductor*%
%TO.N,-5V*%
G36*
X48724150Y-75729250D02*
G01*
X48725850Y-75745062D01*
X48725850Y-77086000D01*
X48706165Y-77153039D01*
X48653361Y-77198794D01*
X48601850Y-77210000D01*
X47475851Y-77210000D01*
X47475851Y-77484986D01*
X47486344Y-77587697D01*
X47502680Y-77636996D01*
X47505082Y-77706825D01*
X47469350Y-77766866D01*
X47406829Y-77798059D01*
X47384974Y-77800000D01*
X46253851Y-77800000D01*
X46186812Y-77780315D01*
X46141057Y-77727511D01*
X46131113Y-77658353D01*
X46158000Y-77597333D01*
X46161341Y-77593261D01*
X46161346Y-77593253D01*
X46254198Y-77419539D01*
X46311381Y-77231032D01*
X46330688Y-77035000D01*
X46311381Y-76838967D01*
X46254198Y-76650462D01*
X46187925Y-76526476D01*
X45325850Y-77388553D01*
X44914401Y-77800000D01*
X44900000Y-77800000D01*
X44900000Y-77107296D01*
X44972297Y-77035000D01*
X44900000Y-76962703D01*
X44900000Y-76255597D01*
X45325850Y-76681447D01*
X45325851Y-76681447D01*
X45834372Y-76172923D01*
X45760352Y-76133358D01*
X45710508Y-76084395D01*
X45695048Y-76016258D01*
X45718880Y-75950578D01*
X45774438Y-75908209D01*
X45818806Y-75900000D01*
X47483312Y-75900000D01*
X47550351Y-75919685D01*
X47596106Y-75972489D01*
X47606050Y-76041647D01*
X47588851Y-76089096D01*
X47541495Y-76165871D01*
X47541491Y-76165880D01*
X47486344Y-76332302D01*
X47486343Y-76332309D01*
X47475850Y-76435013D01*
X47475850Y-76710000D01*
X48225850Y-76710000D01*
X48225850Y-75790149D01*
X48224150Y-75774338D01*
X48224150Y-75100000D01*
X48724150Y-75100000D01*
X48724150Y-75729250D01*
G37*
%TD.AperFunction*%
%TA.AperFunction,Conductor*%
G36*
X44945688Y-75972489D02*
G01*
X44955632Y-76041647D01*
X44926607Y-76105203D01*
X44900000Y-76126449D01*
X44900000Y-75919762D01*
X44945688Y-75972489D01*
G37*
%TD.AperFunction*%
%TD*%
%TA.AperFunction,Conductor*%
%TO.N,GND*%
G36*
X50467539Y-67119685D02*
G01*
X50513294Y-67172489D01*
X50524500Y-67224000D01*
X50524500Y-67928201D01*
X50527401Y-67965067D01*
X50527402Y-67965073D01*
X50573254Y-68122893D01*
X50573255Y-68122896D01*
X50573256Y-68122898D01*
X50600000Y-68168119D01*
X50600000Y-68600000D01*
X50100000Y-68600000D01*
X50100000Y-68530000D01*
X50103143Y-68530000D01*
X50125000Y-68509795D01*
X50125000Y-68244314D01*
X50142267Y-68181194D01*
X50176744Y-68122898D01*
X50222598Y-67965069D01*
X50225500Y-67928194D01*
X50225500Y-67224000D01*
X50245185Y-67156961D01*
X50297989Y-67111206D01*
X50349500Y-67100000D01*
X50400500Y-67100000D01*
X50467539Y-67119685D01*
G37*
%TD.AperFunction*%
%TD*%
%TA.AperFunction,Conductor*%
%TO.N,GND*%
G36*
X48543039Y-61519685D02*
G01*
X48588794Y-61572489D01*
X48600000Y-61624000D01*
X48600000Y-61811138D01*
X48580315Y-61878177D01*
X48563681Y-61898819D01*
X48550000Y-61912500D01*
X48550000Y-63263500D01*
X48539282Y-63300000D01*
X48057940Y-63300000D01*
X48050000Y-63263500D01*
X48050000Y-61912499D01*
X48036319Y-61898818D01*
X48002834Y-61837495D01*
X48000000Y-61811137D01*
X48000000Y-61624000D01*
X48019685Y-61556961D01*
X48072489Y-61511206D01*
X48124000Y-61500000D01*
X48476000Y-61500000D01*
X48543039Y-61519685D01*
G37*
%TD.AperFunction*%
%TD*%
%TA.AperFunction,Conductor*%
%TO.N,+5VA*%
G36*
X100199000Y-88175451D02*
G01*
X100200000Y-88182234D01*
X100200000Y-89273933D01*
X100180315Y-89340972D01*
X100127511Y-89386727D01*
X100073951Y-89397916D01*
X89065800Y-89215961D01*
X89065800Y-89215963D01*
X88100000Y-89200000D01*
X88057925Y-88863400D01*
X89022799Y-88863400D01*
X89040659Y-88845540D01*
X89101982Y-88812054D01*
X89129395Y-88809225D01*
X99477675Y-88897672D01*
X99749998Y-88900000D01*
X99749998Y-88899999D01*
X99750000Y-88900000D01*
X99800000Y-87400000D01*
X100199000Y-87400000D01*
X100199000Y-88175451D01*
G37*
%TD.AperFunction*%
%TD*%
%TA.AperFunction,Conductor*%
%TO.N,GND*%
G36*
X38558039Y-102669685D02*
G01*
X38603794Y-102722489D01*
X38615000Y-102774000D01*
X38615000Y-103874999D01*
X38643681Y-103903680D01*
X38677166Y-103965003D01*
X38680000Y-103991361D01*
X38680000Y-104036000D01*
X38660315Y-104103039D01*
X38607511Y-104148794D01*
X38556000Y-104160000D01*
X38204000Y-104160000D01*
X38136961Y-104140315D01*
X38091206Y-104087511D01*
X38080000Y-104036000D01*
X38080000Y-103961361D01*
X38099685Y-103894322D01*
X38115000Y-103875314D01*
X38115000Y-102774000D01*
X38134685Y-102706961D01*
X38187489Y-102661206D01*
X38239000Y-102650000D01*
X38491000Y-102650000D01*
X38558039Y-102669685D01*
G37*
%TD.AperFunction*%
%TD*%
%TA.AperFunction,Conductor*%
%TO.N,+12V*%
G36*
X72303977Y-64819685D02*
G01*
X72321121Y-64833500D01*
X73269300Y-64833500D01*
X73336339Y-64853185D01*
X73382094Y-64905989D01*
X73393300Y-64957500D01*
X73393300Y-65141300D01*
X73376064Y-65200000D01*
X66400000Y-65200000D01*
X66400000Y-65375600D01*
X66391600Y-65375600D01*
X66391600Y-66123809D01*
X66397166Y-66134003D01*
X66400000Y-66160361D01*
X66400000Y-66383138D01*
X66391600Y-66411744D01*
X66391600Y-68300000D01*
X66000000Y-68300000D01*
X66000000Y-64878993D01*
X66015600Y-64875600D01*
X66487600Y-64875600D01*
X66493381Y-64869819D01*
X66554704Y-64836334D01*
X66581062Y-64833500D01*
X67200000Y-64833500D01*
X67200000Y-64900000D01*
X67500000Y-64900000D01*
X67500000Y-64833500D01*
X68244144Y-64833500D01*
X68300304Y-64802834D01*
X68326662Y-64800000D01*
X72236938Y-64800000D01*
X72303977Y-64819685D01*
G37*
%TD.AperFunction*%
%TD*%
%TA.AperFunction,Conductor*%
%TO.N,+5V*%
G36*
X55205694Y-97120000D02*
G01*
X55816000Y-97120000D01*
X55883039Y-97139685D01*
X55900000Y-97159259D01*
X55900000Y-98363000D01*
X55900000Y-98599300D01*
X55880315Y-98666339D01*
X55827511Y-98712094D01*
X55776000Y-98723300D01*
X55624000Y-98723300D01*
X55556961Y-98703615D01*
X55511206Y-98650811D01*
X55500000Y-98599300D01*
X55500000Y-98363000D01*
X55500000Y-97600000D01*
X54400000Y-97600000D01*
X54400000Y-97110000D01*
X55171638Y-97110000D01*
X55205694Y-97120000D01*
G37*
%TD.AperFunction*%
%TD*%
%TA.AperFunction,Conductor*%
%TO.N,GND*%
G36*
X58653039Y-110069685D02*
G01*
X58698794Y-110122489D01*
X58710000Y-110174000D01*
X58710000Y-110526000D01*
X58690315Y-110593039D01*
X58637511Y-110638794D01*
X58586000Y-110650000D01*
X58176362Y-110650000D01*
X58109323Y-110630315D01*
X58088681Y-110613681D01*
X58075000Y-110600000D01*
X56974000Y-110600000D01*
X56910000Y-110581207D01*
X56910000Y-110122027D01*
X56922489Y-110111206D01*
X56974000Y-110100000D01*
X58074999Y-110100000D01*
X58088680Y-110086319D01*
X58150003Y-110052834D01*
X58176361Y-110050000D01*
X58586000Y-110050000D01*
X58653039Y-110069685D01*
G37*
%TD.AperFunction*%
%TD*%
%TA.AperFunction,Conductor*%
%TO.N,+5V*%
G36*
X41085000Y-100684723D02*
G01*
X41097166Y-100707004D01*
X41100000Y-100733362D01*
X41100000Y-102976000D01*
X41080315Y-103043039D01*
X41027511Y-103088794D01*
X40976000Y-103100000D01*
X40624000Y-103100000D01*
X40556961Y-103080315D01*
X40511206Y-103027511D01*
X40500000Y-102976000D01*
X40500000Y-102783998D01*
X40519685Y-102716959D01*
X40572489Y-102671204D01*
X40593330Y-102666669D01*
X40600000Y-102659999D01*
X40600000Y-101215276D01*
X40587834Y-101192996D01*
X40585000Y-101166638D01*
X40585000Y-100350000D01*
X41085000Y-100350000D01*
X41085000Y-100684723D01*
G37*
%TD.AperFunction*%
%TD*%
%TA.AperFunction,Conductor*%
%TO.N,Net-(D8-A)*%
G36*
X90600000Y-110750920D02*
G01*
X90600000Y-111476000D01*
X90580315Y-111543039D01*
X90527511Y-111588794D01*
X90476000Y-111600000D01*
X84650000Y-111600000D01*
X84650000Y-111200000D01*
X90100000Y-111200000D01*
X90100000Y-110776233D01*
X90107600Y-110750350D01*
X90107600Y-110000000D01*
X90600000Y-110000000D01*
X90600000Y-110750920D01*
G37*
%TD.AperFunction*%
%TD*%
%TA.AperFunction,Conductor*%
%TO.N,GND*%
G36*
X67672877Y-89649685D02*
G01*
X67693123Y-89666000D01*
X68719200Y-89666000D01*
X68786239Y-89685685D01*
X68831994Y-89738489D01*
X68843200Y-89790000D01*
X68843200Y-90042000D01*
X68823515Y-90109039D01*
X68770711Y-90154794D01*
X68719200Y-90166000D01*
X67693201Y-90166000D01*
X67665520Y-90193681D01*
X67604197Y-90227166D01*
X67577839Y-90230000D01*
X67174000Y-90230000D01*
X67106961Y-90210315D01*
X67061206Y-90157511D01*
X67050000Y-90106000D01*
X67050000Y-89754000D01*
X67069685Y-89686961D01*
X67122489Y-89641206D01*
X67174000Y-89630000D01*
X67605838Y-89630000D01*
X67672877Y-89649685D01*
G37*
%TD.AperFunction*%
%TD*%
%TA.AperFunction,Conductor*%
%TO.N,GND*%
G36*
X80693039Y-58419685D02*
G01*
X80738794Y-58472489D01*
X80750000Y-58524000D01*
X80750000Y-59121861D01*
X80730315Y-59188900D01*
X80713681Y-59209542D01*
X80699824Y-59223399D01*
X80699824Y-60200000D01*
X80199824Y-60200000D01*
X80199824Y-59223399D01*
X80186319Y-59209894D01*
X80152834Y-59148571D01*
X80150000Y-59122213D01*
X80150000Y-58524000D01*
X80169685Y-58456961D01*
X80222489Y-58411206D01*
X80274000Y-58400000D01*
X80626000Y-58400000D01*
X80693039Y-58419685D01*
G37*
%TD.AperFunction*%
%TD*%
%TA.AperFunction,Conductor*%
%TO.N,GND*%
G36*
X82504439Y-91019685D02*
G01*
X82550194Y-91072489D01*
X82561400Y-91124000D01*
X83687400Y-91124000D01*
X83700000Y-91127699D01*
X83700000Y-91600000D01*
X82024000Y-91600000D01*
X81956961Y-91580315D01*
X81911206Y-91527511D01*
X81900000Y-91476000D01*
X81900000Y-91124000D01*
X81919685Y-91056961D01*
X81972489Y-91011206D01*
X82024000Y-91000000D01*
X82437400Y-91000000D01*
X82504439Y-91019685D01*
G37*
%TD.AperFunction*%
%TD*%
%TA.AperFunction,Conductor*%
%TO.N,GND*%
G36*
X41045677Y-109849685D02*
G01*
X41046068Y-109850000D01*
X42151000Y-109850000D01*
X42218039Y-109869685D01*
X42263794Y-109922489D01*
X42275000Y-109974000D01*
X42275000Y-110226000D01*
X42255315Y-110293039D01*
X42202511Y-110338794D01*
X42151000Y-110350000D01*
X41050001Y-110350000D01*
X41031710Y-110368290D01*
X41030316Y-110373039D01*
X40977512Y-110418794D01*
X40926001Y-110430000D01*
X40914000Y-110430000D01*
X40846961Y-110410315D01*
X40801206Y-110357511D01*
X40790000Y-110306000D01*
X40790000Y-109954000D01*
X40809685Y-109886961D01*
X40862489Y-109841206D01*
X40914000Y-109830000D01*
X40978638Y-109830000D01*
X41045677Y-109849685D01*
G37*
%TD.AperFunction*%
%TD*%
%TA.AperFunction,Conductor*%
%TO.N,-5V*%
G36*
X47800000Y-101700000D02*
G01*
X47800000Y-103976000D01*
X47780315Y-104043039D01*
X47727511Y-104088794D01*
X47676000Y-104100000D01*
X46124000Y-104100000D01*
X46056961Y-104080315D01*
X46011206Y-104027511D01*
X46000000Y-103976000D01*
X46000000Y-103042905D01*
X46006959Y-103001950D01*
X46036313Y-102918061D01*
X46036313Y-102918059D01*
X46055249Y-102750002D01*
X46055249Y-102749997D01*
X46036314Y-102581945D01*
X46036313Y-102581941D01*
X46006958Y-102498048D01*
X46000000Y-102457094D01*
X46000000Y-101224000D01*
X46019685Y-101156961D01*
X46072489Y-101111206D01*
X46124000Y-101100000D01*
X47800000Y-101100000D01*
X47800000Y-101700000D01*
G37*
%TD.AperFunction*%
%TD*%
%TA.AperFunction,Conductor*%
%TO.N,+12V*%
G36*
X75850000Y-68800000D02*
G01*
X66700000Y-68800000D01*
X66700000Y-68360000D01*
X75850000Y-68360000D01*
X75850000Y-68800000D01*
G37*
%TD.AperFunction*%
%TD*%
%TA.AperFunction,Conductor*%
%TO.N,GND*%
G36*
X56575000Y-63299000D02*
G01*
X56575000Y-64649999D01*
X56593681Y-64668680D01*
X56627166Y-64730003D01*
X56630000Y-64756361D01*
X56630000Y-64936000D01*
X56610315Y-65003039D01*
X56557511Y-65048794D01*
X56506000Y-65060000D01*
X56154000Y-65060000D01*
X56086961Y-65040315D01*
X56041206Y-64987511D01*
X56030000Y-64936000D01*
X56030000Y-64746361D01*
X56049685Y-64679322D01*
X56066319Y-64658680D01*
X56075000Y-64649999D01*
X56075000Y-63299000D01*
X56086452Y-63260000D01*
X56566516Y-63260000D01*
X56575000Y-63299000D01*
G37*
%TD.AperFunction*%
%TD*%
%TA.AperFunction,Conductor*%
%TO.N,+12V*%
G36*
X75700000Y-95800000D02*
G01*
X72303167Y-95800000D01*
X72236128Y-95780315D01*
X72235574Y-95779800D01*
X71332400Y-95779800D01*
X71265361Y-95760115D01*
X71219606Y-95707311D01*
X71208400Y-95655800D01*
X71208400Y-95453800D01*
X71228085Y-95386761D01*
X71280889Y-95341006D01*
X71332400Y-95329800D01*
X72237673Y-95329800D01*
X72267206Y-95307757D01*
X72310375Y-95300000D01*
X75692000Y-95300000D01*
X75700000Y-95300000D01*
X75700000Y-95800000D01*
G37*
%TD.AperFunction*%
%TD*%
%TA.AperFunction,Conductor*%
%TO.N,+12V*%
G36*
X82270868Y-61969289D02*
G01*
X82282074Y-62020800D01*
X82282074Y-62179200D01*
X82262389Y-62246239D01*
X82209585Y-62291994D01*
X82158074Y-62303200D01*
X81717824Y-62303200D01*
X81690625Y-62330399D01*
X77614424Y-62330399D01*
X77614424Y-61930399D01*
X77741924Y-61930399D01*
X82237170Y-61930399D01*
X82270868Y-61969289D01*
G37*
%TD.AperFunction*%
%TD*%
%TA.AperFunction,Conductor*%
%TO.N,+5V*%
G36*
X41043039Y-97819685D02*
G01*
X41088794Y-97872489D01*
X41100000Y-97924000D01*
X41100000Y-98153638D01*
X41085000Y-98204721D01*
X41085000Y-99700000D01*
X40650000Y-99700000D01*
X40650000Y-98250000D01*
X40585000Y-98250000D01*
X40585000Y-98220000D01*
X40572302Y-98220000D01*
X40459895Y-98234800D01*
X40459891Y-98234801D01*
X40445986Y-98240561D01*
X40398534Y-98250000D01*
X40002772Y-98250000D01*
X39955320Y-98240561D01*
X39940236Y-98234313D01*
X39926171Y-98232461D01*
X39827727Y-98219500D01*
X39827720Y-98219500D01*
X39302280Y-98219500D01*
X39302272Y-98219500D01*
X39189764Y-98234313D01*
X39189763Y-98234313D01*
X39181895Y-98237572D01*
X39174679Y-98240561D01*
X39127228Y-98250000D01*
X38732772Y-98250000D01*
X38685320Y-98240561D01*
X38670236Y-98234313D01*
X38656171Y-98232461D01*
X38557727Y-98219500D01*
X38557720Y-98219500D01*
X38032280Y-98219500D01*
X38032272Y-98219500D01*
X37919764Y-98234313D01*
X37919763Y-98234313D01*
X37911895Y-98237572D01*
X37904679Y-98240561D01*
X37857228Y-98250000D01*
X37718000Y-98250000D01*
X36900000Y-98250000D01*
X36900000Y-97860000D01*
X37674999Y-97860000D01*
X37698680Y-97836319D01*
X37760003Y-97802834D01*
X37786361Y-97800000D01*
X40976000Y-97800000D01*
X41043039Y-97819685D01*
G37*
%TD.AperFunction*%
%TD*%
%TA.AperFunction,Conductor*%
%TO.N,GND*%
G36*
X56513039Y-59759685D02*
G01*
X56558794Y-59812489D01*
X56570000Y-59864000D01*
X56570000Y-61540000D01*
X56075000Y-61540000D01*
X56075000Y-60225000D01*
X56067099Y-60217100D01*
X56026961Y-60205314D01*
X55981206Y-60152510D01*
X55970000Y-60100999D01*
X55970000Y-59864000D01*
X55989685Y-59796961D01*
X56042489Y-59751206D01*
X56094000Y-59740000D01*
X56446000Y-59740000D01*
X56513039Y-59759685D01*
G37*
%TD.AperFunction*%
%TD*%
%TA.AperFunction,Conductor*%
%TO.N,-5V*%
G36*
X37703666Y-94515000D02*
G01*
X38421000Y-94515000D01*
X38488039Y-94534685D01*
X38533794Y-94587489D01*
X38545000Y-94639000D01*
X38545000Y-94891000D01*
X38542357Y-94900000D01*
X36500000Y-94900000D01*
X36500000Y-94562355D01*
X36547489Y-94521206D01*
X36599000Y-94510000D01*
X37686638Y-94510000D01*
X37703666Y-94515000D01*
G37*
%TD.AperFunction*%
%TD*%
%TA.AperFunction,Conductor*%
%TO.N,GND*%
G36*
X91109639Y-104719685D02*
G01*
X91128969Y-104741992D01*
X91130281Y-104740681D01*
X91166600Y-104777000D01*
X92000000Y-104777000D01*
X92000000Y-105277000D01*
X91155528Y-105277000D01*
X91118597Y-105297166D01*
X91092239Y-105300000D01*
X90324000Y-105300000D01*
X90256961Y-105280315D01*
X90211206Y-105227511D01*
X90200000Y-105176000D01*
X90200000Y-104824000D01*
X90219685Y-104756961D01*
X90272489Y-104711206D01*
X90324000Y-104700000D01*
X91042600Y-104700000D01*
X91109639Y-104719685D01*
G37*
%TD.AperFunction*%
%TD*%
%TA.AperFunction,Conductor*%
%TO.N,GND*%
G36*
X92843039Y-98619685D02*
G01*
X92888794Y-98672489D01*
X92900000Y-98724000D01*
X92900000Y-99076000D01*
X92880315Y-99143039D01*
X92827511Y-99188794D01*
X92776000Y-99200000D01*
X92045162Y-99200000D01*
X91978123Y-99180315D01*
X91957481Y-99163681D01*
X91936200Y-99142400D01*
X91100000Y-99142400D01*
X91100000Y-98642400D01*
X91936199Y-98642400D01*
X91942280Y-98636319D01*
X92003603Y-98602834D01*
X92029961Y-98600000D01*
X92776000Y-98600000D01*
X92843039Y-98619685D01*
G37*
%TD.AperFunction*%
%TD*%
%TA.AperFunction,Conductor*%
%TO.N,GND*%
G36*
X50413039Y-99969685D02*
G01*
X50458794Y-100022489D01*
X50470000Y-100074000D01*
X50470000Y-100438638D01*
X50465000Y-100455665D01*
X50465000Y-101596000D01*
X50445315Y-101663039D01*
X50392511Y-101708794D01*
X50341000Y-101720000D01*
X50089000Y-101720000D01*
X50021961Y-101700315D01*
X49976206Y-101647511D01*
X49965000Y-101596000D01*
X49965000Y-100481518D01*
X49947731Y-100449895D01*
X49952714Y-100380203D01*
X49962165Y-100360413D01*
X49991744Y-100310398D01*
X50037598Y-100152569D01*
X50040500Y-100115694D01*
X50040500Y-100074000D01*
X50060185Y-100006961D01*
X50112989Y-99961206D01*
X50164500Y-99950000D01*
X50346000Y-99950000D01*
X50413039Y-99969685D01*
G37*
%TD.AperFunction*%
%TD*%
%TA.AperFunction,Conductor*%
%TO.N,GND*%
G36*
X91131800Y-95103262D02*
G01*
X91147166Y-95131403D01*
X91150000Y-95157761D01*
X91150000Y-95676000D01*
X91130315Y-95743039D01*
X91077511Y-95788794D01*
X91026000Y-95800000D01*
X90674000Y-95800000D01*
X90606961Y-95780315D01*
X90561206Y-95727511D01*
X90550000Y-95676000D01*
X90550000Y-95212198D01*
X90569685Y-95145159D01*
X90608299Y-95111699D01*
X90631800Y-95088198D01*
X90631800Y-94000000D01*
X91131800Y-94000000D01*
X91131800Y-95103262D01*
G37*
%TD.AperFunction*%
%TD*%
%TA.AperFunction,Conductor*%
%TO.N,GND*%
G36*
X66391600Y-75842899D02*
G01*
X66393681Y-75844980D01*
X66427166Y-75906303D01*
X66430000Y-75932661D01*
X66430000Y-76276000D01*
X66410315Y-76343039D01*
X66357511Y-76388794D01*
X66306000Y-76400000D01*
X65954000Y-76400000D01*
X65886961Y-76380315D01*
X65841206Y-76327511D01*
X65830000Y-76276000D01*
X65830000Y-75955861D01*
X65849685Y-75888822D01*
X65866319Y-75868180D01*
X65891600Y-75842899D01*
X65891600Y-74600000D01*
X66391600Y-74600000D01*
X66391600Y-75842899D01*
G37*
%TD.AperFunction*%
%TD*%
%TA.AperFunction,Conductor*%
%TO.N,+12V*%
G36*
X67500000Y-64900000D02*
G01*
X67200000Y-64900000D01*
X67200000Y-63800000D01*
X67500000Y-63800000D01*
X67500000Y-64900000D01*
G37*
%TD.AperFunction*%
%TD*%
%TA.AperFunction,Conductor*%
%TO.N,GND*%
G36*
X55893039Y-94606385D02*
G01*
X55938794Y-94659189D01*
X55950000Y-94710700D01*
X55950000Y-94808638D01*
X55940000Y-94842693D01*
X55940000Y-95946000D01*
X55920315Y-96013039D01*
X55867511Y-96058794D01*
X55816000Y-96070000D01*
X55564000Y-96070000D01*
X55496961Y-96050315D01*
X55451206Y-95997511D01*
X55440000Y-95946000D01*
X55440000Y-94870000D01*
X55425863Y-94855864D01*
X55406961Y-94850314D01*
X55361206Y-94797510D01*
X55350000Y-94745999D01*
X55350000Y-94710700D01*
X55369685Y-94643661D01*
X55422489Y-94597906D01*
X55474000Y-94586700D01*
X55826000Y-94586700D01*
X55893039Y-94606385D01*
G37*
%TD.AperFunction*%
%TD*%
%TA.AperFunction,Conductor*%
%TO.N,GND*%
G36*
X37070677Y-69649685D02*
G01*
X37091319Y-69666319D01*
X37100000Y-69675000D01*
X38126000Y-69675000D01*
X38193039Y-69694685D01*
X38238794Y-69747489D01*
X38250000Y-69799000D01*
X38250000Y-70051000D01*
X38230315Y-70118039D01*
X38177511Y-70163794D01*
X38126000Y-70175000D01*
X37100001Y-70175000D01*
X37081320Y-70193681D01*
X37019997Y-70227166D01*
X36993639Y-70230000D01*
X36864000Y-70230000D01*
X36796961Y-70210315D01*
X36751206Y-70157511D01*
X36740000Y-70106000D01*
X36740000Y-69754000D01*
X36759685Y-69686961D01*
X36812489Y-69641206D01*
X36864000Y-69630000D01*
X37003638Y-69630000D01*
X37070677Y-69649685D01*
G37*
%TD.AperFunction*%
%TD*%
%TA.AperFunction,Conductor*%
%TO.N,GND*%
G36*
X81672277Y-108019685D02*
G01*
X81692919Y-108036319D01*
X81707600Y-108051000D01*
X82500000Y-108051000D01*
X82500000Y-108551000D01*
X81707600Y-108551000D01*
X81694919Y-108563681D01*
X81633596Y-108597166D01*
X81607238Y-108600000D01*
X80824000Y-108600000D01*
X80756961Y-108580315D01*
X80711206Y-108527511D01*
X80700000Y-108476000D01*
X80700000Y-108124000D01*
X80719685Y-108056961D01*
X80772489Y-108011206D01*
X80824000Y-108000000D01*
X81605238Y-108000000D01*
X81672277Y-108019685D01*
G37*
%TD.AperFunction*%
%TD*%
%TA.AperFunction,Conductor*%
%TO.N,Net-(J4-Pin_1)*%
G36*
X91450639Y-115619685D02*
G01*
X91496394Y-115672489D01*
X91497451Y-115677351D01*
X91507600Y-115687500D01*
X92608600Y-115687500D01*
X92675639Y-115707185D01*
X92721394Y-115759989D01*
X92732600Y-115811500D01*
X92732600Y-116063500D01*
X92712915Y-116130539D01*
X92660111Y-116176294D01*
X92608600Y-116187500D01*
X91507601Y-116187500D01*
X91481420Y-116213681D01*
X91420097Y-116247166D01*
X91393739Y-116250000D01*
X90157962Y-116250000D01*
X90090923Y-116230315D01*
X90070281Y-116213681D01*
X90057600Y-116201000D01*
X89111746Y-116201000D01*
X89150230Y-116134343D01*
X89182600Y-116013535D01*
X89182600Y-115888465D01*
X89150230Y-115767657D01*
X89111746Y-115701000D01*
X90057599Y-115701000D01*
X90067160Y-115691438D01*
X90077284Y-115656961D01*
X90130088Y-115611206D01*
X90181599Y-115600000D01*
X91383600Y-115600000D01*
X91450639Y-115619685D01*
G37*
%TD.AperFunction*%
%TD*%
%TA.AperFunction,Conductor*%
%TO.N,GND*%
G36*
X37540677Y-58819685D02*
G01*
X37547273Y-58825000D01*
X38651000Y-58825000D01*
X38718039Y-58844685D01*
X38763794Y-58897489D01*
X38775000Y-58949000D01*
X38775000Y-59201000D01*
X38755315Y-59268039D01*
X38702511Y-59313794D01*
X38651000Y-59325000D01*
X37550001Y-59325000D01*
X37513682Y-59361319D01*
X37511610Y-59359247D01*
X37477512Y-59388794D01*
X37426001Y-59400000D01*
X37324000Y-59400000D01*
X37256961Y-59380315D01*
X37211206Y-59327511D01*
X37200000Y-59276000D01*
X37200000Y-58924000D01*
X37219685Y-58856961D01*
X37272489Y-58811206D01*
X37324000Y-58800000D01*
X37473638Y-58800000D01*
X37540677Y-58819685D01*
G37*
%TD.AperFunction*%
%TD*%
%TA.AperFunction,Conductor*%
%TO.N,GND*%
G36*
X50243039Y-98289685D02*
G01*
X50288794Y-98342489D01*
X50300000Y-98394000D01*
X50300000Y-98746000D01*
X50280315Y-98813039D01*
X50227511Y-98858794D01*
X50176000Y-98870000D01*
X48504944Y-98870000D01*
X48500000Y-98868548D01*
X48500000Y-98388484D01*
X48539000Y-98380000D01*
X50037295Y-98380000D01*
X50046163Y-98370406D01*
X50053529Y-98335348D01*
X50102583Y-98285593D01*
X50162781Y-98270000D01*
X50176000Y-98270000D01*
X50243039Y-98289685D01*
G37*
%TD.AperFunction*%
%TD*%
%TA.AperFunction,Conductor*%
%TO.N,GND*%
G36*
X67585382Y-91448600D02*
G01*
X68518000Y-91448600D01*
X68585039Y-91468285D01*
X68630794Y-91521089D01*
X68642000Y-91572600D01*
X68642000Y-91824600D01*
X68622315Y-91891639D01*
X68569511Y-91937394D01*
X68518000Y-91948600D01*
X67592000Y-91948600D01*
X67574291Y-91966308D01*
X67572315Y-91973039D01*
X67519511Y-92018794D01*
X67468000Y-92030000D01*
X67024000Y-92030000D01*
X66956961Y-92010315D01*
X66911206Y-91957511D01*
X66900000Y-91906000D01*
X66900000Y-91554000D01*
X66919685Y-91486961D01*
X66972489Y-91441206D01*
X67024000Y-91430000D01*
X67522038Y-91430000D01*
X67585382Y-91448600D01*
G37*
%TD.AperFunction*%
%TD*%
%TA.AperFunction,Conductor*%
%TO.N,Net-(D10-K)*%
G36*
X91601586Y-106427000D02*
G01*
X92267600Y-106427000D01*
X92334639Y-106446685D01*
X92380394Y-106499489D01*
X92391600Y-106551000D01*
X92391600Y-106803000D01*
X92371915Y-106870039D01*
X92337338Y-106900000D01*
X90600000Y-106900000D01*
X90600000Y-106414800D01*
X91560038Y-106414800D01*
X91601586Y-106427000D01*
G37*
%TD.AperFunction*%
%TD*%
%TA.AperFunction,Conductor*%
%TO.N,-5V*%
G36*
X48900000Y-99718110D02*
G01*
X48900000Y-101647083D01*
X48895315Y-101663039D01*
X48852660Y-101700000D01*
X47800000Y-101700000D01*
X47800000Y-101220000D01*
X48415000Y-101220000D01*
X48415000Y-101100000D01*
X48500000Y-101100000D01*
X48500000Y-99700000D01*
X48884307Y-99700000D01*
X48900000Y-99718110D01*
G37*
%TD.AperFunction*%
%TD*%
%TA.AperFunction,Conductor*%
%TO.N,GND*%
G36*
X50413039Y-75259685D02*
G01*
X50458794Y-75312489D01*
X50470000Y-75364000D01*
X50470000Y-77040000D01*
X50125850Y-77040000D01*
X50125850Y-75735000D01*
X50125849Y-75734999D01*
X50075879Y-75735000D01*
X50075861Y-75735001D01*
X50006602Y-75742077D01*
X49937909Y-75729307D01*
X49887024Y-75681427D01*
X49870000Y-75618719D01*
X49870000Y-75364000D01*
X49889685Y-75296961D01*
X49942489Y-75251206D01*
X49994000Y-75240000D01*
X50346000Y-75240000D01*
X50413039Y-75259685D01*
G37*
%TD.AperFunction*%
%TD*%
%TA.AperFunction,Conductor*%
%TO.N,GND*%
G36*
X47204566Y-73485000D02*
G01*
X48600150Y-73485000D01*
X48667189Y-73504685D01*
X48712944Y-73557489D01*
X48724150Y-73609000D01*
X48724150Y-73861000D01*
X48704465Y-73928039D01*
X48651661Y-73973794D01*
X48600150Y-73985000D01*
X47243900Y-73985000D01*
X47231844Y-73997055D01*
X47224215Y-74023039D01*
X47171411Y-74068794D01*
X47119900Y-74080000D01*
X47114000Y-74080000D01*
X47046961Y-74060315D01*
X47001206Y-74007511D01*
X46990000Y-73956000D01*
X46990000Y-73604000D01*
X47009685Y-73536961D01*
X47062489Y-73491206D01*
X47114000Y-73480000D01*
X47187538Y-73480000D01*
X47204566Y-73485000D01*
G37*
%TD.AperFunction*%
%TD*%
%TA.AperFunction,Conductor*%
%TO.N,GND*%
G36*
X52103039Y-72789685D02*
G01*
X52148794Y-72842489D01*
X52160000Y-72894000D01*
X52160000Y-73246000D01*
X52140315Y-73313039D01*
X52087511Y-73358794D01*
X52036000Y-73370000D01*
X51912212Y-73370000D01*
X51845173Y-73350315D01*
X51826168Y-73335000D01*
X50474850Y-73335000D01*
X50407811Y-73315315D01*
X50362056Y-73262511D01*
X50360000Y-73253060D01*
X50360000Y-72927838D01*
X50370535Y-72891961D01*
X50423339Y-72846206D01*
X50474850Y-72835000D01*
X51825849Y-72835000D01*
X51854530Y-72806319D01*
X51915853Y-72772834D01*
X51942211Y-72770000D01*
X52036000Y-72770000D01*
X52103039Y-72789685D01*
G37*
%TD.AperFunction*%
%TD*%
D68*
X41300000Y-63800000D03*
X45300000Y-102750000D03*
X52900000Y-62000000D03*
X50500000Y-70000000D03*
X55700000Y-98600000D03*
X51000000Y-62700000D03*
X40850000Y-102750000D03*
X52900000Y-61100000D03*
X51000000Y-63600000D03*
X48700000Y-109950000D03*
X52300000Y-98600000D03*
X44900000Y-91300000D03*
X46900000Y-103850000D03*
X36750000Y-92050000D03*
X47600000Y-101400000D03*
X46200000Y-101400000D03*
X46200000Y-103850000D03*
X46900000Y-101400000D03*
X47600000Y-103850000D03*
X36750000Y-92925000D03*
X49950000Y-109700000D03*
X54000000Y-108223800D03*
X54200000Y-110600000D03*
X41800000Y-112600000D03*
X42400000Y-107500000D03*
X89400000Y-100400000D03*
X83200000Y-99600000D03*
X55700000Y-94800000D03*
X38350000Y-103900000D03*
X37000000Y-69900000D03*
X50040000Y-98750000D03*
X86550000Y-99600000D03*
X48330000Y-61760000D03*
X81000000Y-108320000D03*
X74800000Y-62530000D03*
X38200000Y-96450000D03*
X64570000Y-66650000D03*
X83100000Y-109720000D03*
X80430000Y-58700000D03*
X83050000Y-105070000D03*
X56300000Y-60000000D03*
X50200000Y-75500000D03*
X37460000Y-59070000D03*
X43400000Y-65100000D03*
X83050000Y-103020000D03*
X47250000Y-73750000D03*
X49200000Y-68800000D03*
X90500000Y-105020000D03*
X50000000Y-107280000D03*
X53100000Y-111600000D03*
X50200000Y-100210000D03*
X83080000Y-93550000D03*
X82200000Y-91320000D03*
X51900000Y-73100000D03*
X36900000Y-67800000D03*
X90870000Y-95500000D03*
X58450000Y-110380000D03*
X48550000Y-112500000D03*
X40200000Y-60800000D03*
X82800000Y-61170000D03*
X92600000Y-98880000D03*
X67200000Y-91750000D03*
X67350000Y-89950000D03*
X46600000Y-60600000D03*
X66150000Y-76100000D03*
X47300000Y-114500000D03*
X90900000Y-91130000D03*
X56300000Y-64800000D03*
X44400000Y-73750000D03*
X52900000Y-69200000D03*
X81500000Y-89050000D03*
X41050000Y-110100000D03*
X43700000Y-100500000D03*
X68750000Y-66350000D03*
X88900000Y-76800000D03*
X88950000Y-79150000D03*
X85700000Y-60250000D03*
X73200000Y-67150000D03*
X88900000Y-74300000D03*
X88850000Y-81050000D03*
X68600000Y-87300000D03*
X57900000Y-113400000D03*
X43300000Y-111800000D03*
X89400000Y-97800000D03*
X91700000Y-102200000D03*
X34750000Y-65950000D03*
X85000000Y-93750000D03*
D69*
X35150000Y-116300000D03*
X35633274Y-115133274D03*
X35633274Y-117466726D03*
X36800000Y-114650000D03*
X36800000Y-116300000D03*
X36800000Y-117950000D03*
X37966726Y-115133274D03*
X37966726Y-117466726D03*
X38450000Y-116300000D03*
X96250000Y-66950000D03*
X96733274Y-65783274D03*
X96733274Y-68116726D03*
X97900000Y-65300000D03*
X97900000Y-66950000D03*
X97900000Y-68600000D03*
X99066726Y-65783274D03*
X99066726Y-68116726D03*
X99550000Y-66950000D03*
X68797800Y-53822600D03*
X71297800Y-53822600D03*
X96050000Y-94800000D03*
X96533274Y-93633274D03*
X96533274Y-95966726D03*
X97700000Y-93150000D03*
X97700000Y-94800000D03*
X97700000Y-96450000D03*
X98866726Y-93633274D03*
X98866726Y-95966726D03*
X99350000Y-94800000D03*
X71054600Y-115390000D03*
X68554600Y-115390000D03*
X54135000Y-103250000D03*
X56675000Y-103250000D03*
X86720600Y-51115200D03*
X84180600Y-51115200D03*
X91627600Y-109491000D03*
X90357600Y-109491000D03*
X89087600Y-109491000D03*
X49025000Y-53150000D03*
X51525000Y-53150000D03*
X88707600Y-115951000D03*
X86207600Y-115951000D03*
X41053500Y-84768500D03*
X48053500Y-84768500D03*
X99949000Y-74277200D03*
X99949000Y-76777200D03*
X99949000Y-79277200D03*
X99949000Y-81777200D03*
X99949000Y-84277200D03*
X99949000Y-86777200D03*
X35200000Y-52000000D03*
X35683274Y-50833274D03*
X35683274Y-53166726D03*
X36850000Y-50350000D03*
X36850000Y-52000000D03*
X36850000Y-53650000D03*
X38016726Y-50833274D03*
X38016726Y-53166726D03*
X38500000Y-52000000D03*
X67335400Y-97891600D03*
X67335400Y-100431600D03*
X67335400Y-108051600D03*
X72415400Y-108051600D03*
X72415400Y-100431600D03*
X72415400Y-97891600D03*
M02*
