%TF.GenerationSoftware,KiCad,Pcbnew,8.0.5*%
%TF.CreationDate,2025-03-29T03:18:47+03:00*%
%TF.ProjectId,PCB_FINAL_UPDATED,5043425f-4649-44e4-914c-5f5550444154,rev?*%
%TF.SameCoordinates,Original*%
%TF.FileFunction,Copper,L2,Inr*%
%TF.FilePolarity,Positive*%
%FSLAX46Y46*%
G04 Gerber Fmt 4.6, Leading zero omitted, Abs format (unit mm)*
G04 Created by KiCad (PCBNEW 8.0.5) date 2025-03-29 03:18:47*
%MOMM*%
%LPD*%
G01*
G04 APERTURE LIST*
G04 Aperture macros list*
%AMRoundRect*
0 Rectangle with rounded corners*
0 $1 Rounding radius*
0 $2 $3 $4 $5 $6 $7 $8 $9 X,Y pos of 4 corners*
0 Add a 4 corners polygon primitive as box body*
4,1,4,$2,$3,$4,$5,$6,$7,$8,$9,$2,$3,0*
0 Add four circle primitives for the rounded corners*
1,1,$1+$1,$2,$3*
1,1,$1+$1,$4,$5*
1,1,$1+$1,$6,$7*
1,1,$1+$1,$8,$9*
0 Add four rect primitives between the rounded corners*
20,1,$1+$1,$2,$3,$4,$5,0*
20,1,$1+$1,$4,$5,$6,$7,0*
20,1,$1+$1,$6,$7,$8,$9,0*
20,1,$1+$1,$8,$9,$2,$3,0*%
G04 Aperture macros list end*
%TA.AperFunction,ComponentPad*%
%ADD10C,0.700000*%
%TD*%
%TA.AperFunction,ComponentPad*%
%ADD11C,4.400000*%
%TD*%
%TA.AperFunction,ComponentPad*%
%ADD12RoundRect,0.250000X-0.600000X-0.725000X0.600000X-0.725000X0.600000X0.725000X-0.600000X0.725000X0*%
%TD*%
%TA.AperFunction,ComponentPad*%
%ADD13O,1.700000X1.950000*%
%TD*%
%TA.AperFunction,ComponentPad*%
%ADD14RoundRect,0.250000X0.600000X0.725000X-0.600000X0.725000X-0.600000X-0.725000X0.600000X-0.725000X0*%
%TD*%
%TA.AperFunction,ComponentPad*%
%ADD15R,1.700000X1.700000*%
%TD*%
%TA.AperFunction,ComponentPad*%
%ADD16O,1.700000X1.700000*%
%TD*%
%TA.AperFunction,ComponentPad*%
%ADD17R,1.050000X1.500000*%
%TD*%
%TA.AperFunction,ComponentPad*%
%ADD18O,1.050000X1.500000*%
%TD*%
%TA.AperFunction,ComponentPad*%
%ADD19RoundRect,0.250000X-0.725000X0.600000X-0.725000X-0.600000X0.725000X-0.600000X0.725000X0.600000X0*%
%TD*%
%TA.AperFunction,ComponentPad*%
%ADD20O,1.950000X1.700000*%
%TD*%
%TA.AperFunction,ComponentPad*%
%ADD21C,1.498600*%
%TD*%
%TA.AperFunction,ViaPad*%
%ADD22C,0.500000*%
%TD*%
%ADD23C,0.300000*%
%ADD24C,0.350000*%
G04 APERTURE END LIST*
D10*
%TO.N,GND*%
%TO.C,H2*%
X35150000Y-116300000D03*
X35633274Y-115133274D03*
X35633274Y-117466726D03*
X36800000Y-114650000D03*
D11*
X36800000Y-116300000D03*
D10*
X36800000Y-117950000D03*
X37966726Y-115133274D03*
X37966726Y-117466726D03*
X38450000Y-116300000D03*
%TD*%
%TO.N,GND*%
%TO.C,H3*%
X96250000Y-66950000D03*
X96733274Y-65783274D03*
X96733274Y-68116726D03*
X97900000Y-65300000D03*
D11*
X97900000Y-66950000D03*
D10*
X97900000Y-68600000D03*
X99066726Y-65783274D03*
X99066726Y-68116726D03*
X99550000Y-66950000D03*
%TD*%
D12*
%TO.N,OUT1*%
%TO.C,J5*%
X68797800Y-53822600D03*
D13*
%TO.N,OUT2*%
X71297800Y-53822600D03*
%TD*%
D10*
%TO.N,GND*%
%TO.C,H4*%
X96050000Y-94800000D03*
X96533274Y-93633274D03*
X96533274Y-95966726D03*
X97700000Y-93150000D03*
D11*
X97700000Y-94800000D03*
D10*
X97700000Y-96450000D03*
X98866726Y-93633274D03*
X98866726Y-95966726D03*
X99350000Y-94800000D03*
%TD*%
D14*
%TO.N,GND*%
%TO.C,J6*%
X71054600Y-115390000D03*
D13*
%TO.N,Net-(J6-Pin_2)*%
X68554600Y-115390000D03*
%TD*%
D15*
%TO.N,ECG_I*%
%TO.C,J7*%
X54135000Y-103250000D03*
D16*
%TO.N,GND*%
X56675000Y-103250000D03*
%TD*%
D15*
%TO.N,Net-(J8-Pin_1)*%
%TO.C,J8*%
X86720600Y-51115200D03*
D16*
%TO.N,Net-(J8-Pin_2)*%
X84180600Y-51115200D03*
%TD*%
D17*
%TO.N,Net-(Q1-D)*%
%TO.C,Q1*%
X91627600Y-109491000D03*
D18*
%TO.N,Net-(D8-A)*%
X90357600Y-109491000D03*
%TO.N,+12V*%
X89087600Y-109491000D03*
%TD*%
D12*
%TO.N,VBAT*%
%TO.C,J1*%
X49025000Y-53150000D03*
D13*
%TO.N,GND*%
X51525000Y-53150000D03*
%TD*%
D14*
%TO.N,Net-(J4-Pin_1)*%
%TO.C,J4*%
X88707600Y-115951000D03*
D13*
%TO.N,GND*%
X86207600Y-115951000D03*
%TD*%
D19*
%TO.N,RIN*%
%TO.C,J2*%
X99949000Y-74277200D03*
D20*
%TO.N,FIN*%
X99949000Y-76777200D03*
%TO.N,LED_PWM*%
X99949000Y-79277200D03*
%TO.N,FAN_C*%
X99949000Y-81777200D03*
%TO.N,GND*%
X99949000Y-84277200D03*
%TO.N,+5VA*%
X99949000Y-86777200D03*
%TD*%
D10*
%TO.N,GND*%
%TO.C,H1*%
X35200000Y-52000000D03*
X35683274Y-50833274D03*
X35683274Y-53166726D03*
X36850000Y-50350000D03*
D11*
X36850000Y-52000000D03*
D10*
X36850000Y-53650000D03*
X38016726Y-50833274D03*
X38016726Y-53166726D03*
X38500000Y-52000000D03*
%TD*%
D21*
%TO.N,unconnected-(K1-Pad1)*%
%TO.C,K1*%
X67335400Y-97891600D03*
%TO.N,+12V*%
X67335400Y-100431600D03*
%TO.N,Net-(J6-Pin_2)*%
X67335400Y-108051600D03*
X72415400Y-108051600D03*
%TO.N,Net-(D15-A)*%
X72415400Y-100431600D03*
%TO.N,+12V*%
X72415400Y-97891600D03*
%TD*%
D22*
%TO.N,VBAT*%
X41300000Y-63800000D03*
%TO.N,+5V*%
X45300000Y-102750000D03*
X52900000Y-62000000D03*
X50500000Y-70000000D03*
X55700000Y-98600000D03*
X51000000Y-62700000D03*
X40850000Y-102750000D03*
X52900000Y-61100000D03*
X51000000Y-63600000D03*
X48700000Y-109950000D03*
%TO.N,/ANALOG CIRCUIT/RLD*%
X52300000Y-98600000D03*
X44900000Y-91300000D03*
%TO.N,-5V*%
X46900000Y-103850000D03*
X36750000Y-92050000D03*
X47600000Y-101400000D03*
X46200000Y-101400000D03*
X46200000Y-103850000D03*
X46900000Y-101400000D03*
X47600000Y-103850000D03*
X36750000Y-92925000D03*
X49950000Y-109700000D03*
%TO.N,Net-(C17-Pad1)*%
X54000000Y-108223800D03*
X54200000Y-110600000D03*
%TO.N,/ANALOG CIRCUIT/HPF_O*%
X41800000Y-112600000D03*
X42400000Y-107500000D03*
%TO.N,Net-(U7-VBST)*%
X89400000Y-100400000D03*
X83200000Y-99600000D03*
%TO.N,GND*%
X55700000Y-94800000D03*
X38350000Y-103900000D03*
X37000000Y-69900000D03*
X50040000Y-98750000D03*
X86550000Y-99600000D03*
X48330000Y-61760000D03*
X81000000Y-108320000D03*
X74800000Y-62530000D03*
X38200000Y-96450000D03*
X64570000Y-66650000D03*
X83100000Y-109720000D03*
X80430000Y-58700000D03*
X83050000Y-105070000D03*
X56300000Y-60000000D03*
X50200000Y-75500000D03*
X37460000Y-59070000D03*
X43400000Y-65100000D03*
X83050000Y-103020000D03*
X47250000Y-73750000D03*
X49200000Y-68800000D03*
X90500000Y-105020000D03*
X50000000Y-107280000D03*
X53100000Y-111600000D03*
X50200000Y-100210000D03*
X83080000Y-93550000D03*
X82200000Y-91320000D03*
X51900000Y-73100000D03*
X36900000Y-67800000D03*
X90870000Y-95500000D03*
X58450000Y-110380000D03*
X48550000Y-112500000D03*
X40200000Y-60800000D03*
X82800000Y-61170000D03*
X92600000Y-98880000D03*
X67200000Y-91750000D03*
X67350000Y-89950000D03*
X46600000Y-60600000D03*
X66150000Y-76100000D03*
X47300000Y-114500000D03*
X90900000Y-91130000D03*
X56300000Y-64800000D03*
X44400000Y-73750000D03*
X52900000Y-69200000D03*
X81500000Y-89050000D03*
X41050000Y-110100000D03*
X43700000Y-100500000D03*
%TO.N,FIN*%
X68750000Y-66350000D03*
X88900000Y-76800000D03*
%TO.N,LED_PWM*%
X88950000Y-79150000D03*
X85700000Y-60250000D03*
%TO.N,RIN*%
X73200000Y-67150000D03*
X88900000Y-74300000D03*
%TO.N,FAN_C*%
X88850000Y-81050000D03*
X68600000Y-87300000D03*
%TO.N,/ANALOG CIRCUIT/NFO*%
X57900000Y-113400000D03*
X43300000Y-111800000D03*
%TO.N,Net-(U7-VFB)*%
X89400000Y-97800000D03*
X91700000Y-102200000D03*
%TO.N,+5VA*%
X34750000Y-65950000D03*
X85000000Y-93750000D03*
%TD*%
%TA.AperFunction,Conductor*%
%TO.N,GND*%
G36*
X93942539Y-49520185D02*
G01*
X93988294Y-49572989D01*
X93999500Y-49624500D01*
X93999500Y-61434108D01*
X93999500Y-61565892D01*
X94012919Y-61615973D01*
X94033608Y-61693187D01*
X94066554Y-61750250D01*
X94099500Y-61807314D01*
X94192686Y-61900500D01*
X94306814Y-61966392D01*
X94434108Y-62000500D01*
X94498046Y-62000500D01*
X94501941Y-62000561D01*
X95061201Y-62018136D01*
X95068944Y-62018623D01*
X95624075Y-62071099D01*
X95631788Y-62072074D01*
X96182497Y-62159297D01*
X96190111Y-62160749D01*
X96734304Y-62282390D01*
X96741827Y-62284323D01*
X97277250Y-62439878D01*
X97284658Y-62442285D01*
X97809265Y-62631155D01*
X97816499Y-62634018D01*
X98052891Y-62736314D01*
X98328224Y-62855461D01*
X98335273Y-62858778D01*
X98832074Y-63111911D01*
X98838900Y-63115664D01*
X99318820Y-63399488D01*
X99325397Y-63403662D01*
X99786553Y-63717064D01*
X99792855Y-63721643D01*
X100233407Y-64063369D01*
X100239407Y-64068331D01*
X100657667Y-64437077D01*
X100663345Y-64442410D01*
X101057589Y-64836654D01*
X101062922Y-64842332D01*
X101431665Y-65260589D01*
X101436630Y-65266592D01*
X101778356Y-65707144D01*
X101782935Y-65713446D01*
X102096337Y-66174602D01*
X102100511Y-66181179D01*
X102384335Y-66661099D01*
X102388088Y-66667925D01*
X102641221Y-67164726D01*
X102644538Y-67171775D01*
X102865977Y-67683491D01*
X102868844Y-67690734D01*
X103057714Y-68215341D01*
X103060121Y-68222749D01*
X103215673Y-68758161D01*
X103217611Y-68765706D01*
X103339246Y-69309869D01*
X103340705Y-69317521D01*
X103427924Y-69868204D01*
X103428901Y-69875932D01*
X103481375Y-70431039D01*
X103481864Y-70438814D01*
X103499439Y-70998058D01*
X103499500Y-71001953D01*
X103499500Y-90498046D01*
X103499439Y-90501941D01*
X103481864Y-91061185D01*
X103481375Y-91068960D01*
X103428901Y-91624067D01*
X103427924Y-91631795D01*
X103340705Y-92182478D01*
X103339246Y-92190130D01*
X103217611Y-92734293D01*
X103215673Y-92741838D01*
X103060121Y-93277250D01*
X103057714Y-93284658D01*
X102868844Y-93809265D01*
X102865977Y-93816508D01*
X102644538Y-94328224D01*
X102641221Y-94335273D01*
X102388088Y-94832074D01*
X102384335Y-94838900D01*
X102100511Y-95318820D01*
X102096337Y-95325397D01*
X101782935Y-95786553D01*
X101778356Y-95792855D01*
X101436630Y-96233407D01*
X101431665Y-96239410D01*
X101062922Y-96657667D01*
X101057589Y-96663345D01*
X100663345Y-97057589D01*
X100657667Y-97062922D01*
X100239410Y-97431665D01*
X100233407Y-97436630D01*
X99792855Y-97778356D01*
X99786553Y-97782935D01*
X99325397Y-98096337D01*
X99318820Y-98100511D01*
X98838900Y-98384335D01*
X98832074Y-98388088D01*
X98335273Y-98641221D01*
X98328224Y-98644538D01*
X97816508Y-98865977D01*
X97809265Y-98868844D01*
X97284658Y-99057714D01*
X97277250Y-99060121D01*
X96741838Y-99215673D01*
X96734293Y-99217611D01*
X96190130Y-99339246D01*
X96182478Y-99340705D01*
X95631795Y-99427924D01*
X95624067Y-99428901D01*
X95068960Y-99481375D01*
X95061185Y-99481864D01*
X94501941Y-99499439D01*
X94498046Y-99499500D01*
X94434108Y-99499500D01*
X94306812Y-99533608D01*
X94192686Y-99599500D01*
X94192683Y-99599502D01*
X94099502Y-99692683D01*
X94099500Y-99692686D01*
X94033608Y-99806812D01*
X93999500Y-99934108D01*
X93999500Y-118870830D01*
X93979815Y-118937869D01*
X93927011Y-118983624D01*
X93874474Y-118994826D01*
X38646028Y-118537918D01*
X38579154Y-118517679D01*
X38533837Y-118464499D01*
X38523280Y-118406435D01*
X38524968Y-118378522D01*
X37382737Y-117236290D01*
X37516602Y-117139033D01*
X37639033Y-117016602D01*
X37736290Y-116882736D01*
X38878522Y-118024968D01*
X38878523Y-118024968D01*
X39026112Y-117836586D01*
X39195101Y-117557043D01*
X39195102Y-117557041D01*
X39329160Y-117259175D01*
X39329164Y-117259164D01*
X39426332Y-116947341D01*
X39485213Y-116626038D01*
X39504934Y-116300000D01*
X39485213Y-115973961D01*
X39426332Y-115652658D01*
X39329164Y-115340835D01*
X39329160Y-115340824D01*
X39247199Y-115158713D01*
X67204100Y-115158713D01*
X67204100Y-115621287D01*
X67237354Y-115831243D01*
X67248322Y-115865000D01*
X67303044Y-116033414D01*
X67399551Y-116222820D01*
X67524490Y-116394786D01*
X67674813Y-116545109D01*
X67846779Y-116670048D01*
X67846781Y-116670049D01*
X67846784Y-116670051D01*
X68036188Y-116766557D01*
X68238357Y-116832246D01*
X68448313Y-116865500D01*
X68448314Y-116865500D01*
X68660886Y-116865500D01*
X68660887Y-116865500D01*
X68870843Y-116832246D01*
X69073012Y-116766557D01*
X69262416Y-116670051D01*
X69366793Y-116594217D01*
X69434384Y-116545110D01*
X69434384Y-116545109D01*
X69434392Y-116545104D01*
X69573567Y-116405928D01*
X69634886Y-116372446D01*
X69704578Y-116377430D01*
X69760512Y-116419301D01*
X69766784Y-116428515D01*
X69862284Y-116583345D01*
X69986254Y-116707315D01*
X70135475Y-116799356D01*
X70135480Y-116799358D01*
X70301902Y-116854505D01*
X70301909Y-116854506D01*
X70404619Y-116864999D01*
X70804599Y-116864999D01*
X70804600Y-116864998D01*
X70804600Y-115794145D01*
X70871257Y-115832630D01*
X70992065Y-115865000D01*
X71117135Y-115865000D01*
X71237943Y-115832630D01*
X71304600Y-115794145D01*
X71304600Y-116864999D01*
X71704572Y-116864999D01*
X71704586Y-116864998D01*
X71807297Y-116854505D01*
X71973719Y-116799358D01*
X71973724Y-116799356D01*
X72122945Y-116707315D01*
X72246915Y-116583345D01*
X72338956Y-116434124D01*
X72338958Y-116434119D01*
X72394105Y-116267697D01*
X72394106Y-116267690D01*
X72404599Y-116164986D01*
X72404600Y-116164973D01*
X72404600Y-115701000D01*
X84860570Y-115701000D01*
X85803454Y-115701000D01*
X85764970Y-115767657D01*
X85732600Y-115888465D01*
X85732600Y-116013535D01*
X85764970Y-116134343D01*
X85803454Y-116201000D01*
X84860570Y-116201000D01*
X84890842Y-116392127D01*
X84890842Y-116392130D01*
X84956504Y-116594217D01*
X85052979Y-116783557D01*
X85177872Y-116955459D01*
X85177876Y-116955464D01*
X85328135Y-117105723D01*
X85328140Y-117105727D01*
X85500042Y-117230620D01*
X85689382Y-117327095D01*
X85891471Y-117392757D01*
X85957600Y-117403231D01*
X85957600Y-116355145D01*
X86024257Y-116393630D01*
X86145065Y-116426000D01*
X86270135Y-116426000D01*
X86390943Y-116393630D01*
X86457600Y-116355145D01*
X86457600Y-117403230D01*
X86523726Y-117392757D01*
X86523729Y-117392757D01*
X86725817Y-117327095D01*
X86915157Y-117230620D01*
X87087058Y-117105728D01*
X87225930Y-116966856D01*
X87287253Y-116933371D01*
X87356945Y-116938355D01*
X87412879Y-116980226D01*
X87419151Y-116989440D01*
X87422785Y-116995331D01*
X87422786Y-116995334D01*
X87514888Y-117144656D01*
X87638944Y-117268712D01*
X87788266Y-117360814D01*
X87954803Y-117415999D01*
X88057591Y-117426500D01*
X89357608Y-117426499D01*
X89460397Y-117415999D01*
X89626934Y-117360814D01*
X89776256Y-117268712D01*
X89900312Y-117144656D01*
X89992414Y-116995334D01*
X90047599Y-116828797D01*
X90058100Y-116726009D01*
X90058099Y-115175992D01*
X90047599Y-115073203D01*
X89992414Y-114906666D01*
X89900312Y-114757344D01*
X89776256Y-114633288D01*
X89626934Y-114541186D01*
X89460397Y-114486001D01*
X89460395Y-114486000D01*
X89357610Y-114475500D01*
X88057598Y-114475500D01*
X88057581Y-114475501D01*
X87954803Y-114486000D01*
X87954800Y-114486001D01*
X87788268Y-114541185D01*
X87788263Y-114541187D01*
X87638942Y-114633289D01*
X87514889Y-114757342D01*
X87419151Y-114912559D01*
X87367203Y-114959283D01*
X87298240Y-114970506D01*
X87234158Y-114942662D01*
X87225931Y-114935143D01*
X87087064Y-114796276D01*
X87087059Y-114796272D01*
X86915157Y-114671379D01*
X86725815Y-114574903D01*
X86523724Y-114509241D01*
X86457600Y-114498768D01*
X86457600Y-115546854D01*
X86390943Y-115508370D01*
X86270135Y-115476000D01*
X86145065Y-115476000D01*
X86024257Y-115508370D01*
X85957600Y-115546854D01*
X85957600Y-114498768D01*
X85957599Y-114498768D01*
X85891475Y-114509241D01*
X85689384Y-114574903D01*
X85500042Y-114671379D01*
X85328140Y-114796272D01*
X85328135Y-114796276D01*
X85177876Y-114946535D01*
X85177872Y-114946540D01*
X85052979Y-115118442D01*
X84956504Y-115307782D01*
X84890842Y-115509869D01*
X84890842Y-115509872D01*
X84860570Y-115701000D01*
X72404600Y-115701000D01*
X72404600Y-115640000D01*
X71458746Y-115640000D01*
X71497230Y-115573343D01*
X71529600Y-115452535D01*
X71529600Y-115327465D01*
X71497230Y-115206657D01*
X71458746Y-115140000D01*
X72404599Y-115140000D01*
X72404599Y-114615028D01*
X72404598Y-114615013D01*
X72394105Y-114512302D01*
X72338958Y-114345880D01*
X72338956Y-114345875D01*
X72246915Y-114196654D01*
X72122945Y-114072684D01*
X71973724Y-113980643D01*
X71973719Y-113980641D01*
X71807297Y-113925494D01*
X71807290Y-113925493D01*
X71704586Y-113915000D01*
X71304600Y-113915000D01*
X71304600Y-114985854D01*
X71237943Y-114947370D01*
X71117135Y-114915000D01*
X70992065Y-114915000D01*
X70871257Y-114947370D01*
X70804600Y-114985854D01*
X70804600Y-113915000D01*
X70404628Y-113915000D01*
X70404612Y-113915001D01*
X70301902Y-113925494D01*
X70135480Y-113980641D01*
X70135475Y-113980643D01*
X69986254Y-114072684D01*
X69862283Y-114196655D01*
X69862280Y-114196659D01*
X69766783Y-114351484D01*
X69714835Y-114398209D01*
X69645873Y-114409430D01*
X69581791Y-114381587D01*
X69573564Y-114374068D01*
X69434386Y-114234890D01*
X69262420Y-114109951D01*
X69073014Y-114013444D01*
X69073013Y-114013443D01*
X69073012Y-114013443D01*
X68870843Y-113947754D01*
X68870841Y-113947753D01*
X68870840Y-113947753D01*
X68709557Y-113922208D01*
X68660887Y-113914500D01*
X68448313Y-113914500D01*
X68399642Y-113922208D01*
X68238360Y-113947753D01*
X68036185Y-114013444D01*
X67846779Y-114109951D01*
X67674813Y-114234890D01*
X67524490Y-114385213D01*
X67399551Y-114557179D01*
X67303044Y-114746585D01*
X67237353Y-114948760D01*
X67213662Y-115098343D01*
X67204100Y-115158713D01*
X39247199Y-115158713D01*
X39195102Y-115042958D01*
X39195101Y-115042956D01*
X39026118Y-114763423D01*
X38878522Y-114575030D01*
X37736290Y-115717261D01*
X37639033Y-115583398D01*
X37516602Y-115460967D01*
X37382736Y-115363709D01*
X38524968Y-114221476D01*
X38336576Y-114073881D01*
X38057043Y-113904898D01*
X38057041Y-113904897D01*
X37759175Y-113770839D01*
X37759164Y-113770835D01*
X37447341Y-113673667D01*
X37126038Y-113614786D01*
X36800000Y-113595065D01*
X36473961Y-113614786D01*
X36152658Y-113673667D01*
X35840835Y-113770835D01*
X35840824Y-113770839D01*
X35542958Y-113904897D01*
X35542956Y-113904898D01*
X35263422Y-114073881D01*
X35263416Y-114073886D01*
X35075030Y-114221474D01*
X35075029Y-114221476D01*
X36217262Y-115363709D01*
X36083398Y-115460967D01*
X35960967Y-115583398D01*
X35863709Y-115717262D01*
X34721476Y-114575029D01*
X34720930Y-114575063D01*
X34665271Y-114614851D01*
X34595487Y-114618304D01*
X34534914Y-114583480D01*
X34502784Y-114521437D01*
X34500500Y-114497746D01*
X34500500Y-113399997D01*
X57144751Y-113399997D01*
X57144751Y-113400002D01*
X57163685Y-113568056D01*
X57219545Y-113727694D01*
X57219547Y-113727697D01*
X57309518Y-113870884D01*
X57309523Y-113870890D01*
X57429109Y-113990476D01*
X57429115Y-113990481D01*
X57572302Y-114080452D01*
X57572305Y-114080454D01*
X57572309Y-114080455D01*
X57572310Y-114080456D01*
X57644913Y-114105860D01*
X57731943Y-114136314D01*
X57899997Y-114155249D01*
X57900000Y-114155249D01*
X57900003Y-114155249D01*
X58068056Y-114136314D01*
X58068059Y-114136313D01*
X58227690Y-114080456D01*
X58227692Y-114080454D01*
X58227694Y-114080454D01*
X58227697Y-114080452D01*
X58370884Y-113990481D01*
X58370885Y-113990480D01*
X58370890Y-113990477D01*
X58490477Y-113870890D01*
X58580452Y-113727697D01*
X58580454Y-113727694D01*
X58580454Y-113727692D01*
X58580456Y-113727690D01*
X58636313Y-113568059D01*
X58636313Y-113568058D01*
X58636314Y-113568056D01*
X58655249Y-113400002D01*
X58655249Y-113399997D01*
X58636314Y-113231943D01*
X58580454Y-113072305D01*
X58580452Y-113072302D01*
X58490481Y-112929115D01*
X58490476Y-112929109D01*
X58370890Y-112809523D01*
X58370884Y-112809518D01*
X58227697Y-112719547D01*
X58227694Y-112719545D01*
X58068056Y-112663685D01*
X57900003Y-112644751D01*
X57899997Y-112644751D01*
X57731943Y-112663685D01*
X57572305Y-112719545D01*
X57572302Y-112719547D01*
X57429115Y-112809518D01*
X57429109Y-112809523D01*
X57309523Y-112929109D01*
X57309518Y-112929115D01*
X57219547Y-113072302D01*
X57219545Y-113072305D01*
X57163685Y-113231943D01*
X57144751Y-113399997D01*
X34500500Y-113399997D01*
X34500500Y-112599997D01*
X41044751Y-112599997D01*
X41044751Y-112600002D01*
X41063685Y-112768056D01*
X41119545Y-112927694D01*
X41119547Y-112927697D01*
X41209518Y-113070884D01*
X41209523Y-113070890D01*
X41329109Y-113190476D01*
X41329115Y-113190481D01*
X41472302Y-113280452D01*
X41472305Y-113280454D01*
X41472309Y-113280455D01*
X41472310Y-113280456D01*
X41544913Y-113305860D01*
X41631943Y-113336314D01*
X41799997Y-113355249D01*
X41800000Y-113355249D01*
X41800003Y-113355249D01*
X41968056Y-113336314D01*
X41968059Y-113336313D01*
X42127690Y-113280456D01*
X42127692Y-113280454D01*
X42127694Y-113280454D01*
X42127697Y-113280452D01*
X42270884Y-113190481D01*
X42270885Y-113190480D01*
X42270890Y-113190477D01*
X42390477Y-113070890D01*
X42479564Y-112929110D01*
X42480452Y-112927697D01*
X42480454Y-112927694D01*
X42480454Y-112927692D01*
X42480456Y-112927690D01*
X42536313Y-112768059D01*
X42536313Y-112768058D01*
X42536314Y-112768056D01*
X42555249Y-112600002D01*
X42555249Y-112599997D01*
X42536313Y-112431942D01*
X42535829Y-112430557D01*
X42535780Y-112429603D01*
X42534764Y-112425151D01*
X42535543Y-112424973D01*
X42532265Y-112360778D01*
X42566991Y-112300150D01*
X42628984Y-112267920D01*
X42698559Y-112274323D01*
X42740550Y-112301917D01*
X42829109Y-112390476D01*
X42829115Y-112390481D01*
X42972302Y-112480452D01*
X42972305Y-112480454D01*
X42972309Y-112480455D01*
X42972310Y-112480456D01*
X43044913Y-112505860D01*
X43131943Y-112536314D01*
X43299997Y-112555249D01*
X43300000Y-112555249D01*
X43300003Y-112555249D01*
X43468056Y-112536314D01*
X43468059Y-112536313D01*
X43627690Y-112480456D01*
X43627692Y-112480454D01*
X43627694Y-112480454D01*
X43627697Y-112480452D01*
X43770884Y-112390481D01*
X43770885Y-112390480D01*
X43770890Y-112390477D01*
X43890477Y-112270890D01*
X43979564Y-112129110D01*
X43980452Y-112127697D01*
X43980454Y-112127694D01*
X43980454Y-112127692D01*
X43980456Y-112127690D01*
X44036313Y-111968059D01*
X44036313Y-111968058D01*
X44036314Y-111968056D01*
X44055249Y-111800002D01*
X44055249Y-111799997D01*
X44036314Y-111631943D01*
X43980454Y-111472305D01*
X43980452Y-111472302D01*
X43890481Y-111329115D01*
X43890476Y-111329109D01*
X43770890Y-111209523D01*
X43770884Y-111209518D01*
X43627697Y-111119547D01*
X43627694Y-111119545D01*
X43468056Y-111063685D01*
X43300003Y-111044751D01*
X43299997Y-111044751D01*
X43131943Y-111063685D01*
X42972305Y-111119545D01*
X42972302Y-111119547D01*
X42829115Y-111209518D01*
X42829109Y-111209523D01*
X42709523Y-111329109D01*
X42709518Y-111329115D01*
X42619547Y-111472302D01*
X42619545Y-111472305D01*
X42563685Y-111631943D01*
X42544751Y-111799997D01*
X42544751Y-111800002D01*
X42563686Y-111968059D01*
X42563686Y-111968061D01*
X42564173Y-111969451D01*
X42564221Y-111970404D01*
X42565236Y-111974849D01*
X42564457Y-111975026D01*
X42567732Y-112039230D01*
X42533001Y-112099856D01*
X42471007Y-112132081D01*
X42401431Y-112125673D01*
X42359449Y-112098082D01*
X42270890Y-112009523D01*
X42270884Y-112009518D01*
X42127697Y-111919547D01*
X42127694Y-111919545D01*
X41968056Y-111863685D01*
X41800003Y-111844751D01*
X41799997Y-111844751D01*
X41631943Y-111863685D01*
X41472305Y-111919545D01*
X41472302Y-111919547D01*
X41329115Y-112009518D01*
X41329109Y-112009523D01*
X41209523Y-112129109D01*
X41209518Y-112129115D01*
X41119547Y-112272302D01*
X41119545Y-112272305D01*
X41063685Y-112431943D01*
X41044751Y-112599997D01*
X34500500Y-112599997D01*
X34500500Y-109949997D01*
X47944751Y-109949997D01*
X47944751Y-109950002D01*
X47963685Y-110118056D01*
X48019545Y-110277694D01*
X48019547Y-110277697D01*
X48109518Y-110420884D01*
X48109523Y-110420890D01*
X48229109Y-110540476D01*
X48229115Y-110540481D01*
X48372302Y-110630452D01*
X48372305Y-110630454D01*
X48372309Y-110630455D01*
X48372310Y-110630456D01*
X48404307Y-110641652D01*
X48531943Y-110686314D01*
X48699997Y-110705249D01*
X48700000Y-110705249D01*
X48700003Y-110705249D01*
X48868056Y-110686314D01*
X48868059Y-110686313D01*
X49027690Y-110630456D01*
X49027692Y-110630454D01*
X49027694Y-110630454D01*
X49027697Y-110630452D01*
X49076166Y-110599997D01*
X53444751Y-110599997D01*
X53444751Y-110600002D01*
X53463685Y-110768056D01*
X53519545Y-110927694D01*
X53519547Y-110927697D01*
X53609518Y-111070884D01*
X53609523Y-111070890D01*
X53729109Y-111190476D01*
X53729115Y-111190481D01*
X53872302Y-111280452D01*
X53872305Y-111280454D01*
X53872309Y-111280455D01*
X53872310Y-111280456D01*
X53944913Y-111305860D01*
X54031943Y-111336314D01*
X54199997Y-111355249D01*
X54200000Y-111355249D01*
X54200003Y-111355249D01*
X54368056Y-111336314D01*
X54368059Y-111336313D01*
X54527690Y-111280456D01*
X54527692Y-111280454D01*
X54527694Y-111280454D01*
X54527697Y-111280452D01*
X54670884Y-111190481D01*
X54670885Y-111190480D01*
X54670890Y-111190477D01*
X54790477Y-111070890D01*
X54795004Y-111063685D01*
X54880452Y-110927697D01*
X54880454Y-110927694D01*
X54880454Y-110927692D01*
X54880456Y-110927690D01*
X54936313Y-110768059D01*
X54936313Y-110768058D01*
X54936314Y-110768056D01*
X54955249Y-110600002D01*
X54955249Y-110599997D01*
X54936314Y-110431943D01*
X54886813Y-110290477D01*
X54880456Y-110272310D01*
X54880455Y-110272309D01*
X54880454Y-110272305D01*
X54880452Y-110272302D01*
X54790481Y-110129115D01*
X54790476Y-110129109D01*
X54670890Y-110009523D01*
X54670884Y-110009518D01*
X54527697Y-109919547D01*
X54527694Y-109919545D01*
X54368056Y-109863685D01*
X54200003Y-109844751D01*
X54199997Y-109844751D01*
X54031943Y-109863685D01*
X53872305Y-109919545D01*
X53872302Y-109919547D01*
X53729115Y-110009518D01*
X53729109Y-110009523D01*
X53609523Y-110129109D01*
X53609518Y-110129115D01*
X53519547Y-110272302D01*
X53519545Y-110272305D01*
X53463685Y-110431943D01*
X53444751Y-110599997D01*
X49076166Y-110599997D01*
X49170884Y-110540481D01*
X49170885Y-110540480D01*
X49170890Y-110540477D01*
X49290477Y-110420890D01*
X49336648Y-110347408D01*
X49388981Y-110301118D01*
X49458034Y-110290469D01*
X49507613Y-110308387D01*
X49589195Y-110359648D01*
X49622310Y-110380456D01*
X49737847Y-110420884D01*
X49781943Y-110436314D01*
X49949997Y-110455249D01*
X49950000Y-110455249D01*
X49950003Y-110455249D01*
X50118056Y-110436314D01*
X50130548Y-110431943D01*
X50277690Y-110380456D01*
X50277692Y-110380454D01*
X50277694Y-110380454D01*
X50277697Y-110380452D01*
X50420884Y-110290481D01*
X50420885Y-110290480D01*
X50420890Y-110290477D01*
X50540477Y-110170890D01*
X50566726Y-110129115D01*
X50630452Y-110027697D01*
X50630454Y-110027694D01*
X50630454Y-110027692D01*
X50630456Y-110027690D01*
X50686313Y-109868059D01*
X50686313Y-109868058D01*
X50686314Y-109868056D01*
X50705249Y-109700002D01*
X50705249Y-109699997D01*
X50686314Y-109531943D01*
X50630454Y-109372305D01*
X50630452Y-109372302D01*
X50540481Y-109229115D01*
X50540476Y-109229109D01*
X50420890Y-109109523D01*
X50420884Y-109109518D01*
X50277697Y-109019547D01*
X50277694Y-109019545D01*
X50118056Y-108963685D01*
X49950003Y-108944751D01*
X49949997Y-108944751D01*
X49781943Y-108963685D01*
X49622305Y-109019545D01*
X49622302Y-109019547D01*
X49479115Y-109109518D01*
X49479109Y-109109523D01*
X49359524Y-109229108D01*
X49313350Y-109302592D01*
X49261014Y-109348882D01*
X49191961Y-109359529D01*
X49142385Y-109341612D01*
X49027692Y-109269545D01*
X49027691Y-109269544D01*
X49027690Y-109269544D01*
X48989370Y-109256135D01*
X48868056Y-109213685D01*
X48700003Y-109194751D01*
X48699997Y-109194751D01*
X48531943Y-109213685D01*
X48372305Y-109269545D01*
X48372302Y-109269547D01*
X48229115Y-109359518D01*
X48229109Y-109359523D01*
X48109523Y-109479109D01*
X48109518Y-109479115D01*
X48019547Y-109622302D01*
X48019545Y-109622305D01*
X47963685Y-109781943D01*
X47944751Y-109949997D01*
X34500500Y-109949997D01*
X34500500Y-107499997D01*
X41644751Y-107499997D01*
X41644751Y-107500002D01*
X41663685Y-107668056D01*
X41719545Y-107827694D01*
X41719547Y-107827697D01*
X41809518Y-107970884D01*
X41809523Y-107970890D01*
X41929109Y-108090476D01*
X41929115Y-108090481D01*
X42072302Y-108180452D01*
X42072305Y-108180454D01*
X42072309Y-108180455D01*
X42072310Y-108180456D01*
X42144913Y-108205860D01*
X42231943Y-108236314D01*
X42399997Y-108255249D01*
X42400000Y-108255249D01*
X42400003Y-108255249D01*
X42568056Y-108236314D01*
X42568059Y-108236313D01*
X42603828Y-108223797D01*
X53244751Y-108223797D01*
X53244751Y-108223802D01*
X53263685Y-108391856D01*
X53319545Y-108551494D01*
X53319547Y-108551497D01*
X53409518Y-108694684D01*
X53409523Y-108694690D01*
X53529109Y-108814276D01*
X53529115Y-108814281D01*
X53672302Y-108904252D01*
X53672305Y-108904254D01*
X53672309Y-108904255D01*
X53672310Y-108904256D01*
X53744913Y-108929660D01*
X53831943Y-108960114D01*
X53999997Y-108979049D01*
X54000000Y-108979049D01*
X54000003Y-108979049D01*
X54168056Y-108960114D01*
X54211961Y-108944751D01*
X54327690Y-108904256D01*
X54327692Y-108904254D01*
X54327694Y-108904254D01*
X54327697Y-108904252D01*
X54470884Y-108814281D01*
X54470885Y-108814280D01*
X54470890Y-108814277D01*
X54590477Y-108694690D01*
X54591458Y-108693129D01*
X54680452Y-108551497D01*
X54680454Y-108551494D01*
X54680454Y-108551492D01*
X54680456Y-108551490D01*
X54736313Y-108391859D01*
X54736313Y-108391858D01*
X54736314Y-108391856D01*
X54755249Y-108223802D01*
X54755249Y-108223797D01*
X54736314Y-108055743D01*
X54734864Y-108051599D01*
X66080826Y-108051599D01*
X66080826Y-108051600D01*
X66099885Y-108269449D01*
X66099887Y-108269459D01*
X66156483Y-108480682D01*
X66156485Y-108480686D01*
X66156486Y-108480690D01*
X66164870Y-108498669D01*
X66248906Y-108678886D01*
X66258879Y-108693129D01*
X66374341Y-108858025D01*
X66528975Y-109012659D01*
X66708113Y-109138093D01*
X66906310Y-109230514D01*
X67117546Y-109287114D01*
X67291829Y-109302362D01*
X67335399Y-109306174D01*
X67335400Y-109306174D01*
X67335401Y-109306174D01*
X67376342Y-109302592D01*
X67553254Y-109287114D01*
X67764490Y-109230514D01*
X67962687Y-109138093D01*
X68141825Y-109012659D01*
X68296459Y-108858025D01*
X68421893Y-108678887D01*
X68514314Y-108480690D01*
X68570914Y-108269454D01*
X68589974Y-108051600D01*
X68589974Y-108051599D01*
X71160826Y-108051599D01*
X71160826Y-108051600D01*
X71179885Y-108269449D01*
X71179887Y-108269459D01*
X71236483Y-108480682D01*
X71236485Y-108480686D01*
X71236486Y-108480690D01*
X71244870Y-108498669D01*
X71328906Y-108678886D01*
X71338879Y-108693129D01*
X71454341Y-108858025D01*
X71608975Y-109012659D01*
X71788113Y-109138093D01*
X71986310Y-109230514D01*
X72197546Y-109287114D01*
X72371829Y-109302362D01*
X72415399Y-109306174D01*
X72415400Y-109306174D01*
X72415401Y-109306174D01*
X72456342Y-109302592D01*
X72633254Y-109287114D01*
X72844490Y-109230514D01*
X72985002Y-109164992D01*
X88062100Y-109164992D01*
X88062100Y-109817007D01*
X88101507Y-110015119D01*
X88101509Y-110015127D01*
X88178812Y-110201752D01*
X88178817Y-110201762D01*
X88291041Y-110369718D01*
X88433881Y-110512558D01*
X88601837Y-110624782D01*
X88601841Y-110624784D01*
X88601844Y-110624786D01*
X88788473Y-110702091D01*
X88954377Y-110735091D01*
X88986592Y-110741499D01*
X88986596Y-110741500D01*
X88986597Y-110741500D01*
X89188604Y-110741500D01*
X89188605Y-110741499D01*
X89386727Y-110702091D01*
X89573356Y-110624786D01*
X89653710Y-110571094D01*
X89720386Y-110550217D01*
X89787766Y-110568701D01*
X89791465Y-110571078D01*
X89871844Y-110624786D01*
X89871845Y-110624786D01*
X89871846Y-110624787D01*
X89885532Y-110630456D01*
X90058473Y-110702091D01*
X90224377Y-110735091D01*
X90256592Y-110741499D01*
X90256596Y-110741500D01*
X90256597Y-110741500D01*
X90458604Y-110741500D01*
X90458605Y-110741499D01*
X90656727Y-110702091D01*
X90737398Y-110668674D01*
X90806867Y-110661205D01*
X90852258Y-110680962D01*
X90852486Y-110680546D01*
X90857140Y-110683087D01*
X90859162Y-110683967D01*
X90860269Y-110684796D01*
X90860270Y-110684796D01*
X90860271Y-110684797D01*
X90995117Y-110735091D01*
X90995116Y-110735091D01*
X91002044Y-110735835D01*
X91054727Y-110741500D01*
X92200472Y-110741499D01*
X92260083Y-110735091D01*
X92394931Y-110684796D01*
X92510146Y-110598546D01*
X92596396Y-110483331D01*
X92646691Y-110348483D01*
X92653100Y-110288873D01*
X92653099Y-108693128D01*
X92646691Y-108633517D01*
X92638770Y-108612281D01*
X92596397Y-108498671D01*
X92596393Y-108498664D01*
X92510147Y-108383455D01*
X92510144Y-108383452D01*
X92394935Y-108297206D01*
X92394928Y-108297202D01*
X92260082Y-108246908D01*
X92260083Y-108246908D01*
X92200483Y-108240501D01*
X92200481Y-108240500D01*
X92200473Y-108240500D01*
X92200464Y-108240500D01*
X91054729Y-108240500D01*
X91054723Y-108240501D01*
X90995116Y-108246908D01*
X90860272Y-108297202D01*
X90860265Y-108297206D01*
X90859156Y-108298037D01*
X90857858Y-108298520D01*
X90852487Y-108301454D01*
X90852065Y-108300681D01*
X90793690Y-108322449D01*
X90737400Y-108313325D01*
X90656727Y-108279909D01*
X90656719Y-108279907D01*
X90458607Y-108240500D01*
X90458603Y-108240500D01*
X90256597Y-108240500D01*
X90256592Y-108240500D01*
X90058480Y-108279907D01*
X90058472Y-108279909D01*
X89871844Y-108357213D01*
X89791491Y-108410904D01*
X89724813Y-108431782D01*
X89657433Y-108413297D01*
X89653709Y-108410904D01*
X89573355Y-108357213D01*
X89386727Y-108279909D01*
X89386719Y-108279907D01*
X89188607Y-108240500D01*
X89188603Y-108240500D01*
X88986597Y-108240500D01*
X88986592Y-108240500D01*
X88788480Y-108279907D01*
X88788472Y-108279909D01*
X88601847Y-108357212D01*
X88601837Y-108357217D01*
X88433881Y-108469441D01*
X88291041Y-108612281D01*
X88178817Y-108780237D01*
X88178812Y-108780247D01*
X88101509Y-108966872D01*
X88101507Y-108966880D01*
X88062100Y-109164992D01*
X72985002Y-109164992D01*
X73042687Y-109138093D01*
X73221825Y-109012659D01*
X73376459Y-108858025D01*
X73501893Y-108678887D01*
X73594314Y-108480690D01*
X73650914Y-108269454D01*
X73669974Y-108051600D01*
X73650914Y-107833746D01*
X73594314Y-107622510D01*
X73501893Y-107424313D01*
X73376459Y-107245175D01*
X73221825Y-107090541D01*
X73042687Y-106965107D01*
X73042688Y-106965107D01*
X73042686Y-106965106D01*
X72923476Y-106909518D01*
X72844490Y-106872686D01*
X72844486Y-106872685D01*
X72844482Y-106872683D01*
X72633259Y-106816087D01*
X72633249Y-106816085D01*
X72415401Y-106797026D01*
X72415399Y-106797026D01*
X72197550Y-106816085D01*
X72197540Y-106816087D01*
X71986317Y-106872683D01*
X71986308Y-106872687D01*
X71788113Y-106965106D01*
X71696707Y-107029110D01*
X71608975Y-107090541D01*
X71608973Y-107090542D01*
X71608970Y-107090545D01*
X71454345Y-107245170D01*
X71328906Y-107424313D01*
X71236487Y-107622508D01*
X71236483Y-107622517D01*
X71179887Y-107833740D01*
X71179885Y-107833750D01*
X71160826Y-108051599D01*
X68589974Y-108051599D01*
X68570914Y-107833746D01*
X68514314Y-107622510D01*
X68421893Y-107424313D01*
X68296459Y-107245175D01*
X68141825Y-107090541D01*
X67962687Y-106965107D01*
X67962688Y-106965107D01*
X67962686Y-106965106D01*
X67843476Y-106909518D01*
X67764490Y-106872686D01*
X67764486Y-106872685D01*
X67764482Y-106872683D01*
X67553259Y-106816087D01*
X67553249Y-106816085D01*
X67335401Y-106797026D01*
X67335399Y-106797026D01*
X67117550Y-106816085D01*
X67117540Y-106816087D01*
X66906317Y-106872683D01*
X66906308Y-106872687D01*
X66708113Y-106965106D01*
X66616707Y-107029110D01*
X66528975Y-107090541D01*
X66528973Y-107090542D01*
X66528970Y-107090545D01*
X66374345Y-107245170D01*
X66248906Y-107424313D01*
X66156487Y-107622508D01*
X66156483Y-107622517D01*
X66099887Y-107833740D01*
X66099885Y-107833750D01*
X66080826Y-108051599D01*
X54734864Y-108051599D01*
X54680454Y-107896105D01*
X54680452Y-107896102D01*
X54590481Y-107752915D01*
X54590476Y-107752909D01*
X54470890Y-107633323D01*
X54470884Y-107633318D01*
X54327697Y-107543347D01*
X54327694Y-107543345D01*
X54168056Y-107487485D01*
X54000003Y-107468551D01*
X53999997Y-107468551D01*
X53831943Y-107487485D01*
X53672305Y-107543345D01*
X53672302Y-107543347D01*
X53529115Y-107633318D01*
X53529109Y-107633323D01*
X53409523Y-107752909D01*
X53409518Y-107752915D01*
X53319547Y-107896102D01*
X53319545Y-107896105D01*
X53263685Y-108055743D01*
X53244751Y-108223797D01*
X42603828Y-108223797D01*
X42727690Y-108180456D01*
X42727692Y-108180454D01*
X42727694Y-108180454D01*
X42727697Y-108180452D01*
X42870884Y-108090481D01*
X42870885Y-108090480D01*
X42870890Y-108090477D01*
X42990477Y-107970890D01*
X43037470Y-107896102D01*
X43080452Y-107827697D01*
X43080454Y-107827694D01*
X43080454Y-107827692D01*
X43080456Y-107827690D01*
X43136313Y-107668059D01*
X43136313Y-107668058D01*
X43136314Y-107668056D01*
X43155249Y-107500002D01*
X43155249Y-107499997D01*
X43136314Y-107331943D01*
X43080454Y-107172305D01*
X43080452Y-107172302D01*
X42990481Y-107029115D01*
X42990476Y-107029109D01*
X42870890Y-106909523D01*
X42870884Y-106909518D01*
X42727697Y-106819547D01*
X42727694Y-106819545D01*
X42568056Y-106763685D01*
X42400003Y-106744751D01*
X42399997Y-106744751D01*
X42231943Y-106763685D01*
X42072305Y-106819545D01*
X42072302Y-106819547D01*
X41929115Y-106909518D01*
X41929109Y-106909523D01*
X41809523Y-107029109D01*
X41809518Y-107029115D01*
X41719547Y-107172302D01*
X41719545Y-107172305D01*
X41663685Y-107331943D01*
X41644751Y-107499997D01*
X34500500Y-107499997D01*
X34500500Y-102749997D01*
X40094751Y-102749997D01*
X40094751Y-102750002D01*
X40113685Y-102918056D01*
X40169545Y-103077694D01*
X40169547Y-103077697D01*
X40259518Y-103220884D01*
X40259523Y-103220890D01*
X40379109Y-103340476D01*
X40379115Y-103340481D01*
X40522302Y-103430452D01*
X40522305Y-103430454D01*
X40522309Y-103430455D01*
X40522310Y-103430456D01*
X40558139Y-103442993D01*
X40681943Y-103486314D01*
X40849997Y-103505249D01*
X40850000Y-103505249D01*
X40850003Y-103505249D01*
X41018056Y-103486314D01*
X41018059Y-103486313D01*
X41177690Y-103430456D01*
X41177692Y-103430454D01*
X41177694Y-103430454D01*
X41177697Y-103430452D01*
X41320884Y-103340481D01*
X41320885Y-103340480D01*
X41320890Y-103340477D01*
X41440477Y-103220890D01*
X41440481Y-103220884D01*
X41530452Y-103077697D01*
X41530454Y-103077694D01*
X41530454Y-103077692D01*
X41530456Y-103077690D01*
X41586313Y-102918059D01*
X41586313Y-102918058D01*
X41586314Y-102918056D01*
X41605249Y-102750002D01*
X41605249Y-102749997D01*
X44544751Y-102749997D01*
X44544751Y-102750002D01*
X44563685Y-102918056D01*
X44619545Y-103077694D01*
X44619547Y-103077697D01*
X44709518Y-103220884D01*
X44709523Y-103220890D01*
X44829109Y-103340476D01*
X44829115Y-103340481D01*
X44972302Y-103430452D01*
X44972305Y-103430454D01*
X44972309Y-103430455D01*
X44972310Y-103430456D01*
X45008139Y-103442993D01*
X45131943Y-103486314D01*
X45299997Y-103505249D01*
X45300000Y-103505249D01*
X45338665Y-103500892D01*
X45407485Y-103512945D01*
X45458866Y-103560294D01*
X45476491Y-103627904D01*
X45469591Y-103665065D01*
X45463686Y-103681940D01*
X45444751Y-103849997D01*
X45444751Y-103850002D01*
X45463685Y-104018056D01*
X45519545Y-104177694D01*
X45519547Y-104177697D01*
X45609518Y-104320884D01*
X45609523Y-104320890D01*
X45729109Y-104440476D01*
X45729115Y-104440481D01*
X45872302Y-104530452D01*
X45872305Y-104530454D01*
X45872309Y-104530455D01*
X45872310Y-104530456D01*
X45910434Y-104543796D01*
X46031943Y-104586314D01*
X46199997Y-104605249D01*
X46200000Y-104605249D01*
X46200003Y-104605249D01*
X46368059Y-104586313D01*
X46368060Y-104586313D01*
X46509045Y-104536980D01*
X46578824Y-104533418D01*
X46590955Y-104536980D01*
X46731939Y-104586313D01*
X46899997Y-104605249D01*
X46900000Y-104605249D01*
X46900003Y-104605249D01*
X47068059Y-104586313D01*
X47068060Y-104586313D01*
X47209045Y-104536980D01*
X47278824Y-104533418D01*
X47290955Y-104536980D01*
X47431939Y-104586313D01*
X47599997Y-104605249D01*
X47600000Y-104605249D01*
X47600003Y-104605249D01*
X47768056Y-104586314D01*
X47768059Y-104586313D01*
X47927690Y-104530456D01*
X47927692Y-104530454D01*
X47927694Y-104530454D01*
X47927697Y-104530452D01*
X48070884Y-104440481D01*
X48070885Y-104440480D01*
X48070890Y-104440477D01*
X48190477Y-104320890D01*
X48190481Y-104320884D01*
X48280452Y-104177697D01*
X48280454Y-104177694D01*
X48280454Y-104177692D01*
X48280456Y-104177690D01*
X48336313Y-104018059D01*
X48336313Y-104018058D01*
X48336314Y-104018056D01*
X48355249Y-103850002D01*
X48355249Y-103849997D01*
X48336314Y-103681943D01*
X48280454Y-103522305D01*
X48280452Y-103522302D01*
X48190481Y-103379115D01*
X48190476Y-103379109D01*
X48070890Y-103259523D01*
X48070884Y-103259518D01*
X47927697Y-103169547D01*
X47927694Y-103169545D01*
X47768056Y-103113685D01*
X47600003Y-103094751D01*
X47599997Y-103094751D01*
X47431943Y-103113685D01*
X47290955Y-103163020D01*
X47221176Y-103166581D01*
X47209045Y-103163020D01*
X47068056Y-103113685D01*
X46900003Y-103094751D01*
X46899997Y-103094751D01*
X46731943Y-103113685D01*
X46590955Y-103163020D01*
X46521176Y-103166581D01*
X46509045Y-103163020D01*
X46368056Y-103113685D01*
X46200003Y-103094751D01*
X46199996Y-103094751D01*
X46161333Y-103099107D01*
X46092511Y-103087052D01*
X46041132Y-103039703D01*
X46023508Y-102972092D01*
X46030410Y-102934928D01*
X46036313Y-102918059D01*
X46055249Y-102750000D01*
X46055249Y-102749997D01*
X46036314Y-102581943D01*
X46017330Y-102527690D01*
X45980456Y-102422310D01*
X45980454Y-102422307D01*
X45980454Y-102422306D01*
X45936362Y-102352135D01*
X52784500Y-102352135D01*
X52784500Y-104147870D01*
X52784501Y-104147876D01*
X52790908Y-104207483D01*
X52841202Y-104342328D01*
X52841206Y-104342335D01*
X52927452Y-104457544D01*
X52927455Y-104457547D01*
X53042664Y-104543793D01*
X53042671Y-104543797D01*
X53177517Y-104594091D01*
X53177516Y-104594091D01*
X53184444Y-104594835D01*
X53237127Y-104600500D01*
X55032872Y-104600499D01*
X55092483Y-104594091D01*
X55227331Y-104543796D01*
X55342546Y-104457546D01*
X55428796Y-104342331D01*
X55478002Y-104210401D01*
X55519872Y-104154468D01*
X55585337Y-104130050D01*
X55653610Y-104144901D01*
X55681865Y-104166053D01*
X55803917Y-104288105D01*
X55997421Y-104423600D01*
X56211507Y-104523429D01*
X56211516Y-104523433D01*
X56425000Y-104580634D01*
X56425000Y-103683012D01*
X56482007Y-103715925D01*
X56609174Y-103750000D01*
X56740826Y-103750000D01*
X56867993Y-103715925D01*
X56925000Y-103683012D01*
X56925000Y-104580633D01*
X57138483Y-104523433D01*
X57138492Y-104523429D01*
X57352578Y-104423600D01*
X57546082Y-104288105D01*
X57713105Y-104121082D01*
X57848600Y-103927578D01*
X57948429Y-103713492D01*
X57948432Y-103713486D01*
X58005636Y-103500000D01*
X57108012Y-103500000D01*
X57140925Y-103442993D01*
X57175000Y-103315826D01*
X57175000Y-103184174D01*
X57140925Y-103057007D01*
X57108012Y-103000000D01*
X58005636Y-103000000D01*
X58005635Y-102999999D01*
X57948432Y-102786513D01*
X57948429Y-102786507D01*
X57848600Y-102572422D01*
X57848599Y-102572420D01*
X57713113Y-102378926D01*
X57713108Y-102378920D01*
X57546082Y-102211894D01*
X57529092Y-102199997D01*
X90944751Y-102199997D01*
X90944751Y-102200002D01*
X90963685Y-102368056D01*
X91019545Y-102527694D01*
X91019547Y-102527697D01*
X91109518Y-102670884D01*
X91109523Y-102670890D01*
X91229109Y-102790476D01*
X91229115Y-102790481D01*
X91372302Y-102880452D01*
X91372305Y-102880454D01*
X91372309Y-102880455D01*
X91372310Y-102880456D01*
X91444913Y-102905860D01*
X91531943Y-102936314D01*
X91699997Y-102955249D01*
X91700000Y-102955249D01*
X91700003Y-102955249D01*
X91868056Y-102936314D01*
X91920226Y-102918059D01*
X92027690Y-102880456D01*
X92027692Y-102880454D01*
X92027694Y-102880454D01*
X92027697Y-102880452D01*
X92170884Y-102790481D01*
X92170885Y-102790480D01*
X92170890Y-102790477D01*
X92290477Y-102670890D01*
X92290481Y-102670884D01*
X92380452Y-102527697D01*
X92380454Y-102527694D01*
X92380454Y-102527692D01*
X92380456Y-102527690D01*
X92436313Y-102368059D01*
X92436313Y-102368058D01*
X92436314Y-102368056D01*
X92455249Y-102200002D01*
X92455249Y-102199997D01*
X92436314Y-102031943D01*
X92380454Y-101872305D01*
X92380452Y-101872302D01*
X92290481Y-101729115D01*
X92290476Y-101729109D01*
X92170890Y-101609523D01*
X92170884Y-101609518D01*
X92027697Y-101519547D01*
X92027694Y-101519545D01*
X91868056Y-101463685D01*
X91700003Y-101444751D01*
X91699997Y-101444751D01*
X91531943Y-101463685D01*
X91372305Y-101519545D01*
X91372302Y-101519547D01*
X91229115Y-101609518D01*
X91229109Y-101609523D01*
X91109523Y-101729109D01*
X91109518Y-101729115D01*
X91019547Y-101872302D01*
X91019545Y-101872305D01*
X90963685Y-102031943D01*
X90944751Y-102199997D01*
X57529092Y-102199997D01*
X57352578Y-102076399D01*
X57138492Y-101976570D01*
X57138486Y-101976567D01*
X56925000Y-101919364D01*
X56925000Y-102816988D01*
X56867993Y-102784075D01*
X56740826Y-102750000D01*
X56609174Y-102750000D01*
X56482007Y-102784075D01*
X56425000Y-102816988D01*
X56425000Y-101919364D01*
X56424999Y-101919364D01*
X56211513Y-101976567D01*
X56211507Y-101976570D01*
X55997422Y-102076399D01*
X55997420Y-102076400D01*
X55803926Y-102211886D01*
X55681865Y-102333947D01*
X55620542Y-102367431D01*
X55550850Y-102362447D01*
X55494917Y-102320575D01*
X55478002Y-102289598D01*
X55474090Y-102279110D01*
X55444585Y-102200002D01*
X55428797Y-102157671D01*
X55428793Y-102157664D01*
X55342547Y-102042455D01*
X55342544Y-102042452D01*
X55227335Y-101956206D01*
X55227328Y-101956202D01*
X55092482Y-101905908D01*
X55092483Y-101905908D01*
X55032883Y-101899501D01*
X55032881Y-101899500D01*
X55032873Y-101899500D01*
X55032864Y-101899500D01*
X53237129Y-101899500D01*
X53237123Y-101899501D01*
X53177516Y-101905908D01*
X53042671Y-101956202D01*
X53042664Y-101956206D01*
X52927455Y-102042452D01*
X52927452Y-102042455D01*
X52841206Y-102157664D01*
X52841202Y-102157671D01*
X52790908Y-102292517D01*
X52784501Y-102352116D01*
X52784500Y-102352135D01*
X45936362Y-102352135D01*
X45920130Y-102326302D01*
X45901129Y-102259065D01*
X45921496Y-102192230D01*
X45974764Y-102147015D01*
X46039006Y-102137109D01*
X46105738Y-102144628D01*
X46199998Y-102155249D01*
X46200000Y-102155249D01*
X46200003Y-102155249D01*
X46368059Y-102136313D01*
X46368060Y-102136313D01*
X46509045Y-102086980D01*
X46578824Y-102083418D01*
X46590955Y-102086980D01*
X46731939Y-102136313D01*
X46899997Y-102155249D01*
X46900000Y-102155249D01*
X46900003Y-102155249D01*
X47068059Y-102136313D01*
X47068060Y-102136313D01*
X47209045Y-102086980D01*
X47278824Y-102083418D01*
X47290955Y-102086980D01*
X47431939Y-102136313D01*
X47599997Y-102155249D01*
X47600000Y-102155249D01*
X47600003Y-102155249D01*
X47768056Y-102136314D01*
X47768059Y-102136313D01*
X47927690Y-102080456D01*
X47927692Y-102080454D01*
X47927694Y-102080454D01*
X47927697Y-102080452D01*
X48070884Y-101990481D01*
X48070885Y-101990480D01*
X48070890Y-101990477D01*
X48190477Y-101870890D01*
X48279564Y-101729110D01*
X48280452Y-101727697D01*
X48280454Y-101727694D01*
X48280454Y-101727692D01*
X48280456Y-101727690D01*
X48336313Y-101568059D01*
X48336313Y-101568058D01*
X48336314Y-101568056D01*
X48355249Y-101400002D01*
X48355249Y-101399997D01*
X48336314Y-101231943D01*
X48283306Y-101080456D01*
X48280456Y-101072310D01*
X48280455Y-101072309D01*
X48280454Y-101072305D01*
X48280452Y-101072302D01*
X48190481Y-100929115D01*
X48190476Y-100929109D01*
X48070890Y-100809523D01*
X48070884Y-100809518D01*
X47927697Y-100719547D01*
X47927694Y-100719545D01*
X47768056Y-100663685D01*
X47600003Y-100644751D01*
X47599997Y-100644751D01*
X47431943Y-100663685D01*
X47290955Y-100713020D01*
X47221176Y-100716581D01*
X47209045Y-100713020D01*
X47068056Y-100663685D01*
X46900003Y-100644751D01*
X46899997Y-100644751D01*
X46731943Y-100663685D01*
X46590955Y-100713020D01*
X46521176Y-100716581D01*
X46509045Y-100713020D01*
X46368056Y-100663685D01*
X46200003Y-100644751D01*
X46199997Y-100644751D01*
X46031943Y-100663685D01*
X45872305Y-100719545D01*
X45872302Y-100719547D01*
X45729115Y-100809518D01*
X45729109Y-100809523D01*
X45609523Y-100929109D01*
X45609518Y-100929115D01*
X45519547Y-101072302D01*
X45519545Y-101072305D01*
X45463685Y-101231943D01*
X45444751Y-101399997D01*
X45444751Y-101400002D01*
X45463685Y-101568056D01*
X45519545Y-101727692D01*
X45579870Y-101823698D01*
X45598870Y-101890934D01*
X45578502Y-101957770D01*
X45525235Y-102002984D01*
X45460993Y-102012890D01*
X45300004Y-101994751D01*
X45299997Y-101994751D01*
X45131943Y-102013685D01*
X44972305Y-102069545D01*
X44972302Y-102069547D01*
X44829115Y-102159518D01*
X44829109Y-102159523D01*
X44709523Y-102279109D01*
X44709518Y-102279115D01*
X44619547Y-102422302D01*
X44619545Y-102422305D01*
X44563685Y-102581943D01*
X44544751Y-102749997D01*
X41605249Y-102749997D01*
X41586314Y-102581943D01*
X41530454Y-102422305D01*
X41530452Y-102422302D01*
X41440481Y-102279115D01*
X41440476Y-102279109D01*
X41320890Y-102159523D01*
X41320884Y-102159518D01*
X41177697Y-102069547D01*
X41177694Y-102069545D01*
X41018056Y-102013685D01*
X40850003Y-101994751D01*
X40849997Y-101994751D01*
X40681943Y-102013685D01*
X40522305Y-102069545D01*
X40522302Y-102069547D01*
X40379115Y-102159518D01*
X40379109Y-102159523D01*
X40259523Y-102279109D01*
X40259518Y-102279115D01*
X40169547Y-102422302D01*
X40169545Y-102422305D01*
X40113685Y-102581943D01*
X40094751Y-102749997D01*
X34500500Y-102749997D01*
X34500500Y-98599997D01*
X51544751Y-98599997D01*
X51544751Y-98600002D01*
X51563685Y-98768056D01*
X51619545Y-98927694D01*
X51619547Y-98927697D01*
X51709518Y-99070884D01*
X51709523Y-99070890D01*
X51829109Y-99190476D01*
X51829115Y-99190481D01*
X51972302Y-99280452D01*
X51972305Y-99280454D01*
X51972309Y-99280455D01*
X51972310Y-99280456D01*
X52044913Y-99305860D01*
X52131943Y-99336314D01*
X52299997Y-99355249D01*
X52300000Y-99355249D01*
X52300003Y-99355249D01*
X52468056Y-99336314D01*
X52468059Y-99336313D01*
X52627690Y-99280456D01*
X52627692Y-99280454D01*
X52627694Y-99280454D01*
X52627697Y-99280452D01*
X52770884Y-99190481D01*
X52770885Y-99190480D01*
X52770890Y-99190477D01*
X52890477Y-99070890D01*
X52897244Y-99060121D01*
X52980452Y-98927697D01*
X52980454Y-98927694D01*
X52980454Y-98927692D01*
X52980456Y-98927690D01*
X53036313Y-98768059D01*
X53036313Y-98768058D01*
X53036314Y-98768056D01*
X53055249Y-98600002D01*
X53055249Y-98599997D01*
X54944751Y-98599997D01*
X54944751Y-98600002D01*
X54963685Y-98768056D01*
X55019545Y-98927694D01*
X55019547Y-98927697D01*
X55109518Y-99070884D01*
X55109523Y-99070890D01*
X55229109Y-99190476D01*
X55229115Y-99190481D01*
X55372302Y-99280452D01*
X55372305Y-99280454D01*
X55372309Y-99280455D01*
X55372310Y-99280456D01*
X55444913Y-99305860D01*
X55531943Y-99336314D01*
X55699997Y-99355249D01*
X55700000Y-99355249D01*
X55700003Y-99355249D01*
X55868056Y-99336314D01*
X55868059Y-99336313D01*
X56027690Y-99280456D01*
X56027692Y-99280454D01*
X56027694Y-99280454D01*
X56027697Y-99280452D01*
X56170884Y-99190481D01*
X56170885Y-99190480D01*
X56170890Y-99190477D01*
X56290477Y-99070890D01*
X56297244Y-99060121D01*
X56380452Y-98927697D01*
X56380454Y-98927694D01*
X56380454Y-98927692D01*
X56380456Y-98927690D01*
X56436313Y-98768059D01*
X56436313Y-98768058D01*
X56436314Y-98768056D01*
X56455249Y-98600002D01*
X56455249Y-98599997D01*
X56436314Y-98431943D01*
X56380454Y-98272305D01*
X56380452Y-98272302D01*
X56290481Y-98129115D01*
X56290476Y-98129109D01*
X56170890Y-98009523D01*
X56170884Y-98009518D01*
X56027697Y-97919547D01*
X56027694Y-97919545D01*
X55947829Y-97891599D01*
X66080826Y-97891599D01*
X66080826Y-97891600D01*
X66099885Y-98109449D01*
X66099887Y-98109459D01*
X66156483Y-98320682D01*
X66156485Y-98320686D01*
X66156486Y-98320690D01*
X66186164Y-98384335D01*
X66248906Y-98518886D01*
X66273993Y-98554714D01*
X66374341Y-98698025D01*
X66528975Y-98852659D01*
X66708112Y-98978092D01*
X66708113Y-98978093D01*
X66860641Y-99049218D01*
X66913080Y-99095390D01*
X66932232Y-99162584D01*
X66912016Y-99229465D01*
X66860641Y-99273981D01*
X66846757Y-99280456D01*
X66708113Y-99345106D01*
X66589838Y-99427924D01*
X66528975Y-99470541D01*
X66528973Y-99470542D01*
X66528970Y-99470545D01*
X66374345Y-99625170D01*
X66248906Y-99804313D01*
X66156487Y-100002508D01*
X66156483Y-100002517D01*
X66099887Y-100213740D01*
X66099885Y-100213750D01*
X66080826Y-100431599D01*
X66080826Y-100431600D01*
X66099885Y-100649449D01*
X66099887Y-100649459D01*
X66156483Y-100860682D01*
X66156485Y-100860686D01*
X66156486Y-100860690D01*
X66188391Y-100929110D01*
X66248906Y-101058886D01*
X66248907Y-101058887D01*
X66374341Y-101238025D01*
X66528975Y-101392659D01*
X66708113Y-101518093D01*
X66906310Y-101610514D01*
X67117546Y-101667114D01*
X67291829Y-101682362D01*
X67335399Y-101686174D01*
X67335400Y-101686174D01*
X67335401Y-101686174D01*
X67371709Y-101682997D01*
X67553254Y-101667114D01*
X67764490Y-101610514D01*
X67962687Y-101518093D01*
X68141825Y-101392659D01*
X68296459Y-101238025D01*
X68421893Y-101058887D01*
X68514314Y-100860690D01*
X68570914Y-100649454D01*
X68589974Y-100431600D01*
X68587209Y-100400002D01*
X68570914Y-100213750D01*
X68570914Y-100213746D01*
X68514314Y-100002510D01*
X68421893Y-99804313D01*
X68296459Y-99625175D01*
X68141825Y-99470541D01*
X67962687Y-99345107D01*
X67810156Y-99273980D01*
X67757719Y-99227810D01*
X67738567Y-99160616D01*
X67758783Y-99093735D01*
X67810156Y-99049219D01*
X67962687Y-98978093D01*
X68141825Y-98852659D01*
X68296459Y-98698025D01*
X68421893Y-98518887D01*
X68514314Y-98320690D01*
X68570914Y-98109454D01*
X68589974Y-97891600D01*
X68589974Y-97891599D01*
X71160826Y-97891599D01*
X71160826Y-97891600D01*
X71179885Y-98109449D01*
X71179887Y-98109459D01*
X71236483Y-98320682D01*
X71236485Y-98320686D01*
X71236486Y-98320690D01*
X71266164Y-98384335D01*
X71328906Y-98518886D01*
X71353993Y-98554714D01*
X71454341Y-98698025D01*
X71608975Y-98852659D01*
X71788112Y-98978092D01*
X71788113Y-98978093D01*
X71940641Y-99049218D01*
X71993080Y-99095390D01*
X72012232Y-99162584D01*
X71992016Y-99229465D01*
X71940641Y-99273981D01*
X71926757Y-99280456D01*
X71788113Y-99345106D01*
X71669838Y-99427924D01*
X71608975Y-99470541D01*
X71608973Y-99470542D01*
X71608970Y-99470545D01*
X71454345Y-99625170D01*
X71328906Y-99804313D01*
X71236487Y-100002508D01*
X71236483Y-100002517D01*
X71179887Y-100213740D01*
X71179885Y-100213750D01*
X71160826Y-100431599D01*
X71160826Y-100431600D01*
X71179885Y-100649449D01*
X71179887Y-100649459D01*
X71236483Y-100860682D01*
X71236485Y-100860686D01*
X71236486Y-100860690D01*
X71268391Y-100929110D01*
X71328906Y-101058886D01*
X71328907Y-101058887D01*
X71454341Y-101238025D01*
X71608975Y-101392659D01*
X71788113Y-101518093D01*
X71986310Y-101610514D01*
X72197546Y-101667114D01*
X72371829Y-101682362D01*
X72415399Y-101686174D01*
X72415400Y-101686174D01*
X72415401Y-101686174D01*
X72451709Y-101682997D01*
X72633254Y-101667114D01*
X72844490Y-101610514D01*
X73042687Y-101518093D01*
X73221825Y-101392659D01*
X73376459Y-101238025D01*
X73501893Y-101058887D01*
X73594314Y-100860690D01*
X73650914Y-100649454D01*
X73669974Y-100431600D01*
X73667209Y-100400002D01*
X73667209Y-100399997D01*
X88644751Y-100399997D01*
X88644751Y-100400002D01*
X88663685Y-100568056D01*
X88719545Y-100727694D01*
X88719547Y-100727697D01*
X88809518Y-100870884D01*
X88809523Y-100870890D01*
X88929109Y-100990476D01*
X88929115Y-100990481D01*
X89072302Y-101080452D01*
X89072305Y-101080454D01*
X89072309Y-101080455D01*
X89072310Y-101080456D01*
X89144913Y-101105860D01*
X89231943Y-101136314D01*
X89399997Y-101155249D01*
X89400000Y-101155249D01*
X89400003Y-101155249D01*
X89568056Y-101136314D01*
X89568059Y-101136313D01*
X89727690Y-101080456D01*
X89727692Y-101080454D01*
X89727694Y-101080454D01*
X89727697Y-101080452D01*
X89870884Y-100990481D01*
X89870885Y-100990480D01*
X89870890Y-100990477D01*
X89990477Y-100870890D01*
X89990481Y-100870884D01*
X90080452Y-100727697D01*
X90080454Y-100727694D01*
X90080454Y-100727692D01*
X90080456Y-100727690D01*
X90136313Y-100568059D01*
X90136313Y-100568058D01*
X90136314Y-100568056D01*
X90155249Y-100400002D01*
X90155249Y-100399997D01*
X90136314Y-100231943D01*
X90080454Y-100072305D01*
X90080452Y-100072302D01*
X89990481Y-99929115D01*
X89990476Y-99929109D01*
X89870890Y-99809523D01*
X89870884Y-99809518D01*
X89727697Y-99719547D01*
X89727694Y-99719545D01*
X89568056Y-99663685D01*
X89400003Y-99644751D01*
X89399997Y-99644751D01*
X89231943Y-99663685D01*
X89072305Y-99719545D01*
X89072302Y-99719547D01*
X88929115Y-99809518D01*
X88929109Y-99809523D01*
X88809523Y-99929109D01*
X88809518Y-99929115D01*
X88719547Y-100072302D01*
X88719545Y-100072305D01*
X88663685Y-100231943D01*
X88644751Y-100399997D01*
X73667209Y-100399997D01*
X73650914Y-100213750D01*
X73650914Y-100213746D01*
X73594314Y-100002510D01*
X73501893Y-99804313D01*
X73376459Y-99625175D01*
X73351281Y-99599997D01*
X82444751Y-99599997D01*
X82444751Y-99600002D01*
X82463685Y-99768056D01*
X82519545Y-99927694D01*
X82519547Y-99927697D01*
X82609518Y-100070884D01*
X82609523Y-100070890D01*
X82729109Y-100190476D01*
X82729115Y-100190481D01*
X82872302Y-100280452D01*
X82872305Y-100280454D01*
X82872309Y-100280455D01*
X82872310Y-100280456D01*
X82944913Y-100305860D01*
X83031943Y-100336314D01*
X83199997Y-100355249D01*
X83200000Y-100355249D01*
X83200003Y-100355249D01*
X83368056Y-100336314D01*
X83368059Y-100336313D01*
X83527690Y-100280456D01*
X83527692Y-100280454D01*
X83527694Y-100280454D01*
X83527697Y-100280452D01*
X83670884Y-100190481D01*
X83670885Y-100190480D01*
X83670890Y-100190477D01*
X83790477Y-100070890D01*
X83833439Y-100002517D01*
X83880452Y-99927697D01*
X83880454Y-99927694D01*
X83880454Y-99927692D01*
X83880456Y-99927690D01*
X83936313Y-99768059D01*
X83936313Y-99768058D01*
X83936314Y-99768056D01*
X83955249Y-99600002D01*
X83955249Y-99599997D01*
X83936314Y-99431943D01*
X83883306Y-99280456D01*
X83880456Y-99272310D01*
X83880455Y-99272309D01*
X83880454Y-99272305D01*
X83880452Y-99272302D01*
X83790481Y-99129115D01*
X83790476Y-99129109D01*
X83670890Y-99009523D01*
X83670884Y-99009518D01*
X83527697Y-98919547D01*
X83527694Y-98919545D01*
X83368056Y-98863685D01*
X83200003Y-98844751D01*
X83199997Y-98844751D01*
X83031943Y-98863685D01*
X82872305Y-98919545D01*
X82872302Y-98919547D01*
X82729115Y-99009518D01*
X82729109Y-99009523D01*
X82609523Y-99129109D01*
X82609518Y-99129115D01*
X82519547Y-99272302D01*
X82519545Y-99272305D01*
X82463685Y-99431943D01*
X82444751Y-99599997D01*
X73351281Y-99599997D01*
X73221825Y-99470541D01*
X73042687Y-99345107D01*
X72890156Y-99273980D01*
X72837719Y-99227810D01*
X72818567Y-99160616D01*
X72838783Y-99093735D01*
X72890156Y-99049219D01*
X73042687Y-98978093D01*
X73221825Y-98852659D01*
X73376459Y-98698025D01*
X73501893Y-98518887D01*
X73594314Y-98320690D01*
X73650914Y-98109454D01*
X73669974Y-97891600D01*
X73661960Y-97799997D01*
X88644751Y-97799997D01*
X88644751Y-97800002D01*
X88663685Y-97968056D01*
X88719545Y-98127694D01*
X88719547Y-98127697D01*
X88809518Y-98270884D01*
X88809523Y-98270890D01*
X88929109Y-98390476D01*
X88929115Y-98390481D01*
X89072302Y-98480452D01*
X89072305Y-98480454D01*
X89072309Y-98480455D01*
X89072310Y-98480456D01*
X89144913Y-98505860D01*
X89231943Y-98536314D01*
X89399997Y-98555249D01*
X89400000Y-98555249D01*
X89400003Y-98555249D01*
X89568056Y-98536314D01*
X89568059Y-98536313D01*
X89727690Y-98480456D01*
X89727692Y-98480454D01*
X89727694Y-98480454D01*
X89727697Y-98480452D01*
X89870884Y-98390481D01*
X89870885Y-98390480D01*
X89870890Y-98390477D01*
X89990477Y-98270890D01*
X89990481Y-98270884D01*
X90080452Y-98127697D01*
X90080454Y-98127694D01*
X90080454Y-98127692D01*
X90080456Y-98127690D01*
X90136313Y-97968059D01*
X90136313Y-97968058D01*
X90136314Y-97968056D01*
X90155249Y-97800002D01*
X90155249Y-97799997D01*
X90136314Y-97631943D01*
X90105860Y-97544913D01*
X90080456Y-97472310D01*
X90080455Y-97472309D01*
X90080454Y-97472305D01*
X90080452Y-97472302D01*
X89990481Y-97329115D01*
X89990476Y-97329109D01*
X89870890Y-97209523D01*
X89870884Y-97209518D01*
X89727697Y-97119547D01*
X89727694Y-97119545D01*
X89568056Y-97063685D01*
X89400003Y-97044751D01*
X89399997Y-97044751D01*
X89231943Y-97063685D01*
X89072305Y-97119545D01*
X89072302Y-97119547D01*
X88929115Y-97209518D01*
X88929109Y-97209523D01*
X88809523Y-97329109D01*
X88809518Y-97329115D01*
X88719547Y-97472302D01*
X88719545Y-97472305D01*
X88663685Y-97631943D01*
X88644751Y-97799997D01*
X73661960Y-97799997D01*
X73650914Y-97673746D01*
X73594314Y-97462510D01*
X73501893Y-97264313D01*
X73376459Y-97085175D01*
X73221825Y-96930541D01*
X73042687Y-96805107D01*
X73042688Y-96805107D01*
X73042686Y-96805106D01*
X72943588Y-96758896D01*
X72844490Y-96712686D01*
X72844486Y-96712685D01*
X72844482Y-96712683D01*
X72633259Y-96656087D01*
X72633249Y-96656085D01*
X72415401Y-96637026D01*
X72415399Y-96637026D01*
X72197550Y-96656085D01*
X72197540Y-96656087D01*
X71986317Y-96712683D01*
X71986308Y-96712687D01*
X71788113Y-96805106D01*
X71683266Y-96878522D01*
X71608975Y-96930541D01*
X71608973Y-96930542D01*
X71608970Y-96930545D01*
X71454345Y-97085170D01*
X71454342Y-97085173D01*
X71454341Y-97085175D01*
X71412590Y-97144801D01*
X71328906Y-97264313D01*
X71236487Y-97462508D01*
X71236483Y-97462517D01*
X71179887Y-97673740D01*
X71179885Y-97673750D01*
X71160826Y-97891599D01*
X68589974Y-97891599D01*
X68570914Y-97673746D01*
X68514314Y-97462510D01*
X68421893Y-97264313D01*
X68296459Y-97085175D01*
X68141825Y-96930541D01*
X67962687Y-96805107D01*
X67962688Y-96805107D01*
X67962686Y-96805106D01*
X67863588Y-96758896D01*
X67764490Y-96712686D01*
X67764486Y-96712685D01*
X67764482Y-96712683D01*
X67553259Y-96656087D01*
X67553249Y-96656085D01*
X67335401Y-96637026D01*
X67335399Y-96637026D01*
X67117550Y-96656085D01*
X67117540Y-96656087D01*
X66906317Y-96712683D01*
X66906308Y-96712687D01*
X66708113Y-96805106D01*
X66603266Y-96878522D01*
X66528975Y-96930541D01*
X66528973Y-96930542D01*
X66528970Y-96930545D01*
X66374345Y-97085170D01*
X66374342Y-97085173D01*
X66374341Y-97085175D01*
X66332590Y-97144801D01*
X66248906Y-97264313D01*
X66156487Y-97462508D01*
X66156483Y-97462517D01*
X66099887Y-97673740D01*
X66099885Y-97673750D01*
X66080826Y-97891599D01*
X55947829Y-97891599D01*
X55868056Y-97863685D01*
X55700003Y-97844751D01*
X55699997Y-97844751D01*
X55531943Y-97863685D01*
X55372305Y-97919545D01*
X55372302Y-97919547D01*
X55229115Y-98009518D01*
X55229109Y-98009523D01*
X55109523Y-98129109D01*
X55109518Y-98129115D01*
X55019547Y-98272302D01*
X55019545Y-98272305D01*
X54963685Y-98431943D01*
X54944751Y-98599997D01*
X53055249Y-98599997D01*
X53036314Y-98431943D01*
X52980454Y-98272305D01*
X52980452Y-98272302D01*
X52890481Y-98129115D01*
X52890476Y-98129109D01*
X52770890Y-98009523D01*
X52770884Y-98009518D01*
X52627697Y-97919547D01*
X52627694Y-97919545D01*
X52468056Y-97863685D01*
X52300003Y-97844751D01*
X52299997Y-97844751D01*
X52131943Y-97863685D01*
X51972305Y-97919545D01*
X51972302Y-97919547D01*
X51829115Y-98009518D01*
X51829109Y-98009523D01*
X51709523Y-98129109D01*
X51709518Y-98129115D01*
X51619547Y-98272302D01*
X51619545Y-98272305D01*
X51563685Y-98431943D01*
X51544751Y-98599997D01*
X34500500Y-98599997D01*
X34500500Y-94800000D01*
X94995065Y-94800000D01*
X95014786Y-95126038D01*
X95073667Y-95447341D01*
X95170835Y-95759164D01*
X95170839Y-95759175D01*
X95304897Y-96057041D01*
X95304898Y-96057043D01*
X95473881Y-96336576D01*
X95621476Y-96524968D01*
X96763708Y-95382736D01*
X96860967Y-95516602D01*
X96983398Y-95639033D01*
X97117262Y-95736290D01*
X95975030Y-96878522D01*
X95975030Y-96878523D01*
X96163423Y-97026118D01*
X96442956Y-97195101D01*
X96442958Y-97195102D01*
X96740824Y-97329160D01*
X96740835Y-97329164D01*
X97052658Y-97426332D01*
X97373961Y-97485213D01*
X97700000Y-97504934D01*
X98026038Y-97485213D01*
X98347341Y-97426332D01*
X98659164Y-97329164D01*
X98659175Y-97329160D01*
X98957041Y-97195102D01*
X98957043Y-97195101D01*
X99236586Y-97026112D01*
X99424968Y-96878523D01*
X99424968Y-96878522D01*
X98282737Y-95736290D01*
X98416602Y-95639033D01*
X98539033Y-95516602D01*
X98636290Y-95382737D01*
X99778522Y-96524968D01*
X99778523Y-96524968D01*
X99926112Y-96336586D01*
X100095101Y-96057043D01*
X100095102Y-96057041D01*
X100229160Y-95759175D01*
X100229164Y-95759164D01*
X100326332Y-95447341D01*
X100385213Y-95126038D01*
X100404934Y-94800000D01*
X100385213Y-94473961D01*
X100326332Y-94152658D01*
X100229164Y-93840835D01*
X100229160Y-93840824D01*
X100095102Y-93542958D01*
X100095101Y-93542956D01*
X99926118Y-93263423D01*
X99778522Y-93075030D01*
X98636290Y-94217262D01*
X98539033Y-94083398D01*
X98416602Y-93960967D01*
X98282736Y-93863709D01*
X99424968Y-92721476D01*
X99236576Y-92573881D01*
X98957043Y-92404898D01*
X98957041Y-92404897D01*
X98659175Y-92270839D01*
X98659164Y-92270835D01*
X98347341Y-92173667D01*
X98026038Y-92114786D01*
X97700000Y-92095065D01*
X97373961Y-92114786D01*
X97052658Y-92173667D01*
X96740835Y-92270835D01*
X96740824Y-92270839D01*
X96442958Y-92404897D01*
X96442956Y-92404898D01*
X96163422Y-92573881D01*
X96163416Y-92573886D01*
X95975030Y-92721474D01*
X95975029Y-92721476D01*
X97117262Y-93863709D01*
X96983398Y-93960967D01*
X96860967Y-94083398D01*
X96763709Y-94217262D01*
X95621476Y-93075029D01*
X95621474Y-93075030D01*
X95473886Y-93263416D01*
X95473881Y-93263422D01*
X95304898Y-93542956D01*
X95304897Y-93542958D01*
X95170839Y-93840824D01*
X95170835Y-93840835D01*
X95073667Y-94152658D01*
X95014786Y-94473961D01*
X94995065Y-94800000D01*
X34500500Y-94800000D01*
X34500500Y-93749997D01*
X84244751Y-93749997D01*
X84244751Y-93750002D01*
X84263685Y-93918056D01*
X84319545Y-94077694D01*
X84319547Y-94077697D01*
X84409518Y-94220884D01*
X84409523Y-94220890D01*
X84529109Y-94340476D01*
X84529115Y-94340481D01*
X84672302Y-94430452D01*
X84672305Y-94430454D01*
X84672309Y-94430455D01*
X84672310Y-94430456D01*
X84718007Y-94446446D01*
X84831943Y-94486314D01*
X84999997Y-94505249D01*
X85000000Y-94505249D01*
X85000003Y-94505249D01*
X85168056Y-94486314D01*
X85203359Y-94473961D01*
X85327690Y-94430456D01*
X85327692Y-94430454D01*
X85327694Y-94430454D01*
X85327697Y-94430452D01*
X85470884Y-94340481D01*
X85470885Y-94340480D01*
X85470890Y-94340477D01*
X85590477Y-94220890D01*
X85590481Y-94220884D01*
X85680452Y-94077697D01*
X85680454Y-94077694D01*
X85680454Y-94077692D01*
X85680456Y-94077690D01*
X85736313Y-93918059D01*
X85736313Y-93918058D01*
X85736314Y-93918056D01*
X85755249Y-93750002D01*
X85755249Y-93749997D01*
X85736314Y-93581943D01*
X85680454Y-93422305D01*
X85680452Y-93422302D01*
X85590481Y-93279115D01*
X85590476Y-93279109D01*
X85470890Y-93159523D01*
X85470884Y-93159518D01*
X85327697Y-93069547D01*
X85327694Y-93069545D01*
X85168056Y-93013685D01*
X85000003Y-92994751D01*
X84999997Y-92994751D01*
X84831943Y-93013685D01*
X84672305Y-93069545D01*
X84672302Y-93069547D01*
X84529115Y-93159518D01*
X84529109Y-93159523D01*
X84409523Y-93279109D01*
X84409518Y-93279115D01*
X84319547Y-93422302D01*
X84319545Y-93422305D01*
X84263685Y-93581943D01*
X84244751Y-93749997D01*
X34500500Y-93749997D01*
X34500500Y-92049997D01*
X35994751Y-92049997D01*
X35994751Y-92050002D01*
X36013685Y-92218056D01*
X36069544Y-92377691D01*
X36097089Y-92421529D01*
X36116088Y-92488766D01*
X36097089Y-92553471D01*
X36069544Y-92597308D01*
X36013685Y-92756943D01*
X35994751Y-92924997D01*
X35994751Y-92925002D01*
X36013685Y-93093056D01*
X36069545Y-93252694D01*
X36069547Y-93252697D01*
X36159518Y-93395884D01*
X36159523Y-93395890D01*
X36279109Y-93515476D01*
X36279115Y-93515481D01*
X36422302Y-93605452D01*
X36422305Y-93605454D01*
X36422309Y-93605455D01*
X36422310Y-93605456D01*
X36494913Y-93630860D01*
X36581943Y-93661314D01*
X36749997Y-93680249D01*
X36750000Y-93680249D01*
X36750003Y-93680249D01*
X36918056Y-93661314D01*
X36918059Y-93661313D01*
X37077690Y-93605456D01*
X37077692Y-93605454D01*
X37077694Y-93605454D01*
X37077697Y-93605452D01*
X37220884Y-93515481D01*
X37220885Y-93515480D01*
X37220890Y-93515477D01*
X37340477Y-93395890D01*
X37423713Y-93263422D01*
X37430452Y-93252697D01*
X37430454Y-93252694D01*
X37430454Y-93252692D01*
X37430456Y-93252690D01*
X37486313Y-93093059D01*
X37486313Y-93093058D01*
X37486314Y-93093056D01*
X37505249Y-92925002D01*
X37505249Y-92924997D01*
X37486313Y-92756942D01*
X37473903Y-92721474D01*
X37430456Y-92597310D01*
X37402910Y-92553471D01*
X37383910Y-92486237D01*
X37402910Y-92421528D01*
X37430456Y-92377690D01*
X37486313Y-92218059D01*
X37505249Y-92050000D01*
X37503707Y-92036313D01*
X37486314Y-91881943D01*
X37430454Y-91722305D01*
X37430452Y-91722302D01*
X37340481Y-91579115D01*
X37340476Y-91579109D01*
X37220890Y-91459523D01*
X37220884Y-91459518D01*
X37077697Y-91369547D01*
X37077694Y-91369545D01*
X36918056Y-91313685D01*
X36796565Y-91299997D01*
X44144751Y-91299997D01*
X44144751Y-91300002D01*
X44163685Y-91468056D01*
X44219545Y-91627694D01*
X44219547Y-91627697D01*
X44309518Y-91770884D01*
X44309523Y-91770890D01*
X44429109Y-91890476D01*
X44429115Y-91890481D01*
X44572302Y-91980452D01*
X44572305Y-91980454D01*
X44572309Y-91980455D01*
X44572310Y-91980456D01*
X44643616Y-92005407D01*
X44731943Y-92036314D01*
X44899997Y-92055249D01*
X44900000Y-92055249D01*
X44900003Y-92055249D01*
X45068056Y-92036314D01*
X45068059Y-92036313D01*
X45227690Y-91980456D01*
X45227692Y-91980454D01*
X45227694Y-91980454D01*
X45227697Y-91980452D01*
X45370884Y-91890481D01*
X45370885Y-91890480D01*
X45370890Y-91890477D01*
X45490477Y-91770890D01*
X45577877Y-91631795D01*
X45580452Y-91627697D01*
X45580454Y-91627694D01*
X45580454Y-91627692D01*
X45580456Y-91627690D01*
X45636313Y-91468059D01*
X45636313Y-91468058D01*
X45636314Y-91468056D01*
X45655249Y-91300002D01*
X45655249Y-91299997D01*
X45636314Y-91131943D01*
X45580454Y-90972305D01*
X45580452Y-90972302D01*
X45490481Y-90829115D01*
X45490476Y-90829109D01*
X45370890Y-90709523D01*
X45370884Y-90709518D01*
X45227697Y-90619547D01*
X45227694Y-90619545D01*
X45068056Y-90563685D01*
X44900003Y-90544751D01*
X44899997Y-90544751D01*
X44731943Y-90563685D01*
X44572305Y-90619545D01*
X44572302Y-90619547D01*
X44429115Y-90709518D01*
X44429109Y-90709523D01*
X44309523Y-90829109D01*
X44309518Y-90829115D01*
X44219547Y-90972302D01*
X44219545Y-90972305D01*
X44163685Y-91131943D01*
X44144751Y-91299997D01*
X36796565Y-91299997D01*
X36750003Y-91294751D01*
X36749997Y-91294751D01*
X36581943Y-91313685D01*
X36422305Y-91369545D01*
X36422302Y-91369547D01*
X36279115Y-91459518D01*
X36279109Y-91459523D01*
X36159523Y-91579109D01*
X36159518Y-91579115D01*
X36069547Y-91722302D01*
X36069545Y-91722305D01*
X36013685Y-91881943D01*
X35994751Y-92049997D01*
X34500500Y-92049997D01*
X34500500Y-87299997D01*
X67844751Y-87299997D01*
X67844751Y-87300002D01*
X67863685Y-87468056D01*
X67919545Y-87627694D01*
X67919547Y-87627697D01*
X68009518Y-87770884D01*
X68009523Y-87770890D01*
X68129109Y-87890476D01*
X68129115Y-87890481D01*
X68272302Y-87980452D01*
X68272305Y-87980454D01*
X68272309Y-87980455D01*
X68272310Y-87980456D01*
X68344913Y-88005860D01*
X68431943Y-88036314D01*
X68599997Y-88055249D01*
X68600000Y-88055249D01*
X68600003Y-88055249D01*
X68768056Y-88036314D01*
X68789653Y-88028757D01*
X68927690Y-87980456D01*
X68927692Y-87980454D01*
X68927694Y-87980454D01*
X68927697Y-87980452D01*
X69070884Y-87890481D01*
X69070885Y-87890480D01*
X69070890Y-87890477D01*
X69190477Y-87770890D01*
X69190481Y-87770884D01*
X69280452Y-87627697D01*
X69280454Y-87627694D01*
X69280454Y-87627692D01*
X69280456Y-87627690D01*
X69336313Y-87468059D01*
X69336313Y-87468058D01*
X69336314Y-87468056D01*
X69355249Y-87300002D01*
X69355249Y-87299997D01*
X69336314Y-87131943D01*
X69280454Y-86972305D01*
X69280452Y-86972302D01*
X69190481Y-86829115D01*
X69190476Y-86829109D01*
X69070890Y-86709523D01*
X69070884Y-86709518D01*
X68927697Y-86619547D01*
X68927694Y-86619545D01*
X68768056Y-86563685D01*
X68600003Y-86544751D01*
X68599997Y-86544751D01*
X68431943Y-86563685D01*
X68272305Y-86619545D01*
X68272302Y-86619547D01*
X68129115Y-86709518D01*
X68129109Y-86709523D01*
X68009523Y-86829109D01*
X68009518Y-86829115D01*
X67919547Y-86972302D01*
X67919545Y-86972305D01*
X67863685Y-87131943D01*
X67844751Y-87299997D01*
X34500500Y-87299997D01*
X34500500Y-84665030D01*
X40003000Y-84665030D01*
X40003000Y-84871969D01*
X40043368Y-85074912D01*
X40043370Y-85074920D01*
X40122558Y-85266096D01*
X40237524Y-85438157D01*
X40383842Y-85584475D01*
X40383845Y-85584477D01*
X40555902Y-85699441D01*
X40747080Y-85778630D01*
X40950030Y-85818999D01*
X40950034Y-85819000D01*
X40950035Y-85819000D01*
X41156966Y-85819000D01*
X41156967Y-85818999D01*
X41359920Y-85778630D01*
X41551098Y-85699441D01*
X41723155Y-85584477D01*
X41869477Y-85438155D01*
X41984441Y-85266098D01*
X42063630Y-85074920D01*
X42104000Y-84871965D01*
X42104000Y-84665035D01*
X42103999Y-84665030D01*
X47003000Y-84665030D01*
X47003000Y-84871969D01*
X47043368Y-85074912D01*
X47043370Y-85074920D01*
X47122558Y-85266096D01*
X47237524Y-85438157D01*
X47383842Y-85584475D01*
X47383845Y-85584477D01*
X47555902Y-85699441D01*
X47747080Y-85778630D01*
X47950030Y-85818999D01*
X47950034Y-85819000D01*
X47950035Y-85819000D01*
X48156966Y-85819000D01*
X48156967Y-85818999D01*
X48359920Y-85778630D01*
X48551098Y-85699441D01*
X48723155Y-85584477D01*
X48869477Y-85438155D01*
X48984441Y-85266098D01*
X49063630Y-85074920D01*
X49104000Y-84871965D01*
X49104000Y-84665035D01*
X49063630Y-84462080D01*
X48984441Y-84270902D01*
X48869477Y-84098845D01*
X48869475Y-84098842D01*
X48723157Y-83952524D01*
X48637126Y-83895041D01*
X48551098Y-83837559D01*
X48465734Y-83802200D01*
X48359920Y-83758370D01*
X48359912Y-83758368D01*
X48156969Y-83718000D01*
X48156965Y-83718000D01*
X47950035Y-83718000D01*
X47950030Y-83718000D01*
X47747087Y-83758368D01*
X47747079Y-83758370D01*
X47555903Y-83837558D01*
X47383842Y-83952524D01*
X47237524Y-84098842D01*
X47122558Y-84270903D01*
X47043370Y-84462079D01*
X47043368Y-84462087D01*
X47003000Y-84665030D01*
X42103999Y-84665030D01*
X42063630Y-84462080D01*
X41984441Y-84270902D01*
X41869477Y-84098845D01*
X41869475Y-84098842D01*
X41723157Y-83952524D01*
X41637126Y-83895041D01*
X41551098Y-83837559D01*
X41465734Y-83802200D01*
X41359920Y-83758370D01*
X41359912Y-83758368D01*
X41156969Y-83718000D01*
X41156965Y-83718000D01*
X40950035Y-83718000D01*
X40950030Y-83718000D01*
X40747087Y-83758368D01*
X40747079Y-83758370D01*
X40555903Y-83837558D01*
X40383842Y-83952524D01*
X40237524Y-84098842D01*
X40122558Y-84270903D01*
X40043370Y-84462079D01*
X40043368Y-84462087D01*
X40003000Y-84665030D01*
X34500500Y-84665030D01*
X34500500Y-81049997D01*
X88094751Y-81049997D01*
X88094751Y-81050002D01*
X88113685Y-81218056D01*
X88169545Y-81377694D01*
X88169547Y-81377697D01*
X88259518Y-81520884D01*
X88259523Y-81520890D01*
X88379109Y-81640476D01*
X88379115Y-81640481D01*
X88522302Y-81730452D01*
X88522305Y-81730454D01*
X88522309Y-81730455D01*
X88522310Y-81730456D01*
X88594913Y-81755860D01*
X88681943Y-81786314D01*
X88849997Y-81805249D01*
X88850000Y-81805249D01*
X88850003Y-81805249D01*
X89018056Y-81786314D01*
X89018059Y-81786313D01*
X89177690Y-81730456D01*
X89177692Y-81730454D01*
X89177694Y-81730454D01*
X89177697Y-81730452D01*
X89320884Y-81640481D01*
X89320885Y-81640480D01*
X89320890Y-81640477D01*
X89440477Y-81520890D01*
X89530452Y-81377697D01*
X89530454Y-81377694D01*
X89530454Y-81377692D01*
X89530456Y-81377690D01*
X89586313Y-81218059D01*
X89586313Y-81218058D01*
X89586314Y-81218056D01*
X89605249Y-81050002D01*
X89605249Y-81049997D01*
X89586314Y-80881943D01*
X89530454Y-80722305D01*
X89530452Y-80722302D01*
X89440481Y-80579115D01*
X89440476Y-80579109D01*
X89320890Y-80459523D01*
X89320884Y-80459518D01*
X89177697Y-80369547D01*
X89177694Y-80369545D01*
X89018056Y-80313685D01*
X88850003Y-80294751D01*
X88849997Y-80294751D01*
X88681943Y-80313685D01*
X88522305Y-80369545D01*
X88522302Y-80369547D01*
X88379115Y-80459518D01*
X88379109Y-80459523D01*
X88259523Y-80579109D01*
X88259518Y-80579115D01*
X88169547Y-80722302D01*
X88169545Y-80722305D01*
X88113685Y-80881943D01*
X88094751Y-81049997D01*
X34500500Y-81049997D01*
X34500500Y-79149997D01*
X88194751Y-79149997D01*
X88194751Y-79150002D01*
X88213685Y-79318056D01*
X88269545Y-79477694D01*
X88269547Y-79477697D01*
X88359518Y-79620884D01*
X88359523Y-79620890D01*
X88479109Y-79740476D01*
X88479115Y-79740481D01*
X88622302Y-79830452D01*
X88622305Y-79830454D01*
X88622309Y-79830455D01*
X88622310Y-79830456D01*
X88694913Y-79855860D01*
X88781943Y-79886314D01*
X88949997Y-79905249D01*
X88950000Y-79905249D01*
X88950003Y-79905249D01*
X89118056Y-79886314D01*
X89118059Y-79886313D01*
X89277690Y-79830456D01*
X89277692Y-79830454D01*
X89277694Y-79830454D01*
X89277697Y-79830452D01*
X89420884Y-79740481D01*
X89420885Y-79740480D01*
X89420890Y-79740477D01*
X89540477Y-79620890D01*
X89630452Y-79477697D01*
X89630454Y-79477694D01*
X89630454Y-79477692D01*
X89630456Y-79477690D01*
X89686313Y-79318059D01*
X89686313Y-79318058D01*
X89686314Y-79318056D01*
X89705249Y-79150002D01*
X89705249Y-79149997D01*
X89686314Y-78981943D01*
X89630454Y-78822305D01*
X89630452Y-78822302D01*
X89540481Y-78679115D01*
X89540476Y-78679109D01*
X89420890Y-78559523D01*
X89420884Y-78559518D01*
X89277697Y-78469547D01*
X89277694Y-78469545D01*
X89118056Y-78413685D01*
X88950003Y-78394751D01*
X88949997Y-78394751D01*
X88781943Y-78413685D01*
X88622305Y-78469545D01*
X88622302Y-78469547D01*
X88479115Y-78559518D01*
X88479109Y-78559523D01*
X88359523Y-78679109D01*
X88359518Y-78679115D01*
X88269547Y-78822302D01*
X88269545Y-78822305D01*
X88213685Y-78981943D01*
X88194751Y-79149997D01*
X34500500Y-79149997D01*
X34500500Y-76799997D01*
X88144751Y-76799997D01*
X88144751Y-76800002D01*
X88163685Y-76968056D01*
X88219545Y-77127694D01*
X88219547Y-77127697D01*
X88309518Y-77270884D01*
X88309523Y-77270890D01*
X88429109Y-77390476D01*
X88429115Y-77390481D01*
X88572302Y-77480452D01*
X88572305Y-77480454D01*
X88572309Y-77480455D01*
X88572310Y-77480456D01*
X88644913Y-77505860D01*
X88731943Y-77536314D01*
X88899997Y-77555249D01*
X88900000Y-77555249D01*
X88900003Y-77555249D01*
X89068056Y-77536314D01*
X89068059Y-77536313D01*
X89227690Y-77480456D01*
X89227692Y-77480454D01*
X89227694Y-77480454D01*
X89227697Y-77480452D01*
X89370884Y-77390481D01*
X89370885Y-77390480D01*
X89370890Y-77390477D01*
X89490477Y-77270890D01*
X89580452Y-77127697D01*
X89580454Y-77127694D01*
X89580454Y-77127692D01*
X89580456Y-77127690D01*
X89636313Y-76968059D01*
X89636313Y-76968058D01*
X89636314Y-76968056D01*
X89655249Y-76800002D01*
X89655249Y-76799997D01*
X89636314Y-76631943D01*
X89580454Y-76472305D01*
X89580452Y-76472302D01*
X89490481Y-76329115D01*
X89490476Y-76329109D01*
X89370890Y-76209523D01*
X89370884Y-76209518D01*
X89227697Y-76119547D01*
X89227694Y-76119545D01*
X89068056Y-76063685D01*
X88900003Y-76044751D01*
X88899997Y-76044751D01*
X88731943Y-76063685D01*
X88572305Y-76119545D01*
X88572302Y-76119547D01*
X88429115Y-76209518D01*
X88429109Y-76209523D01*
X88309523Y-76329109D01*
X88309518Y-76329115D01*
X88219547Y-76472302D01*
X88219545Y-76472305D01*
X88163685Y-76631943D01*
X88144751Y-76799997D01*
X34500500Y-76799997D01*
X34500500Y-74299997D01*
X88144751Y-74299997D01*
X88144751Y-74300002D01*
X88163685Y-74468056D01*
X88219545Y-74627694D01*
X88219547Y-74627697D01*
X88309518Y-74770884D01*
X88309523Y-74770890D01*
X88429109Y-74890476D01*
X88429115Y-74890481D01*
X88572302Y-74980452D01*
X88572305Y-74980454D01*
X88572309Y-74980455D01*
X88572310Y-74980456D01*
X88644913Y-75005860D01*
X88731943Y-75036314D01*
X88899997Y-75055249D01*
X88900000Y-75055249D01*
X88900003Y-75055249D01*
X89068056Y-75036314D01*
X89086115Y-75029995D01*
X89227690Y-74980456D01*
X89227692Y-74980454D01*
X89227694Y-74980454D01*
X89227697Y-74980452D01*
X89370884Y-74890481D01*
X89370885Y-74890480D01*
X89370890Y-74890477D01*
X89490477Y-74770890D01*
X89580452Y-74627697D01*
X89580454Y-74627694D01*
X89580454Y-74627692D01*
X89580456Y-74627690D01*
X89636313Y-74468059D01*
X89636313Y-74468058D01*
X89636314Y-74468056D01*
X89655249Y-74300002D01*
X89655249Y-74299997D01*
X89636314Y-74131943D01*
X89580454Y-73972305D01*
X89580452Y-73972302D01*
X89490481Y-73829115D01*
X89490476Y-73829109D01*
X89370890Y-73709523D01*
X89370884Y-73709518D01*
X89239850Y-73627183D01*
X98473500Y-73627183D01*
X98473500Y-74927201D01*
X98473501Y-74927218D01*
X98484000Y-75029996D01*
X98484001Y-75029999D01*
X98539185Y-75196531D01*
X98539187Y-75196536D01*
X98631289Y-75345857D01*
X98755344Y-75469912D01*
X98910120Y-75565378D01*
X98956845Y-75617326D01*
X98968068Y-75686288D01*
X98940224Y-75750371D01*
X98932706Y-75758598D01*
X98793889Y-75897415D01*
X98668951Y-76069379D01*
X98572444Y-76258785D01*
X98506753Y-76460960D01*
X98473500Y-76670913D01*
X98473500Y-76883486D01*
X98486894Y-76968056D01*
X98506754Y-77093443D01*
X98564410Y-77270890D01*
X98572444Y-77295614D01*
X98668951Y-77485020D01*
X98793890Y-77656986D01*
X98944209Y-77807305D01*
X98944214Y-77807309D01*
X99108793Y-77926882D01*
X99151459Y-77982211D01*
X99157438Y-78051825D01*
X99124833Y-78113620D01*
X99108793Y-78127518D01*
X98944214Y-78247090D01*
X98944209Y-78247094D01*
X98793890Y-78397413D01*
X98668951Y-78569379D01*
X98572444Y-78758785D01*
X98506753Y-78960960D01*
X98473500Y-79170913D01*
X98473500Y-79383486D01*
X98488421Y-79477697D01*
X98506754Y-79593443D01*
X98554528Y-79740477D01*
X98572444Y-79795614D01*
X98668951Y-79985020D01*
X98793890Y-80156986D01*
X98944209Y-80307305D01*
X98944214Y-80307309D01*
X99108793Y-80426882D01*
X99151459Y-80482211D01*
X99157438Y-80551825D01*
X99124833Y-80613620D01*
X99108793Y-80627518D01*
X98944214Y-80747090D01*
X98944209Y-80747094D01*
X98793890Y-80897413D01*
X98668951Y-81069379D01*
X98572444Y-81258785D01*
X98506753Y-81460960D01*
X98473500Y-81670913D01*
X98473500Y-81883486D01*
X98506753Y-82093439D01*
X98572444Y-82295614D01*
X98668951Y-82485020D01*
X98793890Y-82656986D01*
X98944209Y-82807305D01*
X98944214Y-82807309D01*
X99109218Y-82927191D01*
X99151884Y-82982520D01*
X99157863Y-83052134D01*
X99125258Y-83113929D01*
X99109218Y-83127827D01*
X98944540Y-83247472D01*
X98944535Y-83247476D01*
X98794276Y-83397735D01*
X98794272Y-83397740D01*
X98669379Y-83569642D01*
X98572904Y-83758982D01*
X98507242Y-83961070D01*
X98507242Y-83961073D01*
X98496769Y-84027200D01*
X99544854Y-84027200D01*
X99506370Y-84093857D01*
X99474000Y-84214665D01*
X99474000Y-84339735D01*
X99506370Y-84460543D01*
X99544854Y-84527200D01*
X98496769Y-84527200D01*
X98507242Y-84593326D01*
X98507242Y-84593329D01*
X98572904Y-84795417D01*
X98669379Y-84984757D01*
X98794272Y-85156659D01*
X98794276Y-85156664D01*
X98944535Y-85306923D01*
X98944540Y-85306927D01*
X99109218Y-85426572D01*
X99151884Y-85481901D01*
X99157863Y-85551515D01*
X99125258Y-85613310D01*
X99109218Y-85627208D01*
X98944214Y-85747090D01*
X98944209Y-85747094D01*
X98793890Y-85897413D01*
X98668951Y-86069379D01*
X98572444Y-86258785D01*
X98506753Y-86460960D01*
X98493482Y-86544751D01*
X98473500Y-86670913D01*
X98473500Y-86883487D01*
X98506754Y-87093443D01*
X98519263Y-87131943D01*
X98572444Y-87295614D01*
X98668951Y-87485020D01*
X98793890Y-87656986D01*
X98944213Y-87807309D01*
X99116179Y-87932248D01*
X99116181Y-87932249D01*
X99116184Y-87932251D01*
X99305588Y-88028757D01*
X99507757Y-88094446D01*
X99717713Y-88127700D01*
X99717714Y-88127700D01*
X100180286Y-88127700D01*
X100180287Y-88127700D01*
X100390243Y-88094446D01*
X100592412Y-88028757D01*
X100781816Y-87932251D01*
X100839308Y-87890481D01*
X100953786Y-87807309D01*
X100953788Y-87807306D01*
X100953792Y-87807304D01*
X101104104Y-87656992D01*
X101104106Y-87656988D01*
X101104109Y-87656986D01*
X101229048Y-87485020D01*
X101229047Y-87485020D01*
X101229051Y-87485016D01*
X101325557Y-87295612D01*
X101391246Y-87093443D01*
X101424500Y-86883487D01*
X101424500Y-86670913D01*
X101391246Y-86460957D01*
X101325557Y-86258788D01*
X101229051Y-86069384D01*
X101229049Y-86069381D01*
X101229048Y-86069379D01*
X101104109Y-85897413D01*
X100953790Y-85747094D01*
X100953785Y-85747090D01*
X100788781Y-85627208D01*
X100746115Y-85571878D01*
X100740136Y-85502265D01*
X100772741Y-85440470D01*
X100788781Y-85426571D01*
X100953466Y-85306921D01*
X101103723Y-85156664D01*
X101103727Y-85156659D01*
X101228620Y-84984757D01*
X101325095Y-84795417D01*
X101390757Y-84593329D01*
X101390757Y-84593326D01*
X101401231Y-84527200D01*
X100353146Y-84527200D01*
X100391630Y-84460543D01*
X100424000Y-84339735D01*
X100424000Y-84214665D01*
X100391630Y-84093857D01*
X100353146Y-84027200D01*
X101401231Y-84027200D01*
X101390757Y-83961073D01*
X101390757Y-83961070D01*
X101325095Y-83758982D01*
X101228620Y-83569642D01*
X101103727Y-83397740D01*
X101103723Y-83397735D01*
X100953464Y-83247476D01*
X100953459Y-83247472D01*
X100788781Y-83127827D01*
X100746115Y-83072497D01*
X100740136Y-83002884D01*
X100772741Y-82941089D01*
X100788776Y-82927194D01*
X100953792Y-82807304D01*
X101104104Y-82656992D01*
X101104106Y-82656988D01*
X101104109Y-82656986D01*
X101229048Y-82485020D01*
X101229047Y-82485020D01*
X101229051Y-82485016D01*
X101325557Y-82295612D01*
X101391246Y-82093443D01*
X101424500Y-81883487D01*
X101424500Y-81670913D01*
X101391246Y-81460957D01*
X101325557Y-81258788D01*
X101229051Y-81069384D01*
X101229049Y-81069381D01*
X101229048Y-81069379D01*
X101104109Y-80897413D01*
X100953792Y-80747096D01*
X100919670Y-80722305D01*
X100789204Y-80627516D01*
X100746540Y-80572189D01*
X100740561Y-80502576D01*
X100773166Y-80440780D01*
X100789199Y-80426886D01*
X100953792Y-80307304D01*
X101104104Y-80156992D01*
X101104106Y-80156988D01*
X101104109Y-80156986D01*
X101229048Y-79985020D01*
X101229047Y-79985020D01*
X101229051Y-79985016D01*
X101325557Y-79795612D01*
X101391246Y-79593443D01*
X101424500Y-79383487D01*
X101424500Y-79170913D01*
X101391246Y-78960957D01*
X101325557Y-78758788D01*
X101229051Y-78569384D01*
X101229049Y-78569381D01*
X101229048Y-78569379D01*
X101104109Y-78397413D01*
X100953792Y-78247096D01*
X100953784Y-78247090D01*
X100789204Y-78127516D01*
X100746540Y-78072189D01*
X100740561Y-78002576D01*
X100773166Y-77940780D01*
X100789199Y-77926886D01*
X100953792Y-77807304D01*
X101104104Y-77656992D01*
X101104106Y-77656988D01*
X101104109Y-77656986D01*
X101229048Y-77485020D01*
X101229047Y-77485020D01*
X101229051Y-77485016D01*
X101325557Y-77295612D01*
X101391246Y-77093443D01*
X101424500Y-76883487D01*
X101424500Y-76670913D01*
X101391246Y-76460957D01*
X101325557Y-76258788D01*
X101229051Y-76069384D01*
X101229049Y-76069381D01*
X101229048Y-76069379D01*
X101104109Y-75897413D01*
X100965294Y-75758598D01*
X100931809Y-75697275D01*
X100936793Y-75627583D01*
X100978665Y-75571650D01*
X100987879Y-75565378D01*
X100993331Y-75562014D01*
X100993334Y-75562014D01*
X101142656Y-75469912D01*
X101266712Y-75345856D01*
X101358814Y-75196534D01*
X101413999Y-75029997D01*
X101424500Y-74927209D01*
X101424499Y-73627192D01*
X101413999Y-73524403D01*
X101358814Y-73357866D01*
X101266712Y-73208544D01*
X101142656Y-73084488D01*
X100993334Y-72992386D01*
X100826797Y-72937201D01*
X100826795Y-72937200D01*
X100724010Y-72926700D01*
X99173998Y-72926700D01*
X99173981Y-72926701D01*
X99071203Y-72937200D01*
X99071200Y-72937201D01*
X98904668Y-72992385D01*
X98904663Y-72992387D01*
X98755342Y-73084489D01*
X98631289Y-73208542D01*
X98539187Y-73357863D01*
X98539186Y-73357866D01*
X98484001Y-73524403D01*
X98484001Y-73524404D01*
X98484000Y-73524404D01*
X98473500Y-73627183D01*
X89239850Y-73627183D01*
X89227697Y-73619547D01*
X89227694Y-73619545D01*
X89068056Y-73563685D01*
X88900003Y-73544751D01*
X88899997Y-73544751D01*
X88731943Y-73563685D01*
X88572305Y-73619545D01*
X88572302Y-73619547D01*
X88429115Y-73709518D01*
X88429109Y-73709523D01*
X88309523Y-73829109D01*
X88309518Y-73829115D01*
X88219547Y-73972302D01*
X88219545Y-73972305D01*
X88163685Y-74131943D01*
X88144751Y-74299997D01*
X34500500Y-74299997D01*
X34500500Y-69999997D01*
X49744751Y-69999997D01*
X49744751Y-70000002D01*
X49763685Y-70168056D01*
X49819545Y-70327694D01*
X49819547Y-70327697D01*
X49909518Y-70470884D01*
X49909523Y-70470890D01*
X50029109Y-70590476D01*
X50029115Y-70590481D01*
X50172302Y-70680452D01*
X50172305Y-70680454D01*
X50172309Y-70680455D01*
X50172310Y-70680456D01*
X50221925Y-70697817D01*
X50331943Y-70736314D01*
X50499997Y-70755249D01*
X50500000Y-70755249D01*
X50500003Y-70755249D01*
X50668056Y-70736314D01*
X50668059Y-70736313D01*
X50827690Y-70680456D01*
X50827692Y-70680454D01*
X50827694Y-70680454D01*
X50827697Y-70680452D01*
X50970884Y-70590481D01*
X50970885Y-70590480D01*
X50970890Y-70590477D01*
X51090477Y-70470890D01*
X51110632Y-70438814D01*
X51180452Y-70327697D01*
X51180454Y-70327694D01*
X51180454Y-70327692D01*
X51180456Y-70327690D01*
X51236313Y-70168059D01*
X51236313Y-70168058D01*
X51236314Y-70168056D01*
X51255249Y-70000002D01*
X51255249Y-69999997D01*
X51236314Y-69831943D01*
X51180454Y-69672305D01*
X51180452Y-69672302D01*
X51090481Y-69529115D01*
X51090476Y-69529109D01*
X50970890Y-69409523D01*
X50970884Y-69409518D01*
X50827697Y-69319547D01*
X50827694Y-69319545D01*
X50668056Y-69263685D01*
X50500003Y-69244751D01*
X50499997Y-69244751D01*
X50331943Y-69263685D01*
X50172305Y-69319545D01*
X50172302Y-69319547D01*
X50029115Y-69409518D01*
X50029109Y-69409523D01*
X49909523Y-69529109D01*
X49909518Y-69529115D01*
X49819547Y-69672302D01*
X49819545Y-69672305D01*
X49763685Y-69831943D01*
X49744751Y-69999997D01*
X34500500Y-69999997D01*
X34500500Y-67149997D01*
X72444751Y-67149997D01*
X72444751Y-67150002D01*
X72463685Y-67318056D01*
X72519545Y-67477694D01*
X72519547Y-67477697D01*
X72609518Y-67620884D01*
X72609523Y-67620890D01*
X72729109Y-67740476D01*
X72729115Y-67740481D01*
X72872302Y-67830452D01*
X72872305Y-67830454D01*
X72872309Y-67830455D01*
X72872310Y-67830456D01*
X72944913Y-67855860D01*
X73031943Y-67886314D01*
X73199997Y-67905249D01*
X73200000Y-67905249D01*
X73200003Y-67905249D01*
X73368056Y-67886314D01*
X73368059Y-67886313D01*
X73527690Y-67830456D01*
X73527692Y-67830454D01*
X73527694Y-67830454D01*
X73527697Y-67830452D01*
X73670884Y-67740481D01*
X73670885Y-67740480D01*
X73670890Y-67740477D01*
X73790477Y-67620890D01*
X73880452Y-67477697D01*
X73880454Y-67477694D01*
X73880454Y-67477692D01*
X73880456Y-67477690D01*
X73936313Y-67318059D01*
X73936313Y-67318058D01*
X73936314Y-67318056D01*
X73955249Y-67150002D01*
X73955249Y-67149997D01*
X73936314Y-66981943D01*
X73925137Y-66950000D01*
X95195065Y-66950000D01*
X95214786Y-67276038D01*
X95273667Y-67597341D01*
X95370835Y-67909164D01*
X95370839Y-67909175D01*
X95504897Y-68207041D01*
X95504898Y-68207043D01*
X95673881Y-68486576D01*
X95821476Y-68674968D01*
X96963708Y-67532736D01*
X97060967Y-67666602D01*
X97183398Y-67789033D01*
X97317262Y-67886290D01*
X96175030Y-69028522D01*
X96175030Y-69028523D01*
X96363423Y-69176118D01*
X96642956Y-69345101D01*
X96642958Y-69345102D01*
X96940824Y-69479160D01*
X96940835Y-69479164D01*
X97252658Y-69576332D01*
X97573961Y-69635213D01*
X97900000Y-69654934D01*
X98226038Y-69635213D01*
X98547341Y-69576332D01*
X98859164Y-69479164D01*
X98859175Y-69479160D01*
X99157041Y-69345102D01*
X99157043Y-69345101D01*
X99436586Y-69176112D01*
X99624968Y-69028523D01*
X99624968Y-69028522D01*
X98482737Y-67886290D01*
X98616602Y-67789033D01*
X98739033Y-67666602D01*
X98836290Y-67532737D01*
X99978522Y-68674968D01*
X99978523Y-68674968D01*
X100126112Y-68486586D01*
X100295101Y-68207043D01*
X100295102Y-68207041D01*
X100429160Y-67909175D01*
X100429164Y-67909164D01*
X100526332Y-67597341D01*
X100585213Y-67276038D01*
X100604934Y-66950000D01*
X100585213Y-66623961D01*
X100526332Y-66302658D01*
X100429164Y-65990835D01*
X100429160Y-65990824D01*
X100295102Y-65692958D01*
X100295101Y-65692956D01*
X100126118Y-65413423D01*
X99978522Y-65225030D01*
X98836290Y-66367262D01*
X98739033Y-66233398D01*
X98616602Y-66110967D01*
X98482736Y-66013709D01*
X99624968Y-64871476D01*
X99436576Y-64723881D01*
X99157043Y-64554898D01*
X99157041Y-64554897D01*
X98859175Y-64420839D01*
X98859164Y-64420835D01*
X98547341Y-64323667D01*
X98226038Y-64264786D01*
X97900000Y-64245065D01*
X97573961Y-64264786D01*
X97252658Y-64323667D01*
X96940835Y-64420835D01*
X96940824Y-64420839D01*
X96642958Y-64554897D01*
X96642956Y-64554898D01*
X96363422Y-64723881D01*
X96363416Y-64723886D01*
X96175030Y-64871474D01*
X96175029Y-64871476D01*
X97317262Y-66013709D01*
X97183398Y-66110967D01*
X97060967Y-66233398D01*
X96963709Y-66367262D01*
X95821476Y-65225029D01*
X95821474Y-65225030D01*
X95673886Y-65413416D01*
X95673881Y-65413422D01*
X95504898Y-65692956D01*
X95504897Y-65692958D01*
X95370839Y-65990824D01*
X95370835Y-65990835D01*
X95273667Y-66302658D01*
X95214786Y-66623961D01*
X95195065Y-66950000D01*
X73925137Y-66950000D01*
X73880454Y-66822305D01*
X73880452Y-66822302D01*
X73790481Y-66679115D01*
X73790476Y-66679109D01*
X73670890Y-66559523D01*
X73670884Y-66559518D01*
X73527697Y-66469547D01*
X73527694Y-66469545D01*
X73368056Y-66413685D01*
X73200003Y-66394751D01*
X73199997Y-66394751D01*
X73031943Y-66413685D01*
X72872305Y-66469545D01*
X72872302Y-66469547D01*
X72729115Y-66559518D01*
X72729109Y-66559523D01*
X72609523Y-66679109D01*
X72609518Y-66679115D01*
X72519547Y-66822302D01*
X72519545Y-66822305D01*
X72463685Y-66981943D01*
X72444751Y-67149997D01*
X34500500Y-67149997D01*
X34500500Y-66815893D01*
X34520185Y-66748854D01*
X34572989Y-66703099D01*
X34638384Y-66692673D01*
X34749997Y-66705249D01*
X34750000Y-66705249D01*
X34750003Y-66705249D01*
X34918056Y-66686314D01*
X34918059Y-66686313D01*
X35077690Y-66630456D01*
X35077692Y-66630454D01*
X35077694Y-66630454D01*
X35077697Y-66630452D01*
X35220884Y-66540481D01*
X35220885Y-66540480D01*
X35220890Y-66540477D01*
X35340477Y-66420890D01*
X35345004Y-66413685D01*
X35385022Y-66349997D01*
X67994751Y-66349997D01*
X67994751Y-66350002D01*
X68013685Y-66518056D01*
X68069545Y-66677694D01*
X68069547Y-66677697D01*
X68159518Y-66820884D01*
X68159523Y-66820890D01*
X68279109Y-66940476D01*
X68279115Y-66940481D01*
X68422302Y-67030452D01*
X68422305Y-67030454D01*
X68422309Y-67030455D01*
X68422310Y-67030456D01*
X68439789Y-67036572D01*
X68581943Y-67086314D01*
X68749997Y-67105249D01*
X68750000Y-67105249D01*
X68750003Y-67105249D01*
X68918056Y-67086314D01*
X68918059Y-67086313D01*
X69077690Y-67030456D01*
X69077692Y-67030454D01*
X69077694Y-67030454D01*
X69077697Y-67030452D01*
X69220884Y-66940481D01*
X69220885Y-66940480D01*
X69220890Y-66940477D01*
X69340477Y-66820890D01*
X69343617Y-66815893D01*
X69430452Y-66677697D01*
X69430454Y-66677694D01*
X69430454Y-66677692D01*
X69430456Y-66677690D01*
X69486313Y-66518059D01*
X69486313Y-66518058D01*
X69486314Y-66518056D01*
X69505249Y-66350002D01*
X69505249Y-66349997D01*
X69486314Y-66181943D01*
X69430454Y-66022305D01*
X69430452Y-66022302D01*
X69340481Y-65879115D01*
X69340476Y-65879109D01*
X69220890Y-65759523D01*
X69220884Y-65759518D01*
X69077697Y-65669547D01*
X69077694Y-65669545D01*
X68918056Y-65613685D01*
X68750003Y-65594751D01*
X68749997Y-65594751D01*
X68581943Y-65613685D01*
X68422305Y-65669545D01*
X68422302Y-65669547D01*
X68279115Y-65759518D01*
X68279109Y-65759523D01*
X68159523Y-65879109D01*
X68159518Y-65879115D01*
X68069547Y-66022302D01*
X68069545Y-66022305D01*
X68013685Y-66181943D01*
X67994751Y-66349997D01*
X35385022Y-66349997D01*
X35430452Y-66277697D01*
X35430454Y-66277694D01*
X35430454Y-66277692D01*
X35430456Y-66277690D01*
X35486313Y-66118059D01*
X35486313Y-66118058D01*
X35486314Y-66118056D01*
X35505249Y-65950002D01*
X35505249Y-65949997D01*
X35486314Y-65781943D01*
X35430454Y-65622305D01*
X35430452Y-65622302D01*
X35340481Y-65479115D01*
X35340476Y-65479109D01*
X35220890Y-65359523D01*
X35220884Y-65359518D01*
X35077697Y-65269547D01*
X35077694Y-65269545D01*
X34918056Y-65213685D01*
X34750003Y-65194751D01*
X34749996Y-65194751D01*
X34638383Y-65207326D01*
X34569561Y-65195271D01*
X34518182Y-65147922D01*
X34500500Y-65084106D01*
X34500500Y-63799997D01*
X40544751Y-63799997D01*
X40544751Y-63800002D01*
X40563685Y-63968056D01*
X40619545Y-64127694D01*
X40619547Y-64127697D01*
X40709518Y-64270884D01*
X40709523Y-64270890D01*
X40829109Y-64390476D01*
X40829115Y-64390481D01*
X40972302Y-64480452D01*
X40972305Y-64480454D01*
X40972309Y-64480455D01*
X40972310Y-64480456D01*
X41044913Y-64505860D01*
X41131943Y-64536314D01*
X41299997Y-64555249D01*
X41300000Y-64555249D01*
X41300003Y-64555249D01*
X41468056Y-64536314D01*
X41468059Y-64536313D01*
X41627690Y-64480456D01*
X41627692Y-64480454D01*
X41627694Y-64480454D01*
X41627697Y-64480452D01*
X41770884Y-64390481D01*
X41770885Y-64390480D01*
X41770890Y-64390477D01*
X41890477Y-64270890D01*
X41890481Y-64270884D01*
X41980452Y-64127697D01*
X41980454Y-64127694D01*
X41980454Y-64127692D01*
X41980456Y-64127690D01*
X42036313Y-63968059D01*
X42036313Y-63968058D01*
X42036314Y-63968056D01*
X42055249Y-63800002D01*
X42055249Y-63799997D01*
X42036314Y-63631943D01*
X41980454Y-63472305D01*
X41980452Y-63472302D01*
X41890481Y-63329115D01*
X41890476Y-63329109D01*
X41770890Y-63209523D01*
X41770884Y-63209518D01*
X41627697Y-63119547D01*
X41627694Y-63119545D01*
X41468056Y-63063685D01*
X41300003Y-63044751D01*
X41299997Y-63044751D01*
X41131943Y-63063685D01*
X40972305Y-63119545D01*
X40972302Y-63119547D01*
X40829115Y-63209518D01*
X40829109Y-63209523D01*
X40709523Y-63329109D01*
X40709518Y-63329115D01*
X40619547Y-63472302D01*
X40619545Y-63472305D01*
X40563685Y-63631943D01*
X40544751Y-63799997D01*
X34500500Y-63799997D01*
X34500500Y-62699997D01*
X50244751Y-62699997D01*
X50244751Y-62700002D01*
X50263685Y-62868056D01*
X50319545Y-63027692D01*
X50354943Y-63084029D01*
X50373943Y-63151266D01*
X50354943Y-63215971D01*
X50319545Y-63272307D01*
X50263685Y-63431943D01*
X50244751Y-63599997D01*
X50244751Y-63600002D01*
X50263685Y-63768056D01*
X50319545Y-63927694D01*
X50319547Y-63927697D01*
X50409518Y-64070884D01*
X50409523Y-64070890D01*
X50529109Y-64190476D01*
X50529115Y-64190481D01*
X50672302Y-64280452D01*
X50672305Y-64280454D01*
X50672309Y-64280455D01*
X50672310Y-64280456D01*
X50744913Y-64305860D01*
X50831943Y-64336314D01*
X50999997Y-64355249D01*
X51000000Y-64355249D01*
X51000003Y-64355249D01*
X51168056Y-64336314D01*
X51204199Y-64323667D01*
X51327690Y-64280456D01*
X51327692Y-64280454D01*
X51327694Y-64280454D01*
X51327697Y-64280452D01*
X51470884Y-64190481D01*
X51470885Y-64190480D01*
X51470890Y-64190477D01*
X51590477Y-64070890D01*
X51595203Y-64063369D01*
X51680452Y-63927697D01*
X51680454Y-63927694D01*
X51680454Y-63927692D01*
X51680456Y-63927690D01*
X51736313Y-63768059D01*
X51736313Y-63768058D01*
X51736314Y-63768056D01*
X51755249Y-63600002D01*
X51755249Y-63599997D01*
X51736314Y-63431943D01*
X51700331Y-63329110D01*
X51680456Y-63272310D01*
X51680454Y-63272307D01*
X51680454Y-63272306D01*
X51645057Y-63215973D01*
X51626056Y-63148736D01*
X51645057Y-63084027D01*
X51680454Y-63027693D01*
X51680453Y-63027693D01*
X51680456Y-63027690D01*
X51736313Y-62868059D01*
X51736313Y-62868058D01*
X51736314Y-62868056D01*
X51755249Y-62700002D01*
X51755249Y-62699997D01*
X51736314Y-62531943D01*
X51680454Y-62372305D01*
X51680452Y-62372302D01*
X51590481Y-62229115D01*
X51590476Y-62229109D01*
X51470890Y-62109523D01*
X51470884Y-62109518D01*
X51327697Y-62019547D01*
X51327694Y-62019545D01*
X51168056Y-61963685D01*
X51000003Y-61944751D01*
X50999997Y-61944751D01*
X50831943Y-61963685D01*
X50672305Y-62019545D01*
X50672302Y-62019547D01*
X50529115Y-62109518D01*
X50529109Y-62109523D01*
X50409523Y-62229109D01*
X50409518Y-62229115D01*
X50319547Y-62372302D01*
X50319545Y-62372305D01*
X50263685Y-62531943D01*
X50244751Y-62699997D01*
X34500500Y-62699997D01*
X34500500Y-61099997D01*
X52144751Y-61099997D01*
X52144751Y-61100002D01*
X52163685Y-61268056D01*
X52219545Y-61427692D01*
X52254943Y-61484029D01*
X52273943Y-61551266D01*
X52254943Y-61615971D01*
X52219545Y-61672307D01*
X52163685Y-61831943D01*
X52144751Y-61999997D01*
X52144751Y-62000002D01*
X52163685Y-62168056D01*
X52219545Y-62327694D01*
X52219547Y-62327697D01*
X52309518Y-62470884D01*
X52309523Y-62470890D01*
X52429109Y-62590476D01*
X52429115Y-62590481D01*
X52572302Y-62680452D01*
X52572305Y-62680454D01*
X52572309Y-62680455D01*
X52572310Y-62680456D01*
X52628155Y-62699997D01*
X52731943Y-62736314D01*
X52899997Y-62755249D01*
X52900000Y-62755249D01*
X52900003Y-62755249D01*
X53068056Y-62736314D01*
X53068059Y-62736313D01*
X53227690Y-62680456D01*
X53227692Y-62680454D01*
X53227694Y-62680454D01*
X53227697Y-62680452D01*
X53370884Y-62590481D01*
X53370885Y-62590480D01*
X53370890Y-62590477D01*
X53490477Y-62470890D01*
X53509279Y-62440967D01*
X53580452Y-62327697D01*
X53580454Y-62327694D01*
X53580454Y-62327692D01*
X53580456Y-62327690D01*
X53636313Y-62168059D01*
X53636313Y-62168058D01*
X53636314Y-62168056D01*
X53655249Y-62000002D01*
X53655249Y-61999997D01*
X53636314Y-61831943D01*
X53587761Y-61693187D01*
X53580456Y-61672310D01*
X53580454Y-61672307D01*
X53580454Y-61672306D01*
X53545057Y-61615973D01*
X53526056Y-61548736D01*
X53545057Y-61484027D01*
X53580454Y-61427693D01*
X53580453Y-61427693D01*
X53580456Y-61427690D01*
X53636313Y-61268059D01*
X53636313Y-61268058D01*
X53636314Y-61268056D01*
X53655249Y-61100002D01*
X53655249Y-61099997D01*
X53636314Y-60931943D01*
X53580454Y-60772305D01*
X53580452Y-60772302D01*
X53490481Y-60629115D01*
X53490476Y-60629109D01*
X53370890Y-60509523D01*
X53370884Y-60509518D01*
X53227697Y-60419547D01*
X53227694Y-60419545D01*
X53068056Y-60363685D01*
X52900003Y-60344751D01*
X52899997Y-60344751D01*
X52731943Y-60363685D01*
X52572305Y-60419545D01*
X52572302Y-60419547D01*
X52429115Y-60509518D01*
X52429109Y-60509523D01*
X52309523Y-60629109D01*
X52309518Y-60629115D01*
X52219547Y-60772302D01*
X52219545Y-60772305D01*
X52163685Y-60931943D01*
X52144751Y-61099997D01*
X34500500Y-61099997D01*
X34500500Y-60249997D01*
X84944751Y-60249997D01*
X84944751Y-60250002D01*
X84963685Y-60418056D01*
X85019545Y-60577694D01*
X85019547Y-60577697D01*
X85109518Y-60720884D01*
X85109523Y-60720890D01*
X85229109Y-60840476D01*
X85229115Y-60840481D01*
X85372302Y-60930452D01*
X85372305Y-60930454D01*
X85372309Y-60930455D01*
X85372310Y-60930456D01*
X85376560Y-60931943D01*
X85531943Y-60986314D01*
X85699997Y-61005249D01*
X85700000Y-61005249D01*
X85700003Y-61005249D01*
X85868056Y-60986314D01*
X85868059Y-60986313D01*
X86027690Y-60930456D01*
X86027692Y-60930454D01*
X86027694Y-60930454D01*
X86027697Y-60930452D01*
X86170884Y-60840481D01*
X86170885Y-60840480D01*
X86170890Y-60840477D01*
X86290477Y-60720890D01*
X86290481Y-60720884D01*
X86380452Y-60577697D01*
X86380454Y-60577694D01*
X86380454Y-60577692D01*
X86380456Y-60577690D01*
X86436313Y-60418059D01*
X86436313Y-60418058D01*
X86436314Y-60418056D01*
X86455249Y-60250002D01*
X86455249Y-60249997D01*
X86436314Y-60081943D01*
X86380454Y-59922305D01*
X86380452Y-59922302D01*
X86290481Y-59779115D01*
X86290476Y-59779109D01*
X86170890Y-59659523D01*
X86170884Y-59659518D01*
X86027697Y-59569547D01*
X86027694Y-59569545D01*
X85868056Y-59513685D01*
X85700003Y-59494751D01*
X85699997Y-59494751D01*
X85531943Y-59513685D01*
X85372305Y-59569545D01*
X85372302Y-59569547D01*
X85229115Y-59659518D01*
X85229109Y-59659523D01*
X85109523Y-59779109D01*
X85109518Y-59779115D01*
X85019547Y-59922302D01*
X85019545Y-59922305D01*
X84963685Y-60081943D01*
X84944751Y-60249997D01*
X34500500Y-60249997D01*
X34500500Y-53738431D01*
X34520185Y-53671392D01*
X34572989Y-53625637D01*
X34642147Y-53615693D01*
X34705703Y-53644718D01*
X34722111Y-53661958D01*
X34771476Y-53724968D01*
X35913708Y-52582736D01*
X36010967Y-52716602D01*
X36133398Y-52839033D01*
X36267262Y-52936290D01*
X35125030Y-54078522D01*
X35125030Y-54078523D01*
X35313423Y-54226118D01*
X35592956Y-54395101D01*
X35592958Y-54395102D01*
X35890824Y-54529160D01*
X35890835Y-54529164D01*
X36202658Y-54626332D01*
X36523961Y-54685213D01*
X36850000Y-54704934D01*
X37176038Y-54685213D01*
X37497341Y-54626332D01*
X37809164Y-54529164D01*
X37809175Y-54529160D01*
X38107041Y-54395102D01*
X38107043Y-54395101D01*
X38386586Y-54226112D01*
X38574968Y-54078523D01*
X38574968Y-54078522D01*
X37432737Y-52936290D01*
X37566602Y-52839033D01*
X37689033Y-52716602D01*
X37786290Y-52582737D01*
X38928522Y-53724968D01*
X38928523Y-53724968D01*
X39076112Y-53536586D01*
X39245101Y-53257043D01*
X39245102Y-53257041D01*
X39379160Y-52959175D01*
X39379164Y-52959164D01*
X39476332Y-52647341D01*
X39526243Y-52374983D01*
X47674500Y-52374983D01*
X47674500Y-53925001D01*
X47674501Y-53925018D01*
X47685000Y-54027796D01*
X47685001Y-54027799D01*
X47701810Y-54078523D01*
X47740186Y-54194334D01*
X47832288Y-54343656D01*
X47956344Y-54467712D01*
X48105666Y-54559814D01*
X48272203Y-54614999D01*
X48374991Y-54625500D01*
X49675008Y-54625499D01*
X49777797Y-54614999D01*
X49944334Y-54559814D01*
X50093656Y-54467712D01*
X50217712Y-54343656D01*
X50309814Y-54194334D01*
X50309814Y-54194331D01*
X50313448Y-54188441D01*
X50365395Y-54141716D01*
X50434358Y-54130493D01*
X50498440Y-54158336D01*
X50506668Y-54165856D01*
X50645535Y-54304723D01*
X50645540Y-54304727D01*
X50817442Y-54429620D01*
X51006782Y-54526095D01*
X51208871Y-54591757D01*
X51275000Y-54602231D01*
X51275000Y-53554145D01*
X51341657Y-53592630D01*
X51462465Y-53625000D01*
X51587535Y-53625000D01*
X51708343Y-53592630D01*
X51775000Y-53554145D01*
X51775000Y-54602230D01*
X51841126Y-54591757D01*
X51841129Y-54591757D01*
X52043217Y-54526095D01*
X52232557Y-54429620D01*
X52404459Y-54304727D01*
X52404464Y-54304723D01*
X52554723Y-54154464D01*
X52554727Y-54154459D01*
X52679620Y-53982557D01*
X52776095Y-53793217D01*
X52841757Y-53591130D01*
X52841757Y-53591127D01*
X52872030Y-53400000D01*
X51929146Y-53400000D01*
X51967630Y-53333343D01*
X52000000Y-53212535D01*
X52000000Y-53087465D01*
X51989314Y-53047583D01*
X67447300Y-53047583D01*
X67447300Y-54597601D01*
X67447301Y-54597618D01*
X67457800Y-54700396D01*
X67457801Y-54700399D01*
X67503694Y-54838894D01*
X67512986Y-54866934D01*
X67605088Y-55016256D01*
X67729144Y-55140312D01*
X67878466Y-55232414D01*
X68045003Y-55287599D01*
X68147791Y-55298100D01*
X69447808Y-55298099D01*
X69550597Y-55287599D01*
X69717134Y-55232414D01*
X69866456Y-55140312D01*
X69990512Y-55016256D01*
X70082614Y-54866934D01*
X70082614Y-54866931D01*
X70085978Y-54861479D01*
X70137926Y-54814754D01*
X70206888Y-54803531D01*
X70270970Y-54831374D01*
X70279198Y-54838894D01*
X70418013Y-54977709D01*
X70589979Y-55102648D01*
X70589981Y-55102649D01*
X70589984Y-55102651D01*
X70779388Y-55199157D01*
X70981557Y-55264846D01*
X71191513Y-55298100D01*
X71191514Y-55298100D01*
X71404086Y-55298100D01*
X71404087Y-55298100D01*
X71614043Y-55264846D01*
X71816212Y-55199157D01*
X72005616Y-55102651D01*
X72027589Y-55086686D01*
X72177586Y-54977709D01*
X72177588Y-54977706D01*
X72177592Y-54977704D01*
X72327904Y-54827392D01*
X72327906Y-54827388D01*
X72327909Y-54827386D01*
X72452848Y-54655420D01*
X72452847Y-54655420D01*
X72452851Y-54655416D01*
X72549357Y-54466012D01*
X72615046Y-54263843D01*
X72648300Y-54053887D01*
X72648300Y-53591313D01*
X72615046Y-53381357D01*
X72549357Y-53179188D01*
X72452851Y-52989784D01*
X72452849Y-52989781D01*
X72452848Y-52989779D01*
X72327909Y-52817813D01*
X72177586Y-52667490D01*
X72005620Y-52542551D01*
X71816214Y-52446044D01*
X71816213Y-52446043D01*
X71816212Y-52446043D01*
X71614043Y-52380354D01*
X71614041Y-52380353D01*
X71614040Y-52380353D01*
X71444829Y-52353553D01*
X71404087Y-52347100D01*
X71191513Y-52347100D01*
X71150771Y-52353553D01*
X70981560Y-52380353D01*
X70779385Y-52446044D01*
X70589979Y-52542551D01*
X70418015Y-52667489D01*
X70279198Y-52806306D01*
X70217875Y-52839790D01*
X70148183Y-52834806D01*
X70092250Y-52792934D01*
X70085978Y-52783720D01*
X69990512Y-52628944D01*
X69866457Y-52504889D01*
X69866456Y-52504888D01*
X69717134Y-52412786D01*
X69550597Y-52357601D01*
X69550595Y-52357600D01*
X69447810Y-52347100D01*
X68147798Y-52347100D01*
X68147781Y-52347101D01*
X68045003Y-52357600D01*
X68045000Y-52357601D01*
X67878468Y-52412785D01*
X67878463Y-52412787D01*
X67729142Y-52504889D01*
X67605089Y-52628942D01*
X67512987Y-52778263D01*
X67512985Y-52778268D01*
X67508125Y-52792934D01*
X67457801Y-52944803D01*
X67457801Y-52944804D01*
X67457800Y-52944804D01*
X67447300Y-53047583D01*
X51989314Y-53047583D01*
X51967630Y-52966657D01*
X51929146Y-52900000D01*
X52872030Y-52900000D01*
X52841757Y-52708872D01*
X52841757Y-52708869D01*
X52776095Y-52506782D01*
X52679620Y-52317442D01*
X52554727Y-52145540D01*
X52554723Y-52145535D01*
X52404464Y-51995276D01*
X52404459Y-51995272D01*
X52232557Y-51870379D01*
X52043215Y-51773903D01*
X51841124Y-51708241D01*
X51775000Y-51697768D01*
X51775000Y-52745854D01*
X51708343Y-52707370D01*
X51587535Y-52675000D01*
X51462465Y-52675000D01*
X51341657Y-52707370D01*
X51275000Y-52745854D01*
X51275000Y-51697768D01*
X51274999Y-51697768D01*
X51208875Y-51708241D01*
X51006784Y-51773903D01*
X50817442Y-51870379D01*
X50645541Y-51995271D01*
X50506668Y-52134144D01*
X50445345Y-52167628D01*
X50375653Y-52162644D01*
X50319720Y-52120772D01*
X50313448Y-52111558D01*
X50252702Y-52013073D01*
X50217712Y-51956344D01*
X50093656Y-51832288D01*
X49976236Y-51759863D01*
X49944336Y-51740187D01*
X49944331Y-51740185D01*
X49942862Y-51739698D01*
X49777797Y-51685001D01*
X49777795Y-51685000D01*
X49675010Y-51674500D01*
X48374998Y-51674500D01*
X48374981Y-51674501D01*
X48272203Y-51685000D01*
X48272200Y-51685001D01*
X48105668Y-51740185D01*
X48105663Y-51740187D01*
X47956342Y-51832289D01*
X47832289Y-51956342D01*
X47740187Y-52105663D01*
X47740185Y-52105668D01*
X47735180Y-52120772D01*
X47685001Y-52272203D01*
X47685001Y-52272204D01*
X47685000Y-52272204D01*
X47674500Y-52374983D01*
X39526243Y-52374983D01*
X39535213Y-52326038D01*
X39554934Y-52000000D01*
X39535213Y-51673961D01*
X39476332Y-51352658D01*
X39402337Y-51115199D01*
X82824941Y-51115199D01*
X82824941Y-51115200D01*
X82845536Y-51350603D01*
X82845538Y-51350613D01*
X82906694Y-51578855D01*
X82906696Y-51578859D01*
X82906697Y-51578863D01*
X82967027Y-51708241D01*
X83006565Y-51793030D01*
X83006567Y-51793034D01*
X83114881Y-51947721D01*
X83142105Y-51986601D01*
X83309199Y-52153695D01*
X83405984Y-52221465D01*
X83502765Y-52289232D01*
X83502767Y-52289233D01*
X83502770Y-52289235D01*
X83716937Y-52389103D01*
X83945192Y-52450263D01*
X84121634Y-52465700D01*
X84180599Y-52470859D01*
X84180600Y-52470859D01*
X84180601Y-52470859D01*
X84239566Y-52465700D01*
X84416008Y-52450263D01*
X84644263Y-52389103D01*
X84858430Y-52289235D01*
X85052001Y-52153695D01*
X85173929Y-52031766D01*
X85235248Y-51998284D01*
X85304940Y-52003268D01*
X85360874Y-52045139D01*
X85377789Y-52076117D01*
X85426802Y-52207528D01*
X85426806Y-52207535D01*
X85513052Y-52322744D01*
X85513055Y-52322747D01*
X85628264Y-52408993D01*
X85628271Y-52408997D01*
X85763117Y-52459291D01*
X85763116Y-52459291D01*
X85770044Y-52460035D01*
X85822727Y-52465700D01*
X87618472Y-52465699D01*
X87678083Y-52459291D01*
X87812931Y-52408996D01*
X87928146Y-52322746D01*
X88014396Y-52207531D01*
X88064691Y-52072683D01*
X88071100Y-52013073D01*
X88071099Y-50217328D01*
X88064691Y-50157717D01*
X88063410Y-50154283D01*
X88014397Y-50022871D01*
X88014393Y-50022864D01*
X87928147Y-49907655D01*
X87928144Y-49907652D01*
X87812935Y-49821406D01*
X87812928Y-49821402D01*
X87678082Y-49771108D01*
X87678083Y-49771108D01*
X87618483Y-49764701D01*
X87618481Y-49764700D01*
X87618473Y-49764700D01*
X87618464Y-49764700D01*
X85822729Y-49764700D01*
X85822723Y-49764701D01*
X85763116Y-49771108D01*
X85628271Y-49821402D01*
X85628264Y-49821406D01*
X85513055Y-49907652D01*
X85513052Y-49907655D01*
X85426806Y-50022864D01*
X85426803Y-50022869D01*
X85377789Y-50154283D01*
X85335917Y-50210216D01*
X85270453Y-50234633D01*
X85202180Y-50219781D01*
X85173926Y-50198630D01*
X85052002Y-50076706D01*
X85051995Y-50076701D01*
X84858434Y-49941167D01*
X84858430Y-49941165D01*
X84816207Y-49921476D01*
X84644263Y-49841297D01*
X84644259Y-49841296D01*
X84644255Y-49841294D01*
X84416013Y-49780138D01*
X84416003Y-49780136D01*
X84180601Y-49759541D01*
X84180599Y-49759541D01*
X83945196Y-49780136D01*
X83945186Y-49780138D01*
X83716944Y-49841294D01*
X83716935Y-49841298D01*
X83502771Y-49941164D01*
X83502769Y-49941165D01*
X83309197Y-50076705D01*
X83142105Y-50243797D01*
X83006565Y-50437369D01*
X83006564Y-50437371D01*
X82906698Y-50651535D01*
X82906694Y-50651544D01*
X82845538Y-50879786D01*
X82845536Y-50879796D01*
X82824941Y-51115199D01*
X39402337Y-51115199D01*
X39379164Y-51040835D01*
X39379160Y-51040824D01*
X39245102Y-50742958D01*
X39245101Y-50742956D01*
X39076118Y-50463423D01*
X38928522Y-50275030D01*
X37786290Y-51417262D01*
X37689033Y-51283398D01*
X37566602Y-51160967D01*
X37432736Y-51063709D01*
X38574968Y-49921476D01*
X38386576Y-49773881D01*
X38315009Y-49730617D01*
X38267822Y-49679089D01*
X38255983Y-49610230D01*
X38283252Y-49545901D01*
X38340970Y-49506527D01*
X38379159Y-49500500D01*
X93875500Y-49500500D01*
X93942539Y-49520185D01*
G37*
%TD.AperFunction*%
%TA.AperFunction,Conductor*%
G36*
X35960967Y-117016602D02*
G01*
X36083398Y-117139033D01*
X36217262Y-117236290D01*
X35074028Y-118379523D01*
X35059266Y-118443965D01*
X35009321Y-118492824D01*
X34950069Y-118507341D01*
X34623475Y-118504640D01*
X34556600Y-118484401D01*
X34511283Y-118431221D01*
X34500500Y-118380644D01*
X34500500Y-118102251D01*
X34520185Y-118035212D01*
X34572989Y-117989457D01*
X34642147Y-117979513D01*
X34705703Y-118008538D01*
X34721332Y-118024959D01*
X34721476Y-118024968D01*
X35863708Y-116882736D01*
X35960967Y-117016602D01*
G37*
%TD.AperFunction*%
%TA.AperFunction,Conductor*%
G36*
X35387880Y-49520185D02*
G01*
X35433635Y-49572989D01*
X35443579Y-49642147D01*
X35414554Y-49705703D01*
X35384991Y-49730617D01*
X35313422Y-49773881D01*
X35313416Y-49773886D01*
X35125030Y-49921474D01*
X35125029Y-49921476D01*
X36267262Y-51063709D01*
X36133398Y-51160967D01*
X36010967Y-51283398D01*
X35913709Y-51417262D01*
X34771476Y-50275029D01*
X34771475Y-50275030D01*
X34722111Y-50338040D01*
X34665272Y-50378672D01*
X34595487Y-50382125D01*
X34534914Y-50347301D01*
X34502784Y-50285258D01*
X34500500Y-50261567D01*
X34500500Y-49624500D01*
X34520185Y-49557461D01*
X34572989Y-49511706D01*
X34624500Y-49500500D01*
X35320841Y-49500500D01*
X35387880Y-49520185D01*
G37*
%TD.AperFunction*%
%TD*%
D23*
X41300000Y-63800000D03*
X45300000Y-102750000D03*
X52900000Y-62000000D03*
X50500000Y-70000000D03*
X55700000Y-98600000D03*
X51000000Y-62700000D03*
X40850000Y-102750000D03*
X52900000Y-61100000D03*
X51000000Y-63600000D03*
X48700000Y-109950000D03*
X52300000Y-98600000D03*
X44900000Y-91300000D03*
X46900000Y-103850000D03*
X36750000Y-92050000D03*
X47600000Y-101400000D03*
X46200000Y-101400000D03*
X46200000Y-103850000D03*
X46900000Y-101400000D03*
X47600000Y-103850000D03*
X36750000Y-92925000D03*
X49950000Y-109700000D03*
X54000000Y-108223800D03*
X54200000Y-110600000D03*
X41800000Y-112600000D03*
X42400000Y-107500000D03*
X89400000Y-100400000D03*
X83200000Y-99600000D03*
X55700000Y-94800000D03*
X38350000Y-103900000D03*
X37000000Y-69900000D03*
X50040000Y-98750000D03*
X86550000Y-99600000D03*
X48330000Y-61760000D03*
X81000000Y-108320000D03*
X74800000Y-62530000D03*
X38200000Y-96450000D03*
X64570000Y-66650000D03*
X83100000Y-109720000D03*
X80430000Y-58700000D03*
X83050000Y-105070000D03*
X56300000Y-60000000D03*
X50200000Y-75500000D03*
X37460000Y-59070000D03*
X43400000Y-65100000D03*
X83050000Y-103020000D03*
X47250000Y-73750000D03*
X49200000Y-68800000D03*
X90500000Y-105020000D03*
X50000000Y-107280000D03*
X53100000Y-111600000D03*
X50200000Y-100210000D03*
X83080000Y-93550000D03*
X82200000Y-91320000D03*
X51900000Y-73100000D03*
X36900000Y-67800000D03*
X90870000Y-95500000D03*
X58450000Y-110380000D03*
X48550000Y-112500000D03*
X40200000Y-60800000D03*
X82800000Y-61170000D03*
X92600000Y-98880000D03*
X67200000Y-91750000D03*
X67350000Y-89950000D03*
X46600000Y-60600000D03*
X66150000Y-76100000D03*
X47300000Y-114500000D03*
X90900000Y-91130000D03*
X56300000Y-64800000D03*
X44400000Y-73750000D03*
X52900000Y-69200000D03*
X81500000Y-89050000D03*
X41050000Y-110100000D03*
X43700000Y-100500000D03*
X68750000Y-66350000D03*
X88900000Y-76800000D03*
X88950000Y-79150000D03*
X85700000Y-60250000D03*
X73200000Y-67150000D03*
X88900000Y-74300000D03*
X88850000Y-81050000D03*
X68600000Y-87300000D03*
X57900000Y-113400000D03*
X43300000Y-111800000D03*
X89400000Y-97800000D03*
X91700000Y-102200000D03*
X34750000Y-65950000D03*
X85000000Y-93750000D03*
D24*
X35150000Y-116300000D03*
X35633274Y-115133274D03*
X35633274Y-117466726D03*
X36800000Y-114650000D03*
X36800000Y-116300000D03*
X36800000Y-117950000D03*
X37966726Y-115133274D03*
X37966726Y-117466726D03*
X38450000Y-116300000D03*
X96250000Y-66950000D03*
X96733274Y-65783274D03*
X96733274Y-68116726D03*
X97900000Y-65300000D03*
X97900000Y-66950000D03*
X97900000Y-68600000D03*
X99066726Y-65783274D03*
X99066726Y-68116726D03*
X99550000Y-66950000D03*
X68797800Y-53822600D03*
X71297800Y-53822600D03*
X96050000Y-94800000D03*
X96533274Y-93633274D03*
X96533274Y-95966726D03*
X97700000Y-93150000D03*
X97700000Y-94800000D03*
X97700000Y-96450000D03*
X98866726Y-93633274D03*
X98866726Y-95966726D03*
X99350000Y-94800000D03*
X71054600Y-115390000D03*
X68554600Y-115390000D03*
X54135000Y-103250000D03*
X56675000Y-103250000D03*
X86720600Y-51115200D03*
X84180600Y-51115200D03*
X91627600Y-109491000D03*
X90357600Y-109491000D03*
X89087600Y-109491000D03*
X49025000Y-53150000D03*
X51525000Y-53150000D03*
X88707600Y-115951000D03*
X86207600Y-115951000D03*
X41053500Y-84768500D03*
X48053500Y-84768500D03*
X99949000Y-74277200D03*
X99949000Y-76777200D03*
X99949000Y-79277200D03*
X99949000Y-81777200D03*
X99949000Y-84277200D03*
X99949000Y-86777200D03*
X35200000Y-52000000D03*
X35683274Y-50833274D03*
X35683274Y-53166726D03*
X36850000Y-50350000D03*
X36850000Y-52000000D03*
X36850000Y-53650000D03*
X38016726Y-50833274D03*
X38016726Y-53166726D03*
X38500000Y-52000000D03*
X67335400Y-97891600D03*
X67335400Y-100431600D03*
X67335400Y-108051600D03*
X72415400Y-108051600D03*
X72415400Y-100431600D03*
X72415400Y-97891600D03*
M02*
